<?xml version="1.0" standalone="no"?>
<!DOCTYPE svg PUBLIC "-//W3C//DTD SVG 1.1//EN" "http://www.w3.org/Graphics/SVG/1.1/DTD/svg11.dtd" >
<svg xmlns="http://www.w3.org/2000/svg" xmlns:xlink="http://www.w3.org/1999/xlink" version="1.1">
<metadata>
Created by FontForge 20170731 at Tue Dec  1 20:24:57 2020
 By Aleksey,,,
Copyright (c) 2016-2019 by TypeType. Designers Ivan Gladkikh, Pavel Emelyanov. Technical designers Vika Usmanova, Olexa Volochay, Nadyr Rakhimov. All rights reserved. |DCNT
</metadata>
<defs>
<font id="TTNormsPro-Regular" horiz-adv-x="1228" >
  <font-face 
    font-family="TT Norms Pro"
    font-weight="400"
    font-stretch="normal"
    units-per-em="2048"
    panose-1="2 0 5 3 3 0 0 2 0 3"
    ascent="1434"
    descent="-614"
    x-height="983"
    cap-height="1434"
    bbox="-1065 -451 2945 2028"
    underline-thickness="102"
    underline-position="-307"
    unicode-range="U+000D-FB06"
  />
<missing-glyph horiz-adv-x="0" 
 />
    <glyph glyph-name="f_f" unicode="ff" horiz-adv-x="1239" 
d="M215 0v850h-154v133h154v143q0 138 70.5 212.5t195.5 74.5q49 0 103 -16q14 -6 41 -15v-133l-39 15q-50 16 -94 16q-63 0 -98.5 -39t-35.5 -115v-143h441v184q0 138 70.5 212.5t195.5 74.5q48 0 102 -16q14 -6 41 -15v-133l-39 15q-50 16 -94 16q-63 0 -98 -39t-35 -115
v-184h236v-133h-236v-850h-143v850h-441v-850h-143z" />
    <glyph glyph-name="uniFB01" unicode="fi" horiz-adv-x="1105" 
d="M215 0v850h-154v133h154v184q0 138 70.5 212.5t195.5 74.5q49 0 103 -16q14 -6 41 -15v-133l-39 15q-50 16 -94 16q-63 0 -98.5 -39t-35.5 -115v-184h584v-983h-143v850h-441v-850h-143zM778 1311q0 38 27 65t65 27t65.5 -27t27.5 -65t-27.5 -65t-65.5 -27t-65 27t-27 65
z" />
    <glyph glyph-name="f_f_i" unicode="ffi" horiz-adv-x="1689" 
d="M215 0v850h-154v133h154v143q0 138 70.5 212.5t195.5 74.5q49 0 103 -16q14 -6 41 -15v-133l-39 15q-50 16 -94 16q-63 0 -98.5 -39t-35.5 -115v-143h441v184q0 138 70.5 212.5t195.5 74.5q48 0 102 -16q14 -6 41 -15v-133l-39 15q-50 16 -94 16q-63 0 -98 -39t-35 -115
v-184h584v-983h-144v850h-440v-850h-143v850h-441v-850h-143zM1362 1311q0 38 27 65t65 27t65 -27t27 -65t-27 -65t-65 -27t-65 27t-27 65z" />
    <glyph glyph-name=".notdef" horiz-adv-x="0" 
 />
    <glyph glyph-name=".null" horiz-adv-x="0" 
 />
    <glyph glyph-name="nonmarkingreturn" horiz-adv-x="682" 
 />
    <glyph glyph-name="NULL" horiz-adv-x="0" 
 />
    <glyph glyph-name="NULL" horiz-adv-x="0" 
 />
    <glyph glyph-name="CR" unicode="&#xd;" horiz-adv-x="0" 
 />
    <glyph glyph-name="space" unicode=" " horiz-adv-x="430" 
 />
    <glyph glyph-name="exclam" unicode="!" horiz-adv-x="634" 
d="M256 348l-31 1086h185l-31 -1086h-123zM215 82q0 47 27.5 74.5t74.5 27.5t75 -27.5t28 -74.5t-28 -74.5t-75 -27.5t-74.5 27.5t-27.5 74.5z" />
    <glyph glyph-name="quotedbl" unicode="&#x22;" horiz-adv-x="716" 
d="M133 1004v430h133v-430h-133zM451 1004v430h133v-430h-133z" />
    <glyph glyph-name="numbersign" unicode="#" horiz-adv-x="1484" 
d="M276 0l82 420h-317l20 133h322l63 328h-303l21 133h307l82 420h133l-82 -420h389l82 420h133l-82 -420h318l-21 -133h-321l-64 -328h303l-20 -133h-307l-82 -420h-133l82 420h-389l-82 -420h-134zM516 553h389l64 328h-389z" />
    <glyph glyph-name="dollar" unicode="$" horiz-adv-x="1157" 
d="M92 195l92 104q38 -50 95 -88q118 -88 294 -88q157 0 242.5 73t85.5 193q0 59 -26.5 103t-71.5 72t-103.5 50t-123 40.5t-129 39t-123 51.5t-103.5 71t-71.5 103.5t-26.5 145.5q0 146 105.5 255.5t283.5 129.5v209h143v-209q141 -17 260 -100q59 -42 89 -80l-103 -103
q-29 34 -80 72q-113 72 -237 72q-142 0 -225 -72t-83 -174q0 -53 22 -94.5t59 -68.5t87 -49.5t106 -38t115.5 -35t115.5 -38.5t106 -50.5t87 -70.5t59 -98t22 -133q0 -164 -105.5 -273t-294.5 -132v-209h-143v207q-181 17 -317 114q-64 45 -103 99z" />
    <glyph glyph-name="percent" unicode="%" horiz-adv-x="1556" 
d="M82 1137q0 129 94 223t223 94t223.5 -94t94.5 -223t-94.5 -223.5t-223.5 -94.5t-223 94.5t-94 223.5zM256 0l901 1434h143l-901 -1434h-143zM399 942q79 0 132 55t53 140t-53 139.5t-132 54.5t-131.5 -54.5t-52.5 -139.5t52.5 -140t131.5 -55zM840 297q0 129 94 223
t223 94t223.5 -94t94.5 -223t-94.5 -223t-223.5 -94t-223 94t-94 223zM1157 102q79 0 131.5 55t52.5 140t-52.5 140t-131.5 55t-131.5 -55t-52.5 -140t52.5 -140t131.5 -55z" />
    <glyph glyph-name="ampersand" unicode="&#x26;" horiz-adv-x="1280" 
d="M594 748l328 -400q23 38 45 94q47 121 47 254h133q0 -169 -68 -334q-23 -61 -65 -126q20 -33 49 -62q61 -61 115 -61q13 0 41 4l20 6v-133l-22 -6q-28 -4 -50 -4q-91 0 -172 81q-37 37 -63 82q-40 -43 -98 -82q-124 -81 -281 -81q-180 0 -295 103t-115 245q0 163 138 305
q62 65 139 115q-65 65 -109 129q-106 146 -106 260q0 130 95 223.5t232 93.5t232.5 -91.5t95.5 -215.5q0 -132 -133 -281q-59 -65 -133 -118zM522 840q58 43 103 94q102 110 102 203q0 79 -55 131.5t-140 52.5t-139.5 -52.5t-54.5 -131.5q0 -80 92 -195q43 -56 92 -102z
M840 236l-338 430q-61 -47 -113 -105q-113 -125 -113 -233q0 -99 73.5 -157t203.5 -58q117 0 213 61q44 27 74 62z" />
    <glyph glyph-name="quotesingle" unicode="'" horiz-adv-x="399" 
d="M133 1004v430h133v-430h-133z" />
    <glyph glyph-name="parenleft" unicode="(" horiz-adv-x="686" 
d="M614 -389l-112 -62q-100 120 -170 258q-168 332 -168 705t168 705q70 138 170 258l112 -62q-86 -105 -159 -248q-158 -312 -158 -653t158 -653q73 -143 159 -248z" />
    <glyph glyph-name="parenright" unicode=")" horiz-adv-x="686" 
d="M184 -451l-112 62q80 98 157 248q160 316 160 653q0 345 -160 653q-77 150 -157 248l112 62q94 -114 168 -258q170 -336 170 -705t-170 -705q-74 -144 -168 -258z" />
    <glyph glyph-name="asterisk" unicode="*" horiz-adv-x="798" 
d="M154 860l174 215l-256 62l41 112l245 -82l-20 267h123l-21 -267l246 82l41 -112l-256 -62l174 -215l-92 -72l-154 226l-153 -226z" />
    <glyph glyph-name="plus" unicode="+" horiz-adv-x="1054" 
d="M461 143v389h-379v134h379v389h133v-389h379v-134h-379v-389h-133z" />
    <glyph glyph-name="comma" unicode="," horiz-adv-x="450" 
d="M0 -215l184 399l144 -82l-236 -368z" />
    <glyph glyph-name="hyphen" unicode="-" horiz-adv-x="808" 
d="M92 543v133h625v-133h-625z" />
    <glyph glyph-name="period" unicode="." horiz-adv-x="430" 
d="M113 82q0 47 27.5 74.5t74.5 27.5t74.5 -27.5t27.5 -74.5t-27.5 -74.5t-74.5 -27.5t-74.5 27.5t-27.5 74.5z" />
    <glyph glyph-name="slash" unicode="/" horiz-adv-x="747" 
d="M0 -430l614 1884h134l-615 -1884h-133z" />
    <glyph glyph-name="zero" unicode="0" horiz-adv-x="1392" 
d="M698 -20q-113 0 -216 51t-183.5 143.5t-128 233.5t-47.5 309t48 309t128 233.5t183 143.5t214 51t214 -51t183.5 -143.5t128.5 -233.5t48 -309t-48 -309t-127.5 -233.5t-182.5 -143.5t-214 -51zM698 123q80 0 154.5 39t133.5 111.5t94.5 187.5t35.5 256t-35.5 256
t-95 187.5t-134 111.5t-155.5 39t-155.5 -39t-134 -111.5t-95 -187.5t-35.5 -256t35 -256t94.5 -187.5t134.5 -111.5t158 -39z" />
    <glyph glyph-name="one" unicode="1" horiz-adv-x="716" 
d="M348 0v1147h-266v92q153 7 246 100q38 38 61 95h113v-1434h-154z" />
    <glyph glyph-name="two" unicode="2" horiz-adv-x="1126" 
d="M256 143h748v-143h-922q0 97 26.5 181t70.5 146t102 117.5t121.5 100t127 87t121.5 86t102 89t70.5 103.5t26.5 124q0 126 -81 201.5t-226 75.5q-158 0 -250 -123q-38 -50 -57 -123l-134 61q28 96 82 164q132 164 359 164q206 0 333.5 -120t127.5 -300
q0 -90 -34.5 -167.5t-92.5 -136t-128.5 -112t-146.5 -105t-143.5 -104t-122.5 -121.5t-80 -145z" />
    <glyph glyph-name="three" unicode="3" horiz-adv-x="1146" 
d="M61 195l103 102q39 -51 94 -88q126 -86 285 -86q157 0 247.5 78.5t90.5 197.5q0 113 -94 195t-244 82h-144v143h144q129 0 202.5 69t73.5 187q0 103 -74.5 169.5t-201.5 66.5q-134 0 -244 -82q-53 -40 -84 -82l-102 113q46 56 106 96q144 98 324 98q188 0 309 -111
t121 -268q0 -155 -109 -252q-47 -44 -106 -65q74 -21 133 -68q133 -111 133 -291q0 -80 -34 -155.5t-95 -134t-153 -94t-199 -35.5q-211 0 -365 106q-69 46 -117 109z" />
    <glyph glyph-name="four" unicode="4" horiz-adv-x="1198" 
d="M61 307v174l687 953h194v-983h184v-144h-184v-307h-154v307h-727zM205 451h583v809z" />
    <glyph glyph-name="five" unicode="5" horiz-adv-x="1239" 
d="M154 195l102 102q38 -50 92 -88q126 -86 277 -86q153 0 245.5 90t92.5 238t-90 237.5t-238 89.5q-138 0 -240 -78q-50 -37 -78 -75h-112l51 809h768v-144h-635l-31 -450q49 30 74 41q84 41 203 41q208 0 344.5 -134.5t136.5 -336.5q0 -209 -135 -340t-356 -131
q-201 0 -355 106q-63 44 -116 109z" />
    <glyph glyph-name="six" unicode="6" horiz-adv-x="1208" 
d="M215 758l430 676h154l-338 -533l41 10q50 11 112 11q208 0 345 -134.5t137 -336.5t-139 -336.5t-353 -134.5t-352.5 134.5t-138.5 336.5q0 115 51 219q13 32 51 88zM266 451q0 -148 92.5 -238t245.5 -90t245.5 90t92.5 238t-92 237.5t-246 89.5t-246 -89.5t-92 -237.5z
" />
    <glyph glyph-name="seven" unicode="7" horiz-adv-x="1013" 
d="M164 0l635 1290h-738v144h902v-144l-635 -1290h-164z" />
    <glyph glyph-name="eight" unicode="8" horiz-adv-x="1208" 
d="M123 420q0 167 123 278q53 50 123 80q-51 26 -93 68q-92 92 -92 229q0 97 55 184t152.5 141t212.5 54t212.5 -54t152.5 -141t55 -184q0 -137 -92 -229q-43 -43 -92 -68q70 -30 123 -80q122 -110 122 -278q0 -88 -36.5 -168.5t-99 -140.5t-153 -95.5t-192.5 -35.5
t-192.5 35.5t-153 95.5t-99 140.5t-36.5 168.5zM338 1075q0 -102 72.5 -168.5t193.5 -66.5t193.5 66.5t72.5 168.5t-72.5 169t-193.5 67t-193.5 -67t-72.5 -169zM276 420q0 -121 90 -209t238 -88t238 88t90 209q0 118 -96 207.5t-232 89.5t-232 -89.5t-96 -207.5z" />
    <glyph glyph-name="nine" unicode="9" horiz-adv-x="1208" 
d="M410 0l338 532q-22 -7 -41 -10q-52 -10 -113 -10q-208 0 -344.5 134.5t-136.5 336.5t138.5 336.5t352.5 134.5t353 -134.5t139 -336.5q0 -105 -52 -219q-13 -32 -51 -88l-430 -676h-153zM266 983q0 -148 92.5 -238t245.5 -90t245.5 90t92.5 238t-92.5 238t-245.5 90
t-245.5 -90t-92.5 -238z" />
    <glyph glyph-name="colon" unicode=":" horiz-adv-x="430" 
d="M113 82q0 47 27.5 74.5t74.5 27.5t74.5 -27.5t27.5 -74.5t-27.5 -74.5t-74.5 -27.5t-74.5 27.5t-27.5 74.5zM113 901q0 47 27.5 75t74.5 28t74.5 -28t27.5 -75t-27.5 -74.5t-74.5 -27.5t-74.5 27.5t-27.5 74.5z" />
    <glyph glyph-name="semicolon" unicode=";" horiz-adv-x="450" 
d="M0 -215l184 399l144 -82l-236 -368zM133 901q0 47 28 75t75 28t74.5 -28t27.5 -75t-27.5 -74.5t-74.5 -27.5t-75 27.5t-28 74.5z" />
    <glyph glyph-name="less" unicode="&#x3c;" horiz-adv-x="1013" 
d="M92 461v82l830 440v-143l-646 -338l646 -338v-144z" />
    <glyph glyph-name="equal" unicode="=" horiz-adv-x="1013" 
d="M92 717v133h830v-133h-830zM92 358v134h830v-134h-830z" />
    <glyph glyph-name="greater" unicode="&#x3e;" horiz-adv-x="1013" 
d="M92 20v144l645 338l-645 338v143l830 -440v-82z" />
    <glyph glyph-name="question" unicode="?" horiz-adv-x="1075" 
d="M584 348h-144l-6 29q-4 32 -4 63q0 67 22 123.5t57 97t77.5 76.5t85.5 70.5t78 70t57 83.5t22 104q0 103 -81.5 174.5t-215.5 71.5q-161 0 -258 -113q-42 -54 -59 -113l-133 41q28 94 86 164q132 164 364 164q196 0 323.5 -115.5t127.5 -273.5q0 -79 -22 -141.5t-57 -104
t-77.5 -77t-85.5 -69t-78 -70.5t-57 -91.5t-22 -122.5v-41zM410 82q0 47 27.5 74.5t74.5 27.5t74.5 -27.5t27.5 -74.5t-27.5 -74.5t-74.5 -27.5t-74.5 27.5t-27.5 74.5z" />
    <glyph glyph-name="at" unicode="@" horiz-adv-x="1843" 
d="M1311 -10l71 -92q-50 -44 -118 -82q-160 -82 -342 -82q-154 0 -298 63t-249.5 168t-168.5 249t-63 298t63 298t168.5 249t249.5 168t298 63q160 0 305 -59.5t248 -159t164 -235.5t61 -283q0 -211 -90 -320.5t-228 -109.5q-109 0 -174 72q-29 29 -51 71q-21 -41 -59 -71
q-79 -72 -207 -72q-140 0 -244 110t-104 269t104 269t244 110q115 0 188 -58q38 -26 58 -55v102h123v-467q0 -157 122 -157q80 0 132.5 74t52.5 233q0 171 -82.5 311.5t-230.5 221.5t-332 81q-132 0 -251.5 -51t-206 -138t-137.5 -208.5t-51 -257.5t51 -257.5t137.5 -208.5
t206 -138t251.5 -51q152 0 286 65q53 24 103 68zM901 246q102 0 169 70.5t67 185.5t-67 185.5t-169 70.5q-96 0 -160.5 -71.5t-64.5 -184.5t64.5 -184.5t160.5 -71.5z" />
    <glyph glyph-name="A" unicode="A" horiz-adv-x="1413" 
d="M41 0l594 1434h143l594 -1434h-164l-164 399h-675l-164 -399h-164zM430 543h553l-276 676z" />
    <glyph glyph-name="B" unicode="B" horiz-adv-x="1361" 
d="M215 0v1434h553q175 0 287 -106.5t112 -262.5q0 -140 -82 -234q-42 -45 -81 -63q61 -29 116 -80q119 -115 119 -278q0 -179 -121.5 -294.5t-318.5 -115.5h-584zM369 831h399q116 0 181 62.5t65 171.5q0 102 -65.5 163.5t-180.5 61.5h-399v-459zM369 143h430
q129 0 207.5 74.5t78.5 192.5q0 119 -79.5 202.5t-206.5 83.5h-430v-553z" />
    <glyph glyph-name="C" unicode="C" horiz-adv-x="1536" 
d="M1352 369l102 -93q-71 -91 -151 -149q-199 -147 -443 -147q-151 0 -287.5 58t-235 156.5t-156.5 235t-58 287.5t58 287.5t156.5 235t235 156.5t287.5 58q241 0 438 -149q86 -67 146 -148l-103 -92q-52 74 -118 123q-156 123 -363 123q-162 0 -296 -77.5t-211 -214
t-77 -302.5t77 -302.5t211 -214t296 -77.5q209 0 369 123q71 52 123 123z" />
    <glyph glyph-name="D" unicode="D" horiz-adv-x="1536" 
d="M215 0v1434h451q154 0 293.5 -58t238.5 -155t157 -229t58 -275t-58 -275t-157 -229t-238.5 -155t-293.5 -58h-451zM369 143h297q166 0 302.5 77t214 208.5t77.5 288.5t-77.5 288t-214 208t-302.5 77h-297v-1147z" />
    <glyph glyph-name="E" unicode="E" horiz-adv-x="1310" 
d="M215 0v1434h983v-144h-829v-471h665v-143h-665v-533h850v-143h-1004z" />
    <glyph glyph-name="F" unicode="F" horiz-adv-x="1259" 
d="M215 0v1434h973v-144h-819v-491h655v-144h-655v-655h-154z" />
    <glyph glyph-name="G" unicode="G" horiz-adv-x="1628" 
d="M983 594v143h481v-461q-65 -84 -155 -149q-207 -147 -449 -147q-151 0 -287.5 58t-235 156.5t-156.5 235t-58 287.5t58 287.5t156.5 235t235 156.5t287.5 58q241 0 438 -149q86 -67 146 -148l-103 -92q-52 74 -118 123q-156 123 -363 123q-162 0 -296 -77.5t-211 -214
t-77 -302.5t77 -302.5t211 -214t296 -77.5q195 0 340 96q66 45 111 98v277h-328z" />
    <glyph glyph-name="H" unicode="H" horiz-adv-x="1536" 
d="M215 0v1434h154v-635h798v635h154v-1434h-154v655h-798v-655h-154z" />
    <glyph glyph-name="I" unicode="I" horiz-adv-x="583" 
d="M215 0v1434h154v-1434h-154z" />
    <glyph glyph-name="J" unicode="J" horiz-adv-x="1013" 
d="M20 143l103 103q25 -36 61 -62q81 -61 185 -61q131 0 208.5 79t77.5 218v1014h154v-1014q0 -192 -124 -316t-316 -124q-141 0 -258 81q-59 42 -91 82z" />
    <glyph glyph-name="K" unicode="K" horiz-adv-x="1372" 
d="M215 0v1434h154v-809l737 809h194l-542 -594l594 -840h-185l-512 727l-286 -307v-420h-154z" />
    <glyph glyph-name="L" unicode="L" horiz-adv-x="1146" 
d="M215 0v1434h154v-1291h737v-143h-891z" />
    <glyph glyph-name="M" unicode="M" horiz-adv-x="1884" 
d="M215 0v1434h133l594 -779l594 779h133v-1434h-153v1167l-574 -757l-573 757v-1167h-154z" />
    <glyph glyph-name="N" unicode="N" horiz-adv-x="1597" 
d="M215 0v1434h133l881 -1158v1158h153v-1434h-133l-880 1157v-1157h-154z" />
    <glyph glyph-name="O" unicode="O" horiz-adv-x="1720" 
d="M123 717q0 151 58 287.5t156.5 235t235 156.5t287.5 58t287.5 -58t235 -156.5t156.5 -235t58 -287.5t-58 -287.5t-156.5 -235t-235 -156.5t-287.5 -58t-287.5 58t-235 156.5t-156.5 235t-58 287.5zM860 123q162 0 296 77.5t211 214t77 302.5t-77 302.5t-211 214
t-296 77.5t-296 -77.5t-211 -214t-77 -302.5t77 -302.5t211 -214t296 -77.5z" />
    <glyph glyph-name="P" unicode="P" horiz-adv-x="1331" 
d="M215 0v1434h543q198 0 329.5 -129.5t131.5 -321.5t-131.5 -321.5t-329.5 -129.5h-389v-532h-154zM369 676h389q140 0 223.5 84t83.5 223t-83.5 223t-223.5 84h-389v-614z" />
    <glyph glyph-name="Q" unicode="Q" horiz-adv-x="1720" 
d="M1659 -143v-133l-23 -7q-32 -4 -69 -4q-244 0 -412 144q-77 67 -121 143q-26 -7 -49 -10q-58 -10 -125 -10q-151 0 -287.5 58t-235 156.5t-156.5 235t-58 287.5t58 287.5t156.5 235t235 156.5t287.5 58t287.5 -58t235 -156.5t156.5 -235t58 -287.5q0 -307 -211 -518
q-94 -94 -208 -148q31 -53 90 -102q127 -103 299 -103q37 0 69 4zM860 123q162 0 296 77.5t211 214t77 302.5t-77 302.5t-211 214t-296 77.5t-296 -77.5t-211 -214t-77 -302.5t77 -302.5t211 -214t296 -77.5z" />
    <glyph glyph-name="R" unicode="R" horiz-adv-x="1382" 
d="M215 0v1434h573q191 0 316 -122.5t125 -307.5q0 -200 -150 -328q-70 -57 -147 -82l338 -594h-174l-318 573h-409v-573h-154zM369 717h419q130 0 208.5 78.5t78.5 208.5t-78 208t-209 78h-419v-573z" />
    <glyph glyph-name="S" unicode="S" horiz-adv-x="1157" 
d="M92 195l92 104q38 -50 95 -88q118 -88 294 -88q157 0 242.5 73t85.5 193q0 59 -26.5 103t-71.5 72t-103.5 50t-123 40.5t-129 39t-123 51.5t-103.5 71t-71.5 103.5t-26.5 145.5q0 161 127 275t334 114q172 0 313 -92q61 -40 107 -92l-103 -103q-29 34 -80 72
q-113 72 -237 72q-142 0 -225 -72t-83 -174q0 -53 22 -94.5t59 -68.5t87 -49.5t106 -38t115.5 -35t115.5 -38.5t106 -50.5t87 -70.5t59 -98t22 -133q0 -181 -128.5 -295t-353.5 -114q-210 0 -364 106q-69 46 -117 109z" />
    <glyph glyph-name="T" unicode="T" horiz-adv-x="1136" 
d="M492 0v1290h-451v144h1055v-144h-451v-1290h-153z" />
    <glyph glyph-name="U" unicode="U" horiz-adv-x="1556" 
d="M195 563v871h153v-871q0 -191 122.5 -315.5t307.5 -124.5t307.5 124.5t122.5 315.5v871h154v-871q0 -161 -77 -295t-211 -211t-296 -77t-295.5 77t-210.5 210.5t-77 295.5z" />
    <glyph glyph-name="V" unicode="V" horiz-adv-x="1392" 
d="M625 0l-564 1434h164l471 -1219l471 1219h164l-563 -1434h-143z" />
    <glyph glyph-name="W" unicode="W" horiz-adv-x="2129" 
d="M532 0l-471 1434h164l379 -1198l389 1198h144l389 -1198l379 1198h163l-471 -1434h-153l-379 1198l-379 -1198h-154z" />
    <glyph glyph-name="X" unicode="X" horiz-adv-x="1331" 
d="M41 0l532 748l-491 686h184l400 -564l399 564h184l-491 -686l532 -748h-184l-440 625l-441 -625h-184z" />
    <glyph glyph-name="Y" unicode="Y" horiz-adv-x="1300" 
d="M573 0v502l-532 932h174l430 -768h10l430 768h175l-533 -932v-502h-154z" />
    <glyph glyph-name="Z" unicode="Z" 
d="M92 0v143l840 1147h-809v144h993v-144l-840 -1147h861v-143h-1045z" />
    <glyph glyph-name="bracketleft" unicode="[" horiz-adv-x="686" 
d="M184 -430v1884h420v-133h-276v-1618h276v-133h-420z" />
    <glyph glyph-name="backslash" unicode="\" horiz-adv-x="747" 
d="M614 -430l-614 1884h133l615 -1884h-134z" />
    <glyph glyph-name="bracketright" unicode="]" horiz-adv-x="686" 
d="M82 -430v133h276v1618h-276v133h420v-1884h-420z" />
    <glyph glyph-name="asciicircum" unicode="^" horiz-adv-x="819" 
d="M92 860l266 574h103l266 -574h-133l-184 410l-185 -410h-133z" />
    <glyph glyph-name="underscore" unicode="_" horiz-adv-x="675" 
d="M-20 -348v133h716v-133h-716z" />
    <glyph glyph-name="grave" unicode="`" horiz-adv-x="430" 
d="M256 1157l-195 277h154l154 -277h-113z" />
    <glyph glyph-name="a" unicode="a" horiz-adv-x="1064" 
d="M758 0v133q-28 -41 -78 -78q-106 -75 -240 -75q-149 0 -248.5 87t-99.5 199q0 123 73.5 198.5t213.5 98.5l379 62q0 109 -68.5 177t-177.5 68q-108 0 -203 -71q-43 -36 -73 -72l-93 92q37 49 97 92q125 93 272 93q168 0 278.5 -108.5t110.5 -270.5v-625h-143zM758 440v62
l-338 -62q-184 -34 -184 -174q0 -65 54 -109t150 -44q140 0 229 90t89 237z" />
    <glyph glyph-name="b" unicode="b" 
d="M174 0v1434h143v-594q35 47 84 82q110 82 254 82q202 0 342 -146t140 -366t-140 -366t-342 -146q-145 0 -254 81q-49 35 -84 82v-143h-143zM655 113q142 0 240 107t98 272t-98 271.5t-240 106.5q-133 0 -235.5 -110.5t-102.5 -267.5q0 -158 103 -268.5t235 -110.5z" />
    <glyph glyph-name="c" unicode="c" horiz-adv-x="1054" 
d="M891 276l102 -92q-41 -51 -108 -102q-144 -102 -301 -102q-99 0 -189.5 40t-157 108t-106 163.5t-39.5 200.5t39.5 200.5t106 163.5t157 108t189.5 40q158 0 295 -99q56 -41 104 -96l-102 -102q-32 43 -76 81q-98 82 -221 82q-140 0 -244 -109.5t-104 -268.5t104 -269
t244 -110q117 0 227 82q50 40 80 81z" />
    <glyph glyph-name="d" unicode="d" 
d="M911 0v143q-31 -42 -84 -82q-113 -81 -254 -81q-202 0 -341.5 146t-139.5 366t139.5 366t341.5 146q140 0 254 -82q53 -40 84 -82v594h144v-1434h-144zM573 113q132 0 235 110.5t103 268.5q0 157 -102.5 267.5t-235.5 110.5q-142 0 -239.5 -106.5t-97.5 -271.5t97.5 -272
t239.5 -107z" />
    <glyph glyph-name="e" unicode="e" horiz-adv-x="1136" 
d="M901 276l92 -92q-40 -53 -104 -102q-144 -102 -305 -102q-99 0 -189.5 40t-157 108t-106 163.5t-39.5 200.5q0 140 66.5 258.5t177 186t237.5 67.5q202 0 336.5 -139t134.5 -353q0 -11 -6 -53l-4 -21l-798 2q8 -132 109 -229.5t239 -97.5q125 0 235 82q55 44 82 81z
M236 563h665q-18 133 -108.5 220t-219.5 87t-224 -90t-113 -217z" />
    <glyph glyph-name="f" unicode="f" horiz-adv-x="655" 
d="M215 0v850h-154v133h154v184q0 138 70.5 212.5t195.5 74.5q49 0 103 -16q14 -6 41 -15v-133l-39 15q-50 16 -94 16q-63 0 -98.5 -39t-35.5 -115v-184h236v-133h-236v-850h-143z" />
    <glyph glyph-name="g" unicode="g" horiz-adv-x="1187" 
d="M133 -225l92 92q29 -40 82 -82q110 -82 236 -82q141 0 239.5 103t98.5 255v113q-25 -40 -76 -78q-107 -76 -252 -76q-192 0 -326.5 142.5t-134.5 349.5t134.5 349.5t326.5 142.5q142 0 252 -78q50 -37 76 -76v133h143v-922q0 -206 -140.5 -348.5t-340.5 -142.5
q-174 0 -310 102q-64 51 -100 103zM553 154q139 0 233.5 102.5t94.5 255.5t-94.5 255.5t-233.5 102.5q-131 0 -224 -103t-93 -255t93 -255t224 -103z" />
    <glyph glyph-name="h" unicode="h" horiz-adv-x="1198" 
d="M174 0v1434h143v-594q26 40 78 82q110 82 240 82q178 0 288.5 -114.5t110.5 -305.5v-584h-143v584q0 129 -74 207.5t-192 78.5q-133 0 -220.5 -90.5t-87.5 -236.5v-543h-143z" />
    <glyph glyph-name="i" unicode="i" horiz-adv-x="471" 
d="M143 1311q0 38 27.5 65t65.5 27t65 -27t27 -65t-27 -65t-65 -27t-65.5 27t-27.5 65zM164 0v983h143v-983h-143z" />
    <glyph glyph-name="j" unicode="j" horiz-adv-x="471" 
d="M143 1311q0 38 27.5 65t65.5 27t65 -27t27 -65t-27 -65t-65 -27t-65.5 27t-27.5 65zM-82 -399v133l33 -17q32 -14 80 -14q63 0 98 39t35 115v1126h143v-1126q0 -287 -266 -287q-48 0 -88 14q-23 10 -35 17z" />
    <glyph glyph-name="k" unicode="k" horiz-adv-x="1044" 
d="M174 0v1434h143v-973l492 522h174l-379 -399l420 -584h-164l-348 481l-195 -205v-276h-143z" />
    <glyph glyph-name="l" unicode="l" horiz-adv-x="491" 
d="M174 0v1434h143v-1434h-143z" />
    <glyph glyph-name="m" unicode="m" horiz-adv-x="1781" 
d="M164 0v983h143v-123q24 37 66 72q97 72 211 72q146 0 247 -89q44 -38 70 -86q24 44 76 86q114 89 262 89q167 0 273 -110.5t106 -309.5v-584h-143v584q0 138 -67 212t-179 74q-110 0 -188 -89.5t-78 -237.5v-543h-144v584q0 136 -67 211t-179 75q-110 0 -188 -89.5
t-78 -237.5v-543h-143z" />
    <glyph glyph-name="n" unicode="n" horiz-adv-x="1187" 
d="M164 0v983h143v-143q26 40 78 82q110 82 240 82q178 0 288.5 -114.5t110.5 -305.5v-584h-143v584q0 129 -74.5 207.5t-192.5 78.5q-132 0 -219.5 -90.5t-87.5 -236.5v-543h-143z" />
    <glyph glyph-name="o" unicode="o" horiz-adv-x="1187" 
d="M594 -20q-136 0 -251.5 67.5t-183 185.5t-67.5 259t67.5 259t183 185.5t251.5 67.5t251.5 -67.5t183 -185.5t67.5 -259t-67.5 -259t-183 -185.5t-251.5 -67.5zM594 113q148 0 253 109.5t105 269.5t-105 269t-253 109t-253 -109t-105 -269q0 -159 105.5 -269t252.5 -110z
" />
    <glyph glyph-name="p" unicode="p" horiz-adv-x="1218" 
d="M164 -430v1413h143v-143q35 47 84 82q110 82 254 82q202 0 341.5 -146t139.5 -366t-139.5 -366t-341.5 -146q-145 0 -254 81q-49 35 -84 82v-573h-143zM645 113q142 0 240 107t98 272t-98 271.5t-240 106.5q-133 0 -235.5 -110.5t-102.5 -267.5q0 -158 103 -268.5
t235 -110.5z" />
    <glyph glyph-name="q" unicode="q" horiz-adv-x="1218" 
d="M911 -430v573q-31 -42 -84 -82q-113 -81 -254 -81q-202 0 -341.5 146t-139.5 366t139.5 366t341.5 146q140 0 254 -82q53 -40 84 -82v143h144v-1413h-144zM573 113q132 0 235 110.5t103 268.5q0 157 -102.5 267.5t-235.5 110.5q-142 0 -239.5 -106.5t-97.5 -271.5
t97.5 -272t239.5 -107z" />
    <glyph glyph-name="r" unicode="r" horiz-adv-x="706" 
d="M164 0v983h143v-133q39 45 80 76q110 78 248 78h41v-144h-62q-127 0 -217 -87.5t-90 -229.5v-543h-143z" />
    <glyph glyph-name="s" unicode="s" horiz-adv-x="880" 
d="M72 154l102 102q27 -41 66 -72q78 -71 190 -71q105 0 160 45.5t55 117.5q0 45 -29.5 77.5t-76.5 51.5t-103.5 36t-113 38t-103.5 49.5t-76.5 79t-29.5 119.5q0 110 92 193.5t235 83.5q123 0 236 -68q46 -27 82 -66l-103 -102q-24 31 -53 51q-80 51 -162 51
q-81 0 -132.5 -43t-51.5 -100q0 -43 29.5 -74t76.5 -49t103.5 -34.5t113 -38t103.5 -51t76.5 -81.5t29.5 -123q0 -127 -97.5 -211.5t-260.5 -84.5q-154 0 -272 86q-53 38 -86 88z" />
    <glyph glyph-name="t" unicode="t" horiz-adv-x="737" 
d="M246 266v584h-185v133h113q82 0 82 102v226h133v-328h215v-133h-215v-584q0 -76 35 -114.5t98 -38.5q50 0 94 14q4 2 18.5 7.5t20.5 8.5v-133q-7 -3 -21 -8.5t-20 -7.5q-44 -14 -98 -14q-129 0 -199.5 74t-70.5 212z" />
    <glyph glyph-name="u" unicode="u" horiz-adv-x="1198" 
d="M164 410v573h143v-573q0 -129 80 -213t197 -84q126 0 211.5 91t85.5 236v543h143v-983h-143v133q-28 -41 -78 -78q-106 -75 -240 -75q-171 0 -285 120t-114 310z" />
    <glyph glyph-name="v" unicode="v" horiz-adv-x="1003" 
d="M430 0l-399 983h153l318 -788l317 788h154l-400 -983h-143z" />
    <glyph glyph-name="w" unicode="w" horiz-adv-x="1495" 
d="M369 0l-338 983h153l256 -758l246 758h123l246 -758l256 758h153l-338 -983h-133l-245 748l-246 -748h-133z" />
    <glyph glyph-name="x" unicode="x" horiz-adv-x="983" 
d="M31 0l368 512l-338 471h175l256 -358l256 358h174l-338 -471l368 -512h-174l-286 399l-287 -399h-174z" />
    <glyph glyph-name="y" unicode="y" horiz-adv-x="1003" 
d="M92 -410v134q22 -9 33 -11q33 -10 70 -10q68 0 111 37t73 117l51 143l-399 983h153l318 -799l317 799h154l-451 -1126q-62 -155 -132 -221t-175 -66q-46 0 -88 10q-16 2 -35 10z" />
    <glyph glyph-name="z" unicode="z" horiz-adv-x="952" 
d="M82 0v133l594 717h-574v133h748v-133l-594 -717h614v-133h-788z" />
    <glyph glyph-name="braceleft" unicode="{" horiz-adv-x="727" 
d="M266 -154v461q0 144 -143 144v122q143 0 143 144v461q0 125 81 200.5t226 75.5h82v-123h-82q-84 0 -129 -41t-45 -112v-461q0 -107 -61 -168q-29 -25 -62 -37q33 -12 62 -37q61 -61 61 -168v-461q0 -71 45 -112t129 -41h82v-123h-82q-145 0 -226 75.5t-81 200.5z" />
    <glyph glyph-name="bar" unicode="|" horiz-adv-x="624" 
d="M246 -430v1884h133v-1884h-133z" />
    <glyph glyph-name="braceright" unicode="}" horiz-adv-x="727" 
d="M72 -430v123h82q84 0 129 41t45 112v461q0 107 61 168q29 25 62 37q-33 12 -62 37q-61 61 -61 168v461q0 71 -45 112t-129 41h-82v123h82q145 0 226 -75.5t81 -200.5v-461q0 -144 143 -144v-122q-143 0 -143 -144v-461q0 -125 -81 -200.5t-226 -75.5h-82z" />
    <glyph glyph-name="asciitilde" unicode="~" horiz-adv-x="1085" 
d="M164 492l-92 71q24 45 69 86q96 88 207 88q56 0 103 -14.5t79 -35.5t62 -42.5t66.5 -36t78.5 -14.5q81 0 142 61q26 29 43 62l92 -72q-28 -49 -70 -88q-94 -86 -207 -86q-57 0 -103.5 14.5t-78.5 35.5t-61.5 42.5t-66.5 36t-79 14.5q-80 0 -141 -61q-27 -30 -43 -61z" />
    <glyph glyph-name="nbspace" unicode="&#xa0;" horiz-adv-x="430" 
 />
    <glyph glyph-name="exclamdown" unicode="&#xa1;" horiz-adv-x="573" 
d="M184 901q0 47 28 75t75 28t74.5 -28t27.5 -75t-27.5 -74.5t-74.5 -27.5t-75 27.5t-28 74.5zM195 -430l30 1065h123l31 -1065h-184z" />
    <glyph glyph-name="cent" unicode="&#xa2;" horiz-adv-x="1024" 
d="M512 -225v211q-175 26 -297.5 165.5t-122.5 340.5q0 193 123.5 336.5t296.5 168.5v211h133v-213q121 -19 236 -100q55 -44 82 -76l-93 -92q-25 34 -73 72q-99 71 -213 71q-140 0 -244 -109.5t-104 -268.5t104 -269t244 -110q124 0 213 71q40 28 73 72l93 -92
q-31 -38 -82 -80q-113 -84 -236 -96v-213h-133z" />
    <glyph glyph-name="sterling" unicode="&#xa3;" horiz-adv-x="1146" 
d="M133 0v143q61 0 102 39t41 94v318h-133v143h133v267q0 200 124 325t317 125q147 0 276 -88q52 -37 92 -86l-102 -102q-27 38 -68 65q-97 68 -198 68q-124 0 -210.5 -88.5t-86.5 -218.5v-267h420v-143h-420v-318q0 -56 -27 -100q-9 -21 -24 -33h716v-143h-952z" />
    <glyph glyph-name="currency" unicode="&#xa4;" horiz-adv-x="1249" 
d="M205 369l119 118q-17 24 -29 54q-29 72 -29 145q0 72 29 145q12 30 29 54l-119 119l102 102l119 -119q25 18 53 29q70 28 146 28q75 0 145 -28q28 -11 53 -29l119 119l102 -102l-118 -119q15 -20 28 -54q29 -72 29 -145q0 -72 -29 -145q-13 -34 -28 -54l118 -118
l-102 -103l-119 119q-25 -18 -53 -29q-70 -28 -145 -28q-76 0 -146 28q-28 11 -53 29l-119 -119zM625 451q101 0 163 63.5t62 171.5t-62 172t-163 64t-163.5 -64t-62.5 -172t62.5 -171.5t163.5 -63.5z" />
    <glyph glyph-name="yen" unicode="&#xa5;" horiz-adv-x="1300" 
d="M246 236v133h327v133l-12 20h-315v133h239l-444 779h174l430 -768h10l430 768h175l-447 -779h242v-133h-318l-10 -20v-133h328v-133h-328v-236h-154v236h-327z" />
    <glyph glyph-name="brokenbar" unicode="&#xa6;" horiz-adv-x="624" 
d="M246 676v778h133v-778h-133zM246 -430v778h133v-778h-133z" />
    <glyph glyph-name="section" unicode="&#xa7;" horiz-adv-x="1105" 
d="M154 -41l102 102q25 -40 68 -77q92 -76 198 -76q118 0 187 56t69 138q0 43 -27.5 77.5t-73 57t-103.5 45.5t-118.5 42t-118.5 49.5t-103.5 65.5t-73 90.5t-27.5 125.5q0 116 103 211q46 40 102 66q-41 18 -72 49q-71 64 -71 166q0 127 102 217t266 90q129 0 242 -72
q57 -40 86 -71l-103 -94q-35 35 -61 51q-77 53 -164 53q-104 0 -164.5 -50.5t-60.5 -123.5q0 -50 35 -87.5t91 -62.5t123.5 -48t135.5 -52t124 -66t91 -97.5t35 -139.5q0 -120 -103 -207q-50 -40 -102 -59q42 -22 76 -56q78 -78 78 -170q0 -135 -110.5 -231t-289.5 -96
q-153 0 -276 92q-52 40 -92 92zM645 399q48 11 92 37q92 61 92 158q0 51 -30 93.5t-79.5 70t-95.5 46t-97.5 34.5t-65.5 22q-53 -15 -92 -41q-93 -61 -93 -164q0 -52 30.5 -93.5t80 -67.5t96.5 -43t97 -31t65 -21z" />
    <glyph glyph-name="dieresis" unicode="&#xa8;" horiz-adv-x="696" 
d="M61 1300q0 38 27.5 65.5t65.5 27.5t65 -27.5t27 -65.5t-27 -65t-65 -27t-65.5 27t-27.5 65zM451 1300q0 38 27 65.5t65 27.5t65 -27.5t27 -65.5t-27 -65t-65 -27t-65 27t-27 65z" />
    <glyph glyph-name="copyright" unicode="&#xa9;" horiz-adv-x="1802" 
d="M154 717q0 151 58.5 287.5t158 235t238 156.5t292.5 58t293 -58t238.5 -156.5t158 -235t58.5 -287.5t-58.5 -287.5t-158 -235t-238.5 -156.5t-293 -58t-292.5 58t-238 156.5t-158 235t-58.5 287.5zM287 717q0 -172 80.5 -313t221.5 -221.5t312 -80.5q128 0 242.5 47.5
t196 129t129 196t47.5 242.5q0 171 -80.5 312t-221.5 221.5t-313 80.5q-171 0 -312 -80.5t-221.5 -221.5t-80.5 -312zM1137 563l82 -82q-39 -49 -78 -78q-98 -75 -230 -75q-169 0 -279 110t-110 279t110 279t279 110q128 0 230 -78q36 -27 78 -76l-82 -82q-23 33 -56 56
q-72 57 -170 57q-117 0 -191.5 -74.5t-74.5 -191.5t74.5 -191.5t191.5 -74.5q101 0 170 55q37 26 56 57z" />
    <glyph glyph-name="ordfeminine" unicode="&#xaa;" horiz-adv-x="675" 
d="M471 850v82q-16 -28 -45 -51q-64 -52 -160 -52q-82 0 -138 50t-56 114q0 151 184 185l215 41q0 61 -35.5 97t-97.5 36q-70 0 -115 -41q-25 -21 -39 -41l-71 61q22 36 55 62q77 61 170 61q116 0 175.5 -57.5t59.5 -167.5v-379h-102zM471 1106v20l-195 -41q-92 -18 -92 -81
q0 -82 103 -82q78 0 131 52.5t53 131.5z" />
    <glyph glyph-name="guillemotleft" unicode="&#xab;" horiz-adv-x="952" 
d="M328 154l-236 338l236 337h153l-235 -337l235 -338h-153zM707 154l-236 338l236 337h153l-235 -337l235 -338h-153z" />
    <glyph glyph-name="logicalnot" unicode="&#xac;" horiz-adv-x="942" 
d="M92 666v133h768v-420h-143v287h-625z" />
    <glyph glyph-name="uni00AD" unicode="&#xad;" horiz-adv-x="808" 
d="M92 543v133h625v-133h-625z" />
    <glyph glyph-name="registered" unicode="&#xae;" horiz-adv-x="1802" 
d="M154 717q0 151 58.5 287.5t158 235t238 156.5t292.5 58t293 -58t238.5 -156.5t158 -235t58.5 -287.5t-58.5 -287.5t-158 -235t-238.5 -156.5t-293 -58t-292.5 58t-238 156.5t-158 235t-58.5 287.5zM287 717q0 -172 80.5 -313t221.5 -221.5t312 -80.5q128 0 242.5 47.5
t196 129t129 196t47.5 242.5q0 171 -80.5 312t-221.5 221.5t-313 80.5q-171 0 -312 -80.5t-221.5 -221.5t-80.5 -312zM645 338v758h289q114 0 184 -67t70 -169q0 -92 -72 -160q-44 -35 -72 -45l185 -317h-131l-156 287h-174v-287h-123zM768 748h174q133 0 133 112
q0 113 -133 113h-174v-225z" />
    <glyph glyph-name="overscore" unicode="&#xaf;" horiz-adv-x="716" 
d="M61 1300v113h594v-113h-594z" />
    <glyph glyph-name="degree" unicode="&#xb0;" horiz-adv-x="737" 
d="M82 1178q0 116 82.5 196t204.5 80t204 -80t82 -196t-82 -196.5t-204 -80.5t-204.5 80.5t-82.5 196.5zM205 1178q0 -69 47.5 -116.5t116.5 -47.5t116 47.5t47 116.5t-47 116t-116 47t-116.5 -47t-47.5 -116z" />
    <glyph glyph-name="plusminus" unicode="&#xb1;" horiz-adv-x="1054" 
d="M461 317v390h-379v133h379v389h133v-389h379v-133h-379v-390h-133zM92 51v133h871v-133h-871z" />
    <glyph glyph-name="uni00B2" unicode="&#xb2;" horiz-adv-x="614" 
d="M195 1024h348v-102h-482q0 62 20.5 116t53 91.5t71.5 70.5t78.5 60.5t72 53.5t53 56.5t20.5 63.5q0 48 -34.5 80t-88.5 32q-68 0 -110 -57q-20 -23 -33 -55l-92 30q15 51 45 92q69 93 190 93q107 0 171.5 -60.5t64.5 -154.5q0 -46 -15 -84.5t-41 -66.5t-57.5 -52.5
t-66.5 -47.5t-66.5 -45t-59 -51.5t-42.5 -62.5z" />
    <glyph glyph-name="uni00B3" unicode="&#xb3;" horiz-adv-x="634" 
d="M51 1034l72 82q22 -29 51 -51q62 -51 143 -51q134 0 134 112q0 55 -38 89t-106 34h-82v103h82q54 0 83.5 27t29.5 75q0 40 -32 66t-91 26q-64 0 -113 -45q-29 -29 -39 -45l-73 76q23 34 57 57q75 60 168 60q105 0 170 -57t65 -138q0 -83 -40 -123q-18 -21 -41 -31
q28 -8 55 -32q57 -50 57 -142q0 -95 -66 -155t-180 -60q-116 0 -202 62q-37 27 -64 61z" />
    <glyph glyph-name="acute" unicode="&#xb4;" horiz-adv-x="430" 
d="M61 1157l154 277h154l-195 -277h-113z" />
    <glyph glyph-name="uni00B5" unicode="&#xb5;" horiz-adv-x="1187" 
d="M154 -430v1413h143v-584q0 -129 74 -207.5t192 -78.5q125 0 206 86.5t81 230.5v553h143v-778q0 -38 27 -65t65 -27q17 0 37 4l15 6v-133l-17 -6q-20 -4 -45 -4q-123 0 -184 81q-26 40 -31 82q-26 -41 -74 -82q-97 -81 -233 -81q-118 0 -193 40q-27 13 -63 41v-491h-143z
" />
    <glyph glyph-name="paragraph" unicode="&#xb6;" horiz-adv-x="1105" 
d="M430 -205v963q-140 0 -239 99t-99 239t99 239t239 99h481v-1639h-133v1505h-215v-1505h-133z" />
    <glyph glyph-name="middot" unicode="&#xb7;" horiz-adv-x="430" 
d="M113 512q0 47 27.5 74.5t74.5 27.5t74.5 -27.5t27.5 -74.5t-27.5 -74.5t-74.5 -27.5t-74.5 27.5t-27.5 74.5z" />
    <glyph glyph-name="cedilla" unicode="&#xb8;" horiz-adv-x="491" 
d="M61 -354l41 67q19 -19 35 -26q41 -25 99 -25q45 0 73.5 25t28.5 57q0 31 -22.5 51.5t-59.5 20.5q-27 0 -45 -11q-14 -9 -16 -10l-52 51l93 195h92l-72 -154h10q77 0 120.5 -40t43.5 -107q0 -68 -52.5 -114t-141.5 -46q-61 0 -125 33q-33 18 -50 33z" />
    <glyph glyph-name="uni00B9" unicode="&#xb9;" horiz-adv-x="450" 
d="M195 922v542h-134v82q78 0 123 45q23 23 31 47h92v-716h-112z" />
    <glyph glyph-name="ordmasculine" unicode="&#xba;" horiz-adv-x="737" 
d="M369 819q-132 0 -220 90t-88 228t88 227.5t220 89.5t219.5 -89.5t87.5 -227.5t-88 -228t-219 -90zM369 922q87 0 140.5 58t53.5 157t-53.5 157t-140.5 58t-141 -58t-54 -157t54 -157t141 -58z" />
    <glyph glyph-name="guillemotright" unicode="&#xbb;" horiz-adv-x="952" 
d="M92 154l236 338l-236 337h154l235 -337l-235 -338h-154zM471 154l236 338l-236 337h154l235 -337l-235 -338h-154z" />
    <glyph glyph-name="onequarter" unicode="&#xbc;" horiz-adv-x="1341" 
d="M215 717v543h-133v81q78 0 123 45q23 22 31 48h92v-717h-113zM133 0l881 1434h133l-881 -1434h-133zM748 164v102l317 451h133v-451h82v-102h-82v-164h-113v164h-337zM860 266h225v318z" />
    <glyph glyph-name="onehalf" unicode="&#xbd;" horiz-adv-x="1413" 
d="M215 717v543h-133v81q78 0 123 45q23 22 31 48h92v-717h-113zM133 0l881 1434h133l-881 -1434h-133zM983 102h348v-102h-481q0 62 20.5 116t53 91.5t71.5 70.5t78.5 60.5t72 53.5t53 56.5t20.5 63.5q0 48 -35 80.5t-88 32.5q-68 0 -111 -58q-20 -23 -33 -55l-92 31
q15 51 45 92q69 92 191 92q107 0 171 -60.5t64 -154.5q0 -46 -15 -84.5t-41 -66.5t-57.5 -52.5t-66.5 -47.5t-66.5 -45t-59 -51.5t-42.5 -62.5z" />
    <glyph glyph-name="threequarters" unicode="&#xbe;" horiz-adv-x="1474" 
d="M61 829l72 82q22 -29 51 -51q62 -51 144 -51q133 0 133 113q0 55 -38 88.5t-106 33.5h-81v103h81q54 0 83.5 27t29.5 75q0 40 -32 66t-91 26q-63 0 -112 -45q-29 -29 -39 -45l-74 76q23 34 57 57q75 60 168 60q105 0 170.5 -57t65.5 -138q0 -82 -41 -123q-17 -20 -41 -30
q26 -8 55 -33q57 -50 57 -141q0 -95 -65.5 -155t-179.5 -60q-118 0 -203 61q-37 27 -64 61zM266 0l881 1434h133l-881 -1434h-133zM881 164v102l317 451h133v-451h82v-102h-82v-164h-112v164h-338zM993 266h226v318z" />
    <glyph glyph-name="questiondown" unicode="&#xbf;" horiz-adv-x="952" 
d="M430 901q0 47 27.5 75t74.5 28t75 -28t28 -75t-28 -74.5t-75 -27.5t-74.5 27.5t-27.5 74.5zM819 -82l133 -41q-28 -96 -82 -164q-126 -164 -358 -164q-130 0 -234.5 55t-160.5 143.5t-56 191.5q0 79 22 140.5t57.5 101t78 73t85 64.5t78 66.5t57.5 88.5t22 121v41h143
l4 -29q6 -48 6 -63q0 -66 -22 -121.5t-57 -94t-77.5 -73t-85.5 -66.5t-78 -66t-57 -81t-22 -102q0 -104 81 -175t216 -71q170 0 254 112q39 51 53 113z" />
    <glyph glyph-name="Agrave" unicode="&#xc0;" horiz-adv-x="1413" 
d="M41 0l594 1434h143l594 -1434h-164l-164 399h-675l-164 -399h-164zM430 543h553l-276 676zM645 1628l-194 277h153l154 -277h-113z" />
    <glyph glyph-name="Aacute" unicode="&#xc1;" horiz-adv-x="1413" 
d="M41 0l594 1434h143l594 -1434h-164l-164 399h-675l-164 -399h-164zM430 543h553l-276 676zM655 1628l154 277h154l-195 -277h-113z" />
    <glyph glyph-name="Acircumflex" unicode="&#xc2;" horiz-adv-x="1413" 
d="M41 0l594 1434h143l594 -1434h-164l-164 399h-675l-164 -399h-164zM430 543h553l-276 676zM410 1628l225 277h143l226 -277h-134l-163 195l-164 -195h-133z" />
    <glyph glyph-name="Atilde" unicode="&#xc3;" horiz-adv-x="1413" 
d="M41 0l594 1434h143l594 -1434h-164l-164 399h-675l-164 -399h-164zM430 543h553l-276 676zM492 1628h-103q0 119 51.5 182.5t132.5 63.5q48 0 89 -21t64 -45.5t53.5 -45.5t60.5 -21q34 0 58 34t24 99h102q0 -119 -51 -182.5t-133 -63.5q-48 0 -89 21t-64 45.5t-53.5 45.5
t-60.5 21q-34 0 -57.5 -34t-23.5 -99z" />
    <glyph glyph-name="Adieresis" unicode="&#xc4;" horiz-adv-x="1413" 
d="M41 0l594 1434h143l594 -1434h-164l-164 399h-675l-164 -399h-164zM430 543h553l-276 676zM420 1751q0 38 27 65t65 27t65 -27t27 -65t-27 -65t-65 -27t-65 27t-27 65zM809 1751q0 38 27 65t65 27t65 -27t27 -65t-27 -65t-65 -27t-65 27t-27 65z" />
    <glyph glyph-name="Aring" unicode="&#xc5;" horiz-adv-x="1413" 
d="M41 0l594 1434h143l594 -1434h-164l-164 399h-675l-164 -399h-164zM430 543h553l-276 676zM512 1761q0 77 57.5 131t137.5 54t137 -54t57 -131t-57 -130.5t-137 -53.5t-137.5 53.5t-57.5 130.5zM707 1669q38 0 65 27t27 65t-27 65t-65 27t-65.5 -27t-27.5 -65t27.5 -65
t65.5 -27z" />
    <glyph glyph-name="AE" unicode="&#xc6;" horiz-adv-x="1945" 
d="M-61 0l798 1434h1096v-144h-737v-471h573v-143h-573v-533h757v-143h-911v420h-604l-236 -420h-163zM410 563h532v727h-123z" />
    <glyph glyph-name="Ccedilla" unicode="&#xc7;" horiz-adv-x="1536" 
d="M645 -354l41 67q19 -19 35 -26q41 -25 98 -25q45 0 74 25t29 57q0 31 -22.5 51.5t-59.5 20.5q-27 0 -45 -11q-13 -9 -17 -10l-51 51l64 138q-186 16 -339 117t-241 263.5t-88 352.5q0 151 58 287.5t156.5 235t235 156.5t287.5 58q241 0 438 -149q86 -67 146 -148
l-103 -92q-52 74 -118 123q-156 123 -363 123q-162 0 -296 -77.5t-211 -214t-77 -302.5t77 -302.5t211 -214t296 -77.5q209 0 369 123q71 52 123 123l102 -93q-58 -75 -145 -143q-195 -144 -426 -151l-43 -95h10q77 0 120.5 -40t43.5 -107q0 -68 -52.5 -114t-142.5 -46
q-61 0 -125 33q-30 17 -49 33z" />
    <glyph glyph-name="Egrave" unicode="&#xc8;" horiz-adv-x="1310" 
d="M215 0v1434h983v-144h-829v-471h665v-143h-665v-533h850v-143h-1004zM686 1628l-194 277h153l154 -277h-113z" />
    <glyph glyph-name="Eacute" unicode="&#xc9;" horiz-adv-x="1310" 
d="M215 0v1434h983v-144h-829v-471h665v-143h-665v-533h850v-143h-1004zM645 1628l154 277h153l-194 -277h-113z" />
    <glyph glyph-name="Ecircumflex" unicode="&#xca;" horiz-adv-x="1310" 
d="M215 0v1434h983v-144h-829v-471h665v-143h-665v-533h850v-143h-1004zM420 1628l225 277h143l226 -277h-133l-164 195l-164 -195h-133z" />
    <glyph glyph-name="Edieresis" unicode="&#xcb;" horiz-adv-x="1310" 
d="M215 0v1434h983v-144h-829v-471h665v-143h-665v-533h850v-143h-1004zM430 1751q0 38 27 65t65 27t65 -27t27 -65t-27 -65t-65 -27t-65 27t-27 65zM819 1751q0 38 27 65t65 27t65.5 -27t27.5 -65t-27.5 -65t-65.5 -27t-65 27t-27 65z" />
    <glyph glyph-name="Igrave" unicode="&#xcc;" horiz-adv-x="583" 
d="M215 0v1434h154v-1434h-154zM236 1628l-195 277h154l153 -277h-112z" />
    <glyph glyph-name="Iacute" unicode="&#xcd;" horiz-adv-x="583" 
d="M215 0v1434h154v-1434h-154zM246 1628l153 277h154l-195 -277h-112z" />
    <glyph glyph-name="Icircumflex" unicode="&#xce;" horiz-adv-x="583" 
d="M215 0v1434h154v-1434h-154zM0 1628l225 277h144l225 -277h-133l-164 195l-164 -195h-133z" />
    <glyph glyph-name="Idieresis" unicode="&#xcf;" horiz-adv-x="583" 
d="M215 0v1434h154v-1434h-154zM10 1751q0 38 27 65t65 27t65.5 -27t27.5 -65t-27.5 -65t-65.5 -27t-65 27t-27 65zM399 1751q0 38 27.5 65t65.5 27t65 -27t27 -65t-27 -65t-65 -27t-65.5 27t-27.5 65z" />
    <glyph glyph-name="Eth" unicode="&#xd0;" horiz-adv-x="1566" 
d="M246 0v645h-195v143h195v646h450q154 0 293.5 -58t238.5 -155t157.5 -229t58.5 -275t-58.5 -275t-157.5 -229t-238.5 -155t-293.5 -58h-450zM399 143h297q166 0 302.5 77t214 208.5t77.5 288.5t-77.5 288t-214 208t-302.5 77h-297v-502h349v-143h-349v-502z" />
    <glyph glyph-name="Ntilde" unicode="&#xd1;" horiz-adv-x="1597" 
d="M215 0v1434h133l881 -1158v1158h153v-1434h-133l-880 1157v-1157h-154zM584 1628h-103q0 119 51.5 182.5t133.5 63.5q48 0 88.5 -21t63.5 -45.5t53.5 -45.5t60.5 -21q34 0 58 34t24 99h102q0 -119 -51 -182.5t-133 -63.5q-48 0 -88.5 21t-63.5 45.5t-53.5 45.5t-60.5 21
q-34 0 -58 -34t-24 -99z" />
    <glyph glyph-name="Ograve" unicode="&#xd2;" horiz-adv-x="1720" 
d="M123 717q0 151 58 287.5t156.5 235t235 156.5t287.5 58t287.5 -58t235 -156.5t156.5 -235t58 -287.5t-58 -287.5t-156.5 -235t-235 -156.5t-287.5 -58t-287.5 58t-235 156.5t-156.5 235t-58 287.5zM860 123q162 0 296 77.5t211 214t77 302.5t-77 302.5t-211 214
t-296 77.5t-296 -77.5t-211 -214t-77 -302.5t77 -302.5t211 -214t296 -77.5zM799 1628l-195 277h154l153 -277h-112z" />
    <glyph glyph-name="Oacute" unicode="&#xd3;" horiz-adv-x="1720" 
d="M123 717q0 151 58 287.5t156.5 235t235 156.5t287.5 58t287.5 -58t235 -156.5t156.5 -235t58 -287.5t-58 -287.5t-156.5 -235t-235 -156.5t-287.5 -58t-287.5 58t-235 156.5t-156.5 235t-58 287.5zM860 123q162 0 296 77.5t211 214t77 302.5t-77 302.5t-211 214
t-296 77.5t-296 -77.5t-211 -214t-77 -302.5t77 -302.5t211 -214t296 -77.5zM809 1628l154 277h153l-194 -277h-113z" />
    <glyph glyph-name="Ocircumflex" unicode="&#xd4;" horiz-adv-x="1720" 
d="M123 717q0 151 58 287.5t156.5 235t235 156.5t287.5 58t287.5 -58t235 -156.5t156.5 -235t58 -287.5t-58 -287.5t-156.5 -235t-235 -156.5t-287.5 -58t-287.5 58t-235 156.5t-156.5 235t-58 287.5zM860 123q162 0 296 77.5t211 214t77 302.5t-77 302.5t-211 214
t-296 77.5t-296 -77.5t-211 -214t-77 -302.5t77 -302.5t211 -214t296 -77.5zM563 1628l225 277h144l225 -277h-133l-164 195l-164 -195h-133z" />
    <glyph glyph-name="Otilde" unicode="&#xd5;" horiz-adv-x="1720" 
d="M123 717q0 151 58 287.5t156.5 235t235 156.5t287.5 58t287.5 -58t235 -156.5t156.5 -235t58 -287.5t-58 -287.5t-156.5 -235t-235 -156.5t-287.5 -58t-287.5 58t-235 156.5t-156.5 235t-58 287.5zM860 123q162 0 296 77.5t211 214t77 302.5t-77 302.5t-211 214
t-296 77.5t-296 -77.5t-211 -214t-77 -302.5t77 -302.5t211 -214t296 -77.5zM645 1628h-102q0 119 51.5 182.5t132.5 63.5q48 0 88.5 -21t63.5 -45.5t53.5 -45.5t60.5 -21q34 0 58 34t24 99h103q0 -119 -51.5 -182.5t-133.5 -63.5q-48 0 -88.5 21t-63.5 45.5t-53.5 45.5
t-60.5 21q-34 0 -58 -34t-24 -99z" />
    <glyph glyph-name="Odieresis" unicode="&#xd6;" horiz-adv-x="1720" 
d="M123 717q0 151 58 287.5t156.5 235t235 156.5t287.5 58t287.5 -58t235 -156.5t156.5 -235t58 -287.5t-58 -287.5t-156.5 -235t-235 -156.5t-287.5 -58t-287.5 58t-235 156.5t-156.5 235t-58 287.5zM860 123q162 0 296 77.5t211 214t77 302.5t-77 302.5t-211 214
t-296 77.5t-296 -77.5t-211 -214t-77 -302.5t77 -302.5t211 -214t296 -77.5zM573 1751q0 38 27.5 65t65.5 27t65 -27t27 -65t-27 -65t-65 -27t-65.5 27t-27.5 65zM963 1751q0 38 27 65t65 27t65 -27t27 -65t-27 -65t-65 -27t-65 27t-27 65z" />
    <glyph glyph-name="multiply" unicode="&#xd7;" horiz-adv-x="1003" 
d="M123 348l287 287l-287 287l92 92l287 -287l286 287l93 -92l-287 -287l287 -287l-93 -92l-286 287l-287 -287z" />
    <glyph glyph-name="Oslash" unicode="&#xd8;" horiz-adv-x="1720" 
d="M102 61l185 185q-40 47 -82 127q-82 164 -82 344q0 151 58 287.5t156.5 235t235 156.5t287.5 58q178 0 342 -82q78 -42 129 -82l185 185l102 -103l-184 -184q40 -51 82 -129q81 -162 81 -342q0 -151 -58 -287.5t-156.5 -235t-235 -156.5t-287.5 -58q-182 0 -344 81
q-80 42 -127 82l-184 -184zM389 348l840 840q-46 34 -101 61q-126 62 -268 62q-162 0 -296 -77.5t-211 -214t-77 -302.5q0 -154 56 -268q25 -58 57 -101zM1331 1085l-839 -839q52 -39 100 -62q124 -61 268 -61q162 0 296 77.5t211 214t77 302.5q0 150 -58 268
q-19 45 -55 100z" />
    <glyph glyph-name="Ugrave" unicode="&#xd9;" horiz-adv-x="1556" 
d="M195 563v871h153v-871q0 -191 122.5 -315.5t307.5 -124.5t307.5 124.5t122.5 315.5v871h154v-871q0 -161 -77 -295t-211 -211t-296 -77t-295.5 77t-210.5 210.5t-77 295.5zM727 1628l-195 277h154l154 -277h-113z" />
    <glyph glyph-name="Uacute" unicode="&#xda;" horiz-adv-x="1556" 
d="M195 563v871h153v-871q0 -191 122.5 -315.5t307.5 -124.5t307.5 124.5t122.5 315.5v871h154v-871q0 -161 -77 -295t-211 -211t-296 -77t-295.5 77t-210.5 210.5t-77 295.5zM717 1628l153 277h154l-195 -277h-112z" />
    <glyph glyph-name="Ucircumflex" unicode="&#xdb;" horiz-adv-x="1556" 
d="M195 563v871h153v-871q0 -191 122.5 -315.5t307.5 -124.5t307.5 124.5t122.5 315.5v871h154v-871q0 -161 -77 -295t-211 -211t-296 -77t-295.5 77t-210.5 210.5t-77 295.5zM481 1628l226 277h143l225 -277h-133l-164 195l-164 -195h-133z" />
    <glyph glyph-name="Udieresis" unicode="&#xdc;" horiz-adv-x="1556" 
d="M195 563v871h153v-871q0 -191 122.5 -315.5t307.5 -124.5t307.5 124.5t122.5 315.5v871h154v-871q0 -161 -77 -295t-211 -211t-296 -77t-295.5 77t-210.5 210.5t-77 295.5zM492 1751q0 38 27 65t65 27t65 -27t27 -65t-27 -65t-65 -27t-65 27t-27 65zM881 1751q0 38 27 65
t65 27t65 -27t27 -65t-27 -65t-65 -27t-65 27t-27 65z" />
    <glyph glyph-name="Yacute" unicode="&#xdd;" horiz-adv-x="1300" 
d="M573 0v502l-532 932h174l430 -768h10l430 768h175l-533 -932v-502h-154zM594 1628l154 277h153l-194 -277h-113z" />
    <glyph glyph-name="Thorn" unicode="&#xde;" horiz-adv-x="1454" 
d="M215 0v1434h154v-287h501q219 0 340 -111t121 -299t-121 -298.5t-340 -110.5h-501v-328h-154zM369 471h501q151 0 229.5 70.5t78.5 195.5q0 126 -78.5 196.5t-229.5 70.5h-501v-533z" />
    <glyph glyph-name="germandbls" unicode="&#xdf;" horiz-adv-x="1198" 
d="M174 0v1065q0 163 117.5 276t292.5 113q174 0 291.5 -111.5t117.5 -267.5q0 -123 -88 -219q-39 -43 -86 -68q74 -26 137 -77q140 -111 140 -291q0 -178 -125 -299t-316 -121h-92v143h92q129 0 213 80t84 197t-84 196.5t-213 79.5h-92v144h21q107 0 186.5 69t79.5 166
q0 101 -76 173.5t-190 72.5q-115 0 -191 -74t-76 -182v-1065h-143z" />
    <glyph glyph-name="agrave" unicode="&#xe0;" horiz-adv-x="1064" 
d="M758 0v133q-28 -41 -78 -78q-106 -75 -240 -75q-149 0 -248.5 87t-99.5 199q0 123 73.5 198.5t213.5 98.5l379 62q0 109 -68.5 177t-177.5 68q-108 0 -203 -71q-43 -36 -73 -72l-93 92q37 49 97 92q125 93 272 93q168 0 278.5 -108.5t110.5 -270.5v-625h-143zM758 440v62
l-338 -62q-184 -34 -184 -174q0 -65 54 -109t150 -44q140 0 229 90t89 237zM492 1157l-195 277h154l153 -277h-112z" />
    <glyph glyph-name="aacute" unicode="&#xe1;" horiz-adv-x="1064" 
d="M758 0v133q-28 -41 -78 -78q-106 -75 -240 -75q-149 0 -248.5 87t-99.5 199q0 123 73.5 198.5t213.5 98.5l379 62q0 109 -68.5 177t-177.5 68q-108 0 -203 -71q-43 -36 -73 -72l-93 92q37 49 97 92q125 93 272 93q168 0 278.5 -108.5t110.5 -270.5v-625h-143zM758 440v62
l-338 -62q-184 -34 -184 -174q0 -65 54 -109t150 -44q140 0 229 90t89 237zM481 1157l154 277h153l-194 -277h-113z" />
    <glyph glyph-name="acircumflex" unicode="&#xe2;" horiz-adv-x="1064" 
d="M758 0v133q-28 -41 -78 -78q-106 -75 -240 -75q-149 0 -248.5 87t-99.5 199q0 123 73.5 198.5t213.5 98.5l379 62q0 109 -68.5 177t-177.5 68q-108 0 -203 -71q-43 -36 -73 -72l-93 92q37 49 97 92q125 93 272 93q168 0 278.5 -108.5t110.5 -270.5v-625h-143zM758 440v62
l-338 -62q-184 -34 -184 -174q0 -65 54 -109t150 -44q140 0 229 90t89 237zM246 1157l225 277h143l226 -277h-133l-164 195l-164 -195h-133z" />
    <glyph glyph-name="atilde" unicode="&#xe3;" horiz-adv-x="1064" 
d="M758 0v133q-28 -41 -78 -78q-106 -75 -240 -75q-149 0 -248.5 87t-99.5 199q0 123 73.5 198.5t213.5 98.5l379 62q0 109 -68.5 177t-177.5 68q-108 0 -203 -71q-43 -36 -73 -72l-93 92q37 49 97 92q125 93 272 93q168 0 278.5 -108.5t110.5 -270.5v-625h-143zM758 440v62
l-338 -62q-184 -34 -184 -174q0 -65 54 -109t150 -44q140 0 229 90t89 237zM328 1157h-103q0 119 51.5 182.5t133.5 63.5q48 0 88.5 -21t63.5 -45.5t53.5 -45.5t60.5 -21q34 0 58 34t24 99h102q0 -119 -51 -182.5t-133 -63.5q-48 0 -88.5 21t-63.5 45.5t-53.5 45.5t-60.5 21
q-34 0 -58 -34t-24 -99z" />
    <glyph glyph-name="adieresis" unicode="&#xe4;" horiz-adv-x="1064" 
d="M758 0v133q-28 -41 -78 -78q-106 -75 -240 -75q-149 0 -248.5 87t-99.5 199q0 123 73.5 198.5t213.5 98.5l379 62q0 109 -68.5 177t-177.5 68q-108 0 -203 -71q-43 -36 -73 -72l-93 92q37 49 97 92q125 93 272 93q168 0 278.5 -108.5t110.5 -270.5v-625h-143zM758 440v62
l-338 -62q-184 -34 -184 -174q0 -65 54 -109t150 -44q140 0 229 90t89 237zM256 1290q0 38 27 65t65 27t65 -27t27 -65t-27 -65t-65 -27t-65 27t-27 65zM645 1290q0 38 27 65t65 27t65 -27t27 -65t-27 -65t-65 -27t-65 27t-27 65z" />
    <glyph glyph-name="aring" unicode="&#xe5;" horiz-adv-x="1064" 
d="M758 0v133q-28 -41 -78 -78q-106 -75 -240 -75q-149 0 -248.5 87t-99.5 199q0 123 73.5 198.5t213.5 98.5l379 62q0 109 -68.5 177t-177.5 68q-108 0 -203 -71q-43 -36 -73 -72l-93 92q37 49 97 92q125 93 272 93q168 0 278.5 -108.5t110.5 -270.5v-625h-143zM758 440v62
l-338 -62q-184 -34 -184 -174q0 -65 54 -109t150 -44q140 0 229 90t89 237zM348 1311q0 77 57.5 130.5t137.5 53.5t137 -53.5t57 -130.5t-57 -131t-137 -54t-137.5 54t-57.5 131zM543 1219q38 0 65 27t27 65t-27 65t-65 27t-65 -27t-27 -65t27 -65t65 -27z" />
    <glyph glyph-name="ae" unicode="&#xe6;" horiz-adv-x="1781" 
d="M256 727l-92 92q36 50 90 92q117 93 266 93q151 0 262 -103q53 -53 78 -102q36 51 96 102q127 103 283 103q92 0 174.5 -37t143.5 -102t97 -159.5t36 -203.5q0 -9 -3.5 -24.5t-3.5 -18.5l-4 -19h-768q8 -131 109.5 -229t232.5 -98q128 0 230 82q45 36 78 81l94 -92
q-37 -49 -103 -102q-136 -102 -299 -102q-179 0 -311 122q-62 52 -102 123q-36 -74 -88 -123q-122 -122 -312 -122q-155 0 -251.5 83.5t-96.5 202.5q0 125 97 216t241 91h338v31q0 118 -68.5 192t-177.5 74q-103 0 -198 -71q-46 -39 -68 -72zM911 573h645
q-24 132 -110 214.5t-207 82.5t-215.5 -89t-112.5 -208zM768 440h-338q-91 0 -142.5 -47.5t-51.5 -126.5q0 -65 54 -109t150 -44q144 0 236 96t92 231z" />
    <glyph glyph-name="ccedilla" unicode="&#xe7;" horiz-adv-x="1054" 
d="M379 -354l41 67q19 -19 35 -26q41 -25 98 -25q45 0 73.5 25t28.5 57q0 31 -22.5 51.5t-59.5 20.5q-27 0 -45 -11q-14 -9 -16 -10l-51 51l63 138q-182 20 -307 164.5t-125 343.5q0 105 39.5 200.5t106 163.5t157 108t189.5 40q158 0 295 -99q56 -41 104 -96l-102 -102
q-32 43 -76 81q-98 82 -221 82q-140 0 -244 -109.5t-104 -268.5t104 -269t244 -110q117 0 227 82q50 40 80 81l102 -92q-47 -56 -100 -96q-129 -96 -277 -106l-43 -95h11q77 0 120.5 -40t43.5 -107q0 -68 -52.5 -114t-142.5 -46q-61 0 -125 33q-30 17 -49 33z" />
    <glyph glyph-name="egrave" unicode="&#xe8;" horiz-adv-x="1136" 
d="M901 276l92 -92q-40 -53 -104 -102q-144 -102 -305 -102q-99 0 -189.5 40t-157 108t-106 163.5t-39.5 200.5q0 140 66.5 258.5t177 186t237.5 67.5q202 0 336.5 -139t134.5 -353q0 -11 -6 -53l-4 -21l-798 2q8 -132 109 -229.5t239 -97.5q125 0 235 82q55 44 82 81z
M236 563h665q-18 133 -108.5 220t-219.5 87t-224 -90t-113 -217zM512 1157l-195 277h154l154 -277h-113z" />
    <glyph glyph-name="eacute" unicode="&#xe9;" horiz-adv-x="1136" 
d="M901 276l92 -92q-40 -53 -104 -102q-144 -102 -305 -102q-99 0 -189.5 40t-157 108t-106 163.5t-39.5 200.5q0 140 66.5 258.5t177 186t237.5 67.5q202 0 336.5 -139t134.5 -353q0 -11 -6 -53l-4 -21l-798 2q8 -132 109 -229.5t239 -97.5q125 0 235 82q55 44 82 81z
M236 563h665q-18 133 -108.5 220t-219.5 87t-224 -90t-113 -217zM522 1157l154 277h153l-194 -277h-113z" />
    <glyph glyph-name="ecircumflex" unicode="&#xea;" horiz-adv-x="1136" 
d="M901 276l92 -92q-40 -53 -104 -102q-144 -102 -305 -102q-99 0 -189.5 40t-157 108t-106 163.5t-39.5 200.5q0 140 66.5 258.5t177 186t237.5 67.5q202 0 336.5 -139t134.5 -353q0 -11 -6 -53l-4 -21l-798 2q8 -132 109 -229.5t239 -97.5q125 0 235 82q55 44 82 81z
M236 563h665q-18 133 -108.5 220t-219.5 87t-224 -90t-113 -217zM276 1157l226 277h143l225 -277h-133l-164 195l-163 -195h-134z" />
    <glyph glyph-name="edieresis" unicode="&#xeb;" horiz-adv-x="1136" 
d="M901 276l92 -92q-40 -53 -104 -102q-144 -102 -305 -102q-99 0 -189.5 40t-157 108t-106 163.5t-39.5 200.5q0 140 66.5 258.5t177 186t237.5 67.5q202 0 336.5 -139t134.5 -353q0 -11 -6 -53l-4 -21l-798 2q8 -132 109 -229.5t239 -97.5q125 0 235 82q55 44 82 81z
M236 563h665q-18 133 -108.5 220t-219.5 87t-224 -90t-113 -217zM287 1290q0 38 27 65t65 27t65 -27t27 -65t-27 -65t-65 -27t-65 27t-27 65zM676 1290q0 38 27 65t65 27t65 -27t27 -65t-27 -65t-65 -27t-65 27t-27 65z" />
    <glyph glyph-name="igrave" unicode="&#xec;" horiz-adv-x="471" 
d="M164 0v983h143v-983h-143zM174 1157l-194 277h153l154 -277h-113z" />
    <glyph glyph-name="iacute" unicode="&#xed;" horiz-adv-x="471" 
d="M164 0v983h143v-983h-143zM174 1157l154 277h153l-194 -277h-113z" />
    <glyph glyph-name="icircumflex" unicode="&#xee;" horiz-adv-x="471" 
d="M164 0v983h143v-983h-143zM-61 1157l225 277h143l225 -277h-133l-163 195l-164 -195h-133z" />
    <glyph glyph-name="idieresis" unicode="&#xef;" horiz-adv-x="471" 
d="M164 0v983h143v-983h-143zM-51 1290q0 38 27 65t65 27t65 -27t27 -65t-27 -65t-65 -27t-65 27t-27 65zM338 1290q0 38 27 65t65 27t65 -27t27 -65t-27 -65t-65 -27t-65 27t-27 65z" />
    <glyph glyph-name="eth" unicode="&#xf0;" horiz-adv-x="1218" 
d="M307 1239l215 123q-62 54 -69 59q-84 64 -156 105l133 61q72 -47 154 -112l61 -52l205 113l72 -72l-205 -112q102 -102 184 -230q184 -294 184 -620q0 -223 -144.5 -372.5t-356.5 -149.5q-207 0 -349.5 142t-142.5 349t142.5 349.5t349.5 142.5q111 0 213 -48
q42 -20 73 -45h11q-48 135 -174 295q-42 54 -113 125l-215 -123zM584 113q148 0 248 102.5t100 255.5t-100 255.5t-248 102.5t-248 -102.5t-100 -255.5t100 -255.5t248 -102.5z" />
    <glyph glyph-name="ntilde" unicode="&#xf1;" horiz-adv-x="1187" 
d="M164 0v983h143v-143q26 40 78 82q110 82 240 82q178 0 288.5 -114.5t110.5 -305.5v-584h-143v584q0 129 -74.5 207.5t-192.5 78.5q-132 0 -219.5 -90.5t-87.5 -236.5v-543h-143zM379 1157h-103q0 119 51.5 182.5t133.5 63.5q48 0 88.5 -21t63.5 -45.5t53.5 -45.5
t60.5 -21q34 0 58 34t24 99h102q0 -119 -51.5 -182.5t-132.5 -63.5q-48 0 -88.5 21t-63.5 45.5t-53.5 45.5t-60.5 21q-34 0 -58 -34t-24 -99z" />
    <glyph glyph-name="ograve" unicode="&#xf2;" horiz-adv-x="1187" 
d="M594 -20q-136 0 -251.5 67.5t-183 185.5t-67.5 259t67.5 259t183 185.5t251.5 67.5t251.5 -67.5t183 -185.5t67.5 -259t-67.5 -259t-183 -185.5t-251.5 -67.5zM594 113q148 0 253 109.5t105 269.5t-105 269t-253 109t-253 -109t-105 -269q0 -159 105.5 -269t252.5 -110z
M532 1157l-194 277h154l153 -277h-113z" />
    <glyph glyph-name="oacute" unicode="&#xf3;" horiz-adv-x="1187" 
d="M594 -20q-136 0 -251.5 67.5t-183 185.5t-67.5 259t67.5 259t183 185.5t251.5 67.5t251.5 -67.5t183 -185.5t67.5 -259t-67.5 -259t-183 -185.5t-251.5 -67.5zM594 113q148 0 253 109.5t105 269.5t-105 269t-253 109t-253 -109t-105 -269q0 -159 105.5 -269t252.5 -110z
M543 1157l153 277h154l-195 -277h-112z" />
    <glyph glyph-name="ocircumflex" unicode="&#xf4;" horiz-adv-x="1187" 
d="M594 -20q-136 0 -251.5 67.5t-183 185.5t-67.5 259t67.5 259t183 185.5t251.5 67.5t251.5 -67.5t183 -185.5t67.5 -259t-67.5 -259t-183 -185.5t-251.5 -67.5zM594 113q148 0 253 109.5t105 269.5t-105 269t-253 109t-253 -109t-105 -269q0 -159 105.5 -269t252.5 -110z
M297 1157l225 277h144l225 -277h-133l-164 195l-164 -195h-133z" />
    <glyph glyph-name="otilde" unicode="&#xf5;" horiz-adv-x="1187" 
d="M594 -20q-136 0 -251.5 67.5t-183 185.5t-67.5 259t67.5 259t183 185.5t251.5 67.5t251.5 -67.5t183 -185.5t67.5 -259t-67.5 -259t-183 -185.5t-251.5 -67.5zM594 113q148 0 253 109.5t105 269.5t-105 269t-253 109t-253 -109t-105 -269q0 -159 105.5 -269t252.5 -110z
M379 1157h-103q0 119 51.5 182.5t133.5 63.5q48 0 88.5 -21t63.5 -45.5t53.5 -45.5t60.5 -21q34 0 58 34t24 99h102q0 -119 -51.5 -182.5t-132.5 -63.5q-48 0 -88.5 21t-63.5 45.5t-53.5 45.5t-60.5 21q-34 0 -58 -34t-24 -99z" />
    <glyph glyph-name="odieresis" unicode="&#xf6;" horiz-adv-x="1187" 
d="M594 -20q-136 0 -251.5 67.5t-183 185.5t-67.5 259t67.5 259t183 185.5t251.5 67.5t251.5 -67.5t183 -185.5t67.5 -259t-67.5 -259t-183 -185.5t-251.5 -67.5zM594 113q148 0 253 109.5t105 269.5t-105 269t-253 109t-253 -109t-105 -269q0 -159 105.5 -269t252.5 -110z
M307 1290q0 38 27 65t65 27t65.5 -27t27.5 -65t-27.5 -65t-65.5 -27t-65 27t-27 65zM696 1290q0 38 27 65t65 27t65.5 -27t27.5 -65t-27.5 -65t-65.5 -27t-65 27t-27 65z" />
    <glyph glyph-name="divide" unicode="&#xf7;" horiz-adv-x="1044" 
d="M420 963q0 47 27.5 74.5t74.5 27.5t75 -27.5t28 -74.5t-28 -75t-75 -28t-74.5 28t-27.5 75zM92 532v134h860v-134h-860zM420 236q0 47 27.5 74.5t74.5 27.5t75 -27.5t28 -74.5t-28 -75t-75 -28t-74.5 28t-27.5 75z" />
    <glyph glyph-name="oslash" unicode="&#xf8;" horiz-adv-x="1187" 
d="M72 41l133 133q-32 32 -58 82q-55 98 -55 236q0 141 67.5 259t183 185.5t251.5 67.5q111 0 217 -52q35 -16 80 -51l133 133l92 -92l-133 -133q31 -36 55 -82q58 -103 58 -235q0 -141 -67.5 -259t-183 -185.5t-251.5 -67.5q-121 0 -217 51q-35 16 -80 51l-133 -133z
M297 276l502 523q-36 24 -58 35q-78 36 -147 36q-148 0 -253 -109t-105 -269q0 -85 30 -158q11 -31 31 -58zM891 707l-502 -523q23 -23 55 -37q66 -34 150 -34q148 0 253 109.5t105 269.5q0 73 -30 157q-12 28 -31 58z" />
    <glyph glyph-name="ugrave" unicode="&#xf9;" horiz-adv-x="1198" 
d="M164 410v573h143v-573q0 -129 80 -213t197 -84q126 0 211.5 91t85.5 236v543h143v-983h-143v133q-28 -41 -78 -78q-106 -75 -240 -75q-171 0 -285 120t-114 310zM532 1157l-194 277h154l153 -277h-113z" />
    <glyph glyph-name="uacute" unicode="&#xfa;" horiz-adv-x="1198" 
d="M164 410v573h143v-573q0 -129 80 -213t197 -84q126 0 211.5 91t85.5 236v543h143v-983h-143v133q-28 -41 -78 -78q-106 -75 -240 -75q-171 0 -285 120t-114 310zM543 1157l153 277h154l-195 -277h-112z" />
    <glyph glyph-name="ucircumflex" unicode="&#xfb;" horiz-adv-x="1198" 
d="M164 410v573h143v-573q0 -129 80 -213t197 -84q126 0 211.5 91t85.5 236v543h143v-983h-143v133q-28 -41 -78 -78q-106 -75 -240 -75q-171 0 -285 120t-114 310zM297 1157l225 277h144l225 -277h-133l-164 195l-164 -195h-133z" />
    <glyph glyph-name="udieresis" unicode="&#xfc;" horiz-adv-x="1198" 
d="M164 410v573h143v-573q0 -129 80 -213t197 -84q126 0 211.5 91t85.5 236v543h143v-983h-143v133q-28 -41 -78 -78q-106 -75 -240 -75q-171 0 -285 120t-114 310zM305 1290q0 38 27 65t65 27t65 -27t27 -65t-27 -65t-65 -27t-65 27t-27 65zM694 1290q0 38 27 65t65 27
t65.5 -27t27.5 -65t-27.5 -65t-65.5 -27t-65 27t-27 65z" />
    <glyph glyph-name="yacute" unicode="&#xfd;" horiz-adv-x="1003" 
d="M92 -410v134q22 -9 33 -11q33 -10 70 -10q68 0 111 37t73 117l51 143l-399 983h153l318 -799l317 799h154l-451 -1126q-62 -155 -132 -221t-175 -66q-46 0 -88 10q-16 2 -35 10zM451 1157l153 277h154l-195 -277h-112z" />
    <glyph glyph-name="thorn" unicode="&#xfe;" 
d="M174 -430v1864h143v-594q35 47 84 82q110 82 254 82q202 0 342 -146t140 -366t-140 -366t-342 -146q-145 0 -254 81q-49 35 -84 82v-573h-143zM655 113q142 0 240 107t98 272t-98 271.5t-240 106.5q-133 0 -235.5 -110.5t-102.5 -267.5q0 -158 103 -268.5t235 -110.5z
" />
    <glyph glyph-name="ydieresis" unicode="&#xff;" horiz-adv-x="1003" 
d="M92 -410v134q22 -9 33 -11q33 -10 70 -10q68 0 111 37t73 117l51 143l-399 983h153l318 -799l317 799h154l-451 -1126q-62 -155 -132 -221t-175 -66q-46 0 -88 10q-16 2 -35 10zM215 1290q0 38 27 65t65 27t65 -27t27 -65t-27 -65t-65 -27t-65 27t-27 65zM604 1290
q0 38 27 65t65 27t65 -27t27 -65t-27 -65t-65 -27t-65 27t-27 65z" />
    <glyph glyph-name="Amacron" unicode="&#x100;" horiz-adv-x="1413" 
d="M41 0l594 1434h143l594 -1434h-164l-164 399h-675l-164 -399h-164zM430 543h553l-276 676zM410 1700v112h594v-112h-594z" />
    <glyph glyph-name="amacron" unicode="&#x101;" horiz-adv-x="1064" 
d="M758 0v133q-28 -41 -78 -78q-106 -75 -240 -75q-149 0 -248.5 87t-99.5 199q0 123 73.5 198.5t213.5 98.5l379 62q0 109 -68.5 177t-177.5 68q-108 0 -203 -71q-43 -36 -73 -72l-93 92q37 49 97 92q125 93 272 93q168 0 278.5 -108.5t110.5 -270.5v-625h-143zM758 440v62
l-338 -62q-184 -34 -184 -174q0 -65 54 -109t150 -44q140 0 229 90t89 237zM246 1249v113h594v-113h-594z" />
    <glyph glyph-name="Abreve" unicode="&#x102;" horiz-adv-x="1413" 
d="M41 0l594 1434h143l594 -1434h-164l-164 399h-675l-164 -399h-164zM430 543h553l-276 676zM430 1905h113q0 -85 42.5 -129.5t121.5 -44.5t121 44t42 130h113q0 -123 -76.5 -200t-199.5 -77t-200 77t-77 200z" />
    <glyph glyph-name="abreve" unicode="&#x103;" horiz-adv-x="1064" 
d="M758 0v133q-28 -41 -78 -78q-106 -75 -240 -75q-149 0 -248.5 87t-99.5 199q0 123 73.5 198.5t213.5 98.5l379 62q0 109 -68.5 177t-177.5 68q-108 0 -203 -71q-43 -36 -73 -72l-93 92q37 49 97 92q125 93 272 93q168 0 278.5 -108.5t110.5 -270.5v-625h-143zM758 440v62
l-338 -62q-184 -34 -184 -174q0 -65 54 -109t150 -44q140 0 229 90t89 237zM266 1434h113q0 -85 42.5 -129.5t121.5 -44.5t121.5 44.5t42.5 129.5h112q0 -123 -76.5 -200t-199.5 -77t-200 77t-77 200z" />
    <glyph glyph-name="Aogonek" unicode="&#x104;" horiz-adv-x="1413" 
d="M41 0l594 1434h143l594 -1434h-61q-35 -38 -58 -74q-55 -76 -55 -151q0 -92 102 -92q46 0 84 14l39 16v-102q-7 -3 -22 -9t-19 -8q-44 -14 -94 -14q-92 0 -142 48.5t-50 135.5q0 92 55 168q27 42 57 68l-164 399h-675l-164 -399h-164zM430 543h553l-276 676z" />
    <glyph glyph-name="aogonek" unicode="&#x105;" horiz-adv-x="1064" 
d="M973 -287v-102q-7 -3 -22 -9t-19 -8q-44 -14 -94 -14q-92 0 -142.5 48.5t-50.5 135.5q0 92 55 168q25 40 58 68v133q-28 -41 -78 -78q-106 -75 -240 -75q-149 0 -248.5 87t-99.5 199q0 123 73.5 198.5t213.5 98.5l379 62q0 109 -68.5 177t-177.5 68q-108 0 -203 -71
q-43 -36 -73 -72l-93 92q37 49 97 92q125 93 272 93q168 0 278.5 -108.5t110.5 -270.5v-625h-41q-32 -34 -57 -74q-55 -76 -55 -151q0 -92 102 -92q46 0 84 14zM758 440v62l-338 -62q-184 -34 -184 -174q0 -65 54 -109t150 -44q140 0 229 90t89 237z" />
    <glyph glyph-name="Cacute" unicode="&#x106;" horiz-adv-x="1536" 
d="M1352 369l102 -93q-71 -91 -151 -149q-199 -147 -443 -147q-151 0 -287.5 58t-235 156.5t-156.5 235t-58 287.5t58 287.5t156.5 235t235 156.5t287.5 58q241 0 438 -149q86 -67 146 -148l-103 -92q-52 74 -118 123q-156 123 -363 123q-162 0 -296 -77.5t-211 -214
t-77 -302.5t77 -302.5t211 -214t296 -77.5q209 0 369 123q71 52 123 123zM778 1628l154 277h153l-194 -277h-113z" />
    <glyph glyph-name="cacute" unicode="&#x107;" horiz-adv-x="1054" 
d="M891 276l102 -92q-41 -51 -108 -102q-144 -102 -301 -102q-99 0 -189.5 40t-157 108t-106 163.5t-39.5 200.5t39.5 200.5t106 163.5t157 108t189.5 40q158 0 295 -99q56 -41 104 -96l-102 -102q-32 43 -76 81q-98 82 -221 82q-140 0 -244 -109.5t-104 -268.5t104 -269
t244 -110q117 0 227 82q50 40 80 81zM522 1157l154 277h153l-194 -277h-113z" />
    <glyph glyph-name="Ccircumflex" unicode="&#x108;" horiz-adv-x="1536" 
d="M1352 369l102 -93q-71 -91 -151 -149q-199 -147 -443 -147q-151 0 -287.5 58t-235 156.5t-156.5 235t-58 287.5t58 287.5t156.5 235t235 156.5t287.5 58q241 0 438 -149q86 -67 146 -148l-103 -92q-52 74 -118 123q-156 123 -363 123q-162 0 -296 -77.5t-211 -214
t-77 -302.5t77 -302.5t211 -214t296 -77.5q209 0 369 123q71 52 123 123zM543 1628l225 277h143l226 -277h-133l-164 195l-164 -195h-133z" />
    <glyph glyph-name="ccircumflex" unicode="&#x109;" horiz-adv-x="1054" 
d="M891 276l102 -92q-41 -51 -108 -102q-144 -102 -301 -102q-99 0 -189.5 40t-157 108t-106 163.5t-39.5 200.5t39.5 200.5t106 163.5t157 108t189.5 40q158 0 295 -99q56 -41 104 -96l-102 -102q-32 43 -76 81q-98 82 -221 82q-140 0 -244 -109.5t-104 -268.5t104 -269
t244 -110q117 0 227 82q50 40 80 81zM276 1157l226 277h143l225 -277h-133l-164 195l-163 -195h-134z" />
    <glyph glyph-name="Cdotaccent" unicode="&#x10a;" horiz-adv-x="1536" 
d="M1352 369l102 -93q-71 -91 -151 -149q-199 -147 -443 -147q-151 0 -287.5 58t-235 156.5t-156.5 235t-58 287.5t58 287.5t156.5 235t235 156.5t287.5 58q241 0 438 -149q86 -67 146 -148l-103 -92q-52 74 -118 123q-156 123 -363 123q-162 0 -296 -77.5t-211 -214
t-77 -302.5t77 -302.5t211 -214t296 -77.5q209 0 369 123q71 52 123 123zM748 1751q0 38 27 65t65 27t65 -27t27 -65t-27 -65t-65 -27t-65 27t-27 65z" />
    <glyph glyph-name="cdotaccent" unicode="&#x10b;" horiz-adv-x="1054" 
d="M891 276l102 -92q-41 -51 -108 -102q-144 -102 -301 -102q-99 0 -189.5 40t-157 108t-106 163.5t-39.5 200.5t39.5 200.5t106 163.5t157 108t189.5 40q158 0 295 -99q56 -41 104 -96l-102 -102q-32 43 -76 81q-98 82 -221 82q-140 0 -244 -109.5t-104 -268.5t104 -269
t244 -110q117 0 227 82q50 40 80 81zM481 1290q0 38 27 65t65 27t65.5 -27t27.5 -65t-27.5 -65t-65.5 -27t-65 27t-27 65z" />
    <glyph glyph-name="Ccaron" unicode="&#x10c;" horiz-adv-x="1536" 
d="M1352 369l102 -93q-71 -91 -151 -149q-199 -147 -443 -147q-151 0 -287.5 58t-235 156.5t-156.5 235t-58 287.5t58 287.5t156.5 235t235 156.5t287.5 58q241 0 438 -149q86 -67 146 -148l-103 -92q-52 74 -118 123q-156 123 -363 123q-162 0 -296 -77.5t-211 -214
t-77 -302.5t77 -302.5t211 -214t296 -77.5q209 0 369 123q71 52 123 123zM768 1628l-225 277h133l164 -195l164 195h133l-226 -277h-143z" />
    <glyph glyph-name="ccaron" unicode="&#x10d;" horiz-adv-x="1054" 
d="M891 276l102 -92q-41 -51 -108 -102q-144 -102 -301 -102q-99 0 -189.5 40t-157 108t-106 163.5t-39.5 200.5t39.5 200.5t106 163.5t157 108t189.5 40q158 0 295 -99q56 -41 104 -96l-102 -102q-32 43 -76 81q-98 82 -221 82q-140 0 -244 -109.5t-104 -268.5t104 -269
t244 -110q117 0 227 82q50 40 80 81zM502 1157l-226 277h134l163 -195l164 195h133l-225 -277h-143z" />
    <glyph glyph-name="Dcaron" unicode="&#x10e;" horiz-adv-x="1536" 
d="M215 0v1434h451q154 0 293.5 -58t238.5 -155t157 -229t58 -275t-58 -275t-157 -229t-238.5 -155t-293.5 -58h-451zM369 143h297q166 0 302.5 77t214 208.5t77.5 288.5t-77.5 288t-214 208t-302.5 77h-297v-1147zM686 1628l-225 277h133l164 -195l164 195h133l-226 -277
h-143z" />
    <glyph glyph-name="dcaron" unicode="&#x10f;" horiz-adv-x="1310" 
d="M911 0v143q-31 -42 -84 -82q-113 -81 -254 -81q-202 0 -341.5 146t-139.5 366t139.5 366t341.5 146q140 0 254 -82q53 -40 84 -82v594h144v-1434h-144zM573 113q132 0 235 110.5t103 268.5q0 157 -102.5 267.5t-235.5 110.5q-142 0 -239.5 -106.5t-97.5 -271.5t97.5 -272
t239.5 -107zM1188 1157l92 277h133l-123 -277h-102z" />
    <glyph glyph-name="Dcroat" unicode="&#x110;" horiz-adv-x="1566" 
d="M246 0v645h-195v143h195v646h450q154 0 293.5 -58t238.5 -155t157.5 -229t58.5 -275t-58.5 -275t-157.5 -229t-238.5 -155t-293.5 -58h-450zM399 143h297q166 0 302.5 77t214 208.5t77.5 288.5t-77.5 288t-214 208t-302.5 77h-297v-502h349v-143h-349v-502z" />
    <glyph glyph-name="dslash" unicode="&#x111;" 
d="M901 0v143q-27 -42 -80 -82q-109 -81 -258 -81q-126 0 -234 64.5t-172.5 178t-64.5 248.5t64.5 248.5t172.5 178.5t234 65q148 0 258 -82q53 -40 80 -82v317h-266v133h266v185h143v-185h164v-133h-164v-1116h-143zM563 113q141 0 239.5 103t98.5 255t-98.5 255
t-239.5 103q-133 0 -230 -103.5t-97 -254.5t97 -254.5t230 -103.5z" />
    <glyph glyph-name="Emacron" unicode="&#x112;" horiz-adv-x="1310" 
d="M215 0v1434h983v-144h-829v-471h665v-143h-665v-533h850v-143h-1004zM420 1700v112h594v-112h-594z" />
    <glyph glyph-name="emacron" unicode="&#x113;" horiz-adv-x="1136" 
d="M901 276l92 -92q-40 -53 -104 -102q-144 -102 -305 -102q-99 0 -189.5 40t-157 108t-106 163.5t-39.5 200.5q0 140 66.5 258.5t177 186t237.5 67.5q202 0 336.5 -139t134.5 -353q0 -11 -6 -53l-4 -21l-798 2q8 -132 109 -229.5t239 -97.5q125 0 235 82q55 44 82 81z
M236 563h665q-18 133 -108.5 220t-219.5 87t-224 -90t-113 -217zM276 1249v113h594v-113h-594z" />
    <glyph glyph-name="Ebreve" unicode="&#x114;" horiz-adv-x="1310" 
d="M215 0v1434h983v-144h-829v-471h665v-143h-665v-533h850v-143h-1004zM430 1905h113q0 -85 42.5 -129.5t121.5 -44.5t121 44t42 130h113q0 -123 -76.5 -200t-199.5 -77t-200 77t-77 200z" />
    <glyph glyph-name="ebreve" unicode="&#x115;" horiz-adv-x="1136" 
d="M901 276l92 -92q-40 -53 -104 -102q-144 -102 -305 -102q-99 0 -189.5 40t-157 108t-106 163.5t-39.5 200.5q0 140 66.5 258.5t177 186t237.5 67.5q202 0 336.5 -139t134.5 -353q0 -11 -6 -53l-4 -21l-798 2q8 -132 109 -229.5t239 -97.5q125 0 235 82q55 44 82 81z
M236 563h665q-18 133 -108.5 220t-219.5 87t-224 -90t-113 -217zM297 1434h113q0 -86 42 -130t121 -44t121.5 44.5t42.5 129.5h113q0 -123 -77 -200t-200 -77t-199.5 77t-76.5 200z" />
    <glyph glyph-name="Edotaccent" unicode="&#x116;" horiz-adv-x="1310" 
d="M215 0v1434h983v-144h-829v-471h665v-143h-665v-533h850v-143h-1004zM625 1751q0 38 27 65t65 27t65 -27t27 -65t-27 -65t-65 -27t-65 27t-27 65z" />
    <glyph glyph-name="edotaccent" unicode="&#x117;" horiz-adv-x="1136" 
d="M901 276l92 -92q-40 -53 -104 -102q-144 -102 -305 -102q-99 0 -189.5 40t-157 108t-106 163.5t-39.5 200.5q0 140 66.5 258.5t177 186t237.5 67.5q202 0 336.5 -139t134.5 -353q0 -11 -6 -53l-4 -21l-798 2q8 -132 109 -229.5t239 -97.5q125 0 235 82q55 44 82 81z
M236 563h665q-18 133 -108.5 220t-219.5 87t-224 -90t-113 -217zM481 1290q0 38 27 65t65 27t65.5 -27t27.5 -65t-27.5 -65t-65.5 -27t-65 27t-27 65z" />
    <glyph glyph-name="Eogonek" unicode="&#x118;" horiz-adv-x="1310" 
d="M215 0v1434h983v-144h-829v-471h665v-143h-665v-533h850v-143q-35 -38 -58 -74q-55 -76 -55 -151q0 -92 102 -92q46 0 84 14l39 16v-102q-7 -3 -22 -9t-19 -8q-44 -14 -94 -14q-92 0 -142 48.5t-50 135.5q0 92 55 168q27 42 57 68h-901z" />
    <glyph glyph-name="eogonek" unicode="&#x119;" horiz-adv-x="1136" 
d="M778 -287v-102q-7 -3 -22 -9t-19 -8q-44 -14 -94 -14q-92 0 -142 48.5t-50 135.5q0 66 29.5 123.5t64.5 94.5q-124 11 -227.5 80.5t-164.5 183t-61 246.5q0 140 66.5 258.5t177 186t237.5 67.5q202 0 336.5 -139t134.5 -353q0 -11 -6 -53l-4 -21l-798 2
q8 -132 109 -229.5t239 -97.5q125 0 235 82q55 44 82 81l92 -92q-37 -48 -88 -88q-112 -92 -254 -110q-98 -118 -98 -211q0 -92 102 -92q46 0 84 14zM236 563h665q-18 133 -108.5 220t-219.5 87t-224 -90t-113 -217z" />
    <glyph glyph-name="Ecaron" unicode="&#x11a;" horiz-adv-x="1310" 
d="M215 0v1434h983v-144h-829v-471h665v-143h-665v-533h850v-143h-1004zM655 1628l-225 277h133l164 -195l164 195h133l-225 -277h-144z" />
    <glyph glyph-name="ecaron" unicode="&#x11b;" horiz-adv-x="1136" 
d="M901 276l92 -92q-40 -53 -104 -102q-144 -102 -305 -102q-99 0 -189.5 40t-157 108t-106 163.5t-39.5 200.5q0 140 66.5 258.5t177 186t237.5 67.5q202 0 336.5 -139t134.5 -353q0 -11 -6 -53l-4 -21l-798 2q8 -132 109 -229.5t239 -97.5q125 0 235 82q55 44 82 81z
M236 563h665q-18 133 -108.5 220t-219.5 87t-224 -90t-113 -217zM502 1157l-226 277h134l163 -195l164 195h133l-225 -277h-143z" />
    <glyph glyph-name="Gcircumflex" unicode="&#x11c;" horiz-adv-x="1628" 
d="M983 594v143h481v-461q-65 -84 -155 -149q-207 -147 -449 -147q-151 0 -287.5 58t-235 156.5t-156.5 235t-58 287.5t58 287.5t156.5 235t235 156.5t287.5 58q241 0 438 -149q86 -67 146 -148l-103 -92q-52 74 -118 123q-156 123 -363 123q-162 0 -296 -77.5t-211 -214
t-77 -302.5t77 -302.5t211 -214t296 -77.5q195 0 340 96q66 45 111 98v277h-328zM543 1628l225 277h143l226 -277h-133l-164 195l-164 -195h-133z" />
    <glyph glyph-name="gcircumflex" unicode="&#x11d;" horiz-adv-x="1187" 
d="M133 -225l92 92q29 -40 82 -82q110 -82 236 -82q141 0 239.5 103t98.5 255v113q-25 -40 -76 -78q-107 -76 -252 -76q-192 0 -326.5 142.5t-134.5 349.5t134.5 349.5t326.5 142.5q142 0 252 -78q50 -37 76 -76v133h143v-922q0 -206 -140.5 -348.5t-340.5 -142.5
q-174 0 -310 102q-64 51 -100 103zM553 154q139 0 233.5 102.5t94.5 255.5t-94.5 255.5t-233.5 102.5q-131 0 -224 -103t-93 -255t93 -255t224 -103zM287 1157l225 277h143l226 -277h-133l-164 195l-164 -195h-133z" />
    <glyph glyph-name="Gbreve" unicode="&#x11e;" horiz-adv-x="1628" 
d="M983 594v143h481v-461q-65 -84 -155 -149q-207 -147 -449 -147q-151 0 -287.5 58t-235 156.5t-156.5 235t-58 287.5t58 287.5t156.5 235t235 156.5t287.5 58q241 0 438 -149q86 -67 146 -148l-103 -92q-52 74 -118 123q-156 123 -363 123q-162 0 -296 -77.5t-211 -214
t-77 -302.5t77 -302.5t211 -214t296 -77.5q195 0 340 96q66 45 111 98v277h-328zM563 1905h113q0 -85 42.5 -129.5t121.5 -44.5t121.5 44.5t42.5 129.5h112q0 -123 -76.5 -200t-199.5 -77t-200 77t-77 200z" />
    <glyph glyph-name="gbreve" unicode="&#x11f;" horiz-adv-x="1187" 
d="M133 -225l92 92q29 -40 82 -82q110 -82 236 -82q141 0 239.5 103t98.5 255v113q-25 -40 -76 -78q-107 -76 -252 -76q-192 0 -326.5 142.5t-134.5 349.5t134.5 349.5t326.5 142.5q142 0 252 -78q50 -37 76 -76v133h143v-922q0 -206 -140.5 -348.5t-340.5 -142.5
q-174 0 -310 102q-64 51 -100 103zM553 154q139 0 233.5 102.5t94.5 255.5t-94.5 255.5t-233.5 102.5q-131 0 -224 -103t-93 -255t93 -255t224 -103zM307 1434h113q0 -85 42.5 -129.5t121.5 -44.5t121.5 44.5t42.5 129.5h112q0 -123 -76.5 -200t-199.5 -77t-200 77t-77 200z
" />
    <glyph glyph-name="Gdotaccent" unicode="&#x120;" horiz-adv-x="1628" 
d="M983 594v143h481v-461q-65 -84 -155 -149q-207 -147 -449 -147q-151 0 -287.5 58t-235 156.5t-156.5 235t-58 287.5t58 287.5t156.5 235t235 156.5t287.5 58q241 0 438 -149q86 -67 146 -148l-103 -92q-52 74 -118 123q-156 123 -363 123q-162 0 -296 -77.5t-211 -214
t-77 -302.5t77 -302.5t211 -214t296 -77.5q195 0 340 96q66 45 111 98v277h-328zM748 1751q0 38 27 65t65 27t65 -27t27 -65t-27 -65t-65 -27t-65 27t-27 65z" />
    <glyph glyph-name="gdotaccent" unicode="&#x121;" horiz-adv-x="1187" 
d="M133 -225l92 92q29 -40 82 -82q110 -82 236 -82q141 0 239.5 103t98.5 255v113q-25 -40 -76 -78q-107 -76 -252 -76q-192 0 -326.5 142.5t-134.5 349.5t134.5 349.5t326.5 142.5q142 0 252 -78q50 -37 76 -76v133h143v-922q0 -206 -140.5 -348.5t-340.5 -142.5
q-174 0 -310 102q-64 51 -100 103zM553 154q139 0 233.5 102.5t94.5 255.5t-94.5 255.5t-233.5 102.5q-131 0 -224 -103t-93 -255t93 -255t224 -103zM492 1290q0 38 27 65t65 27t65 -27t27 -65t-27 -65t-65 -27t-65 27t-27 65z" />
    <glyph glyph-name="Gcommaaccent" unicode="&#x122;" horiz-adv-x="1628" 
d="M983 594v143h481v-461q-65 -84 -155 -149q-207 -147 -449 -147q-151 0 -287.5 58t-235 156.5t-156.5 235t-58 287.5t58 287.5t156.5 235t235 156.5t287.5 58q241 0 438 -149q86 -67 146 -148l-103 -92q-52 74 -118 123q-156 123 -363 123q-162 0 -296 -77.5t-211 -214
t-77 -302.5t77 -302.5t211 -214t296 -77.5q195 0 340 96q66 45 111 98v277h-328zM696 -440l92 276h134l-123 -276h-103z" />
    <glyph glyph-name="gcommaaccent" unicode="&#x123;" horiz-adv-x="1187" 
d="M502 1157l123 277h102l-92 -277h-133zM133 -225l92 92q29 -40 82 -82q110 -82 236 -82q141 0 239.5 103t98.5 255v113q-25 -40 -76 -78q-107 -76 -252 -76q-192 0 -326.5 142.5t-134.5 349.5t134.5 349.5t326.5 142.5q142 0 252 -78q50 -37 76 -76v133h143v-922
q0 -206 -140.5 -348.5t-340.5 -142.5q-174 0 -310 102q-64 51 -100 103zM553 154q139 0 233.5 102.5t94.5 255.5t-94.5 255.5t-233.5 102.5q-131 0 -224 -103t-93 -255t93 -255t224 -103z" />
    <glyph glyph-name="Hcircumflex" unicode="&#x124;" horiz-adv-x="1536" 
d="M215 0v1434h154v-635h798v635h154v-1434h-154v655h-798v-655h-154zM471 1628l225 277h144l225 -277h-133l-164 195l-164 -195h-133z" />
    <glyph glyph-name="hcircumflex" unicode="&#x125;" horiz-adv-x="1198" 
d="M174 0v1434h143v-594q26 40 78 82q110 82 240 82q178 0 288.5 -114.5t110.5 -305.5v-584h-143v584q0 129 -74 207.5t-192 78.5q-133 0 -220.5 -90.5t-87.5 -236.5v-543h-143zM307 1628l225 277h144l225 -277h-133l-164 195l-164 -195h-133z" />
    <glyph glyph-name="Hbar" unicode="&#x126;" horiz-adv-x="1556" 
d="M246 0v1004h-205v143h205v287h153v-287h758v287h154v-287h205v-143h-205v-1004h-154v594h-758v-594h-153zM399 737h758v267h-758v-267z" />
    <glyph glyph-name="hbar" unicode="&#x127;" horiz-adv-x="1218" 
d="M195 0v1116h-175v133h175v185h143v-185h287v-133h-287v-338q26 40 78 82q110 82 239 82q178 0 289 -114.5t111 -305.5v-522h-144v522q0 129 -74 208t-192 79q-132 0 -219.5 -91t-87.5 -237v-481h-143z" />
    <glyph glyph-name="Imacron" unicode="&#x12a;" horiz-adv-x="583" 
d="M215 0v1434h154v-1434h-154zM0 1700v112h594v-112h-594z" />
    <glyph glyph-name="imacron" unicode="&#x12b;" horiz-adv-x="471" 
d="M164 0v983h143v-983h-143zM-61 1249v113h593v-113h-593z" />
    <glyph glyph-name="Ibreve" unicode="&#x12c;" horiz-adv-x="583" 
d="M215 0v1434h154v-1434h-154zM20 1905h113q0 -85 42.5 -129.5t121.5 -44.5t121.5 44.5t42.5 129.5h112q0 -123 -76.5 -200t-199.5 -77t-200 77t-77 200z" />
    <glyph glyph-name="ibreve" unicode="&#x12d;" horiz-adv-x="471" 
d="M164 0v983h143v-983h-143zM-41 1434h113q0 -85 42.5 -129.5t121.5 -44.5t121 44t42 130h113q0 -123 -76.5 -200t-199.5 -77t-200 77t-77 200z" />
    <glyph glyph-name="Iogonek" unicode="&#x12e;" horiz-adv-x="583" 
d="M430 -287v-102q-7 -3 -22 -9t-19 -8q-44 -14 -94 -14q-92 0 -142.5 48.5t-50.5 135.5q0 90 56 168q27 42 57 68v1434h154v-1434h-52q-32 -34 -57 -74q-55 -76 -55 -151q0 -92 102 -92q46 0 84 14z" />
    <glyph glyph-name="iogonek" unicode="&#x12f;" horiz-adv-x="471" 
d="M143 1311q0 38 27.5 65t65.5 27t65 -27t27 -65t-27 -65t-65 -27t-65.5 27t-27.5 65zM379 -287v-102q-7 -3 -22 -9t-19 -8q-44 -14 -94 -14q-92 0 -142.5 48.5t-50.5 135.5q0 92 55 168q25 40 58 68v983h143v-983h-41q-32 -34 -57 -74q-55 -76 -55 -151q0 -92 102 -92
q46 0 84 14z" />
    <glyph glyph-name="Idot" unicode="&#x130;" horiz-adv-x="583" 
d="M215 0v1434h154v-1434h-154zM205 1751q0 38 27 65t65 27t65 -27t27 -65t-27 -65t-65 -27t-65 27t-27 65z" />
    <glyph glyph-name="dotlessi" unicode="&#x131;" horiz-adv-x="471" 
d="M164 0v983h143v-983h-143z" />
    <glyph glyph-name="uni0132" unicode="&#x132;" horiz-adv-x="1443" 
d="M502 123l102 102q28 -32 60 -51q74 -51 176 -51q245 0 245 297v1014h154v-1014q0 -204 -109.5 -322t-289.5 -118q-154 0 -254 71q-44 25 -84 72zM215 0v1434h154v-1434h-154z" />
    <glyph glyph-name="uni0133" unicode="&#x133;" horiz-adv-x="931" 
d="M143 1311q0 38 27.5 65t65.5 27t65 -27t27 -65t-27 -65t-65 -27t-65.5 27t-27.5 65zM164 0v983h143v-983h-143zM604 1311q0 38 27 65t65 27t65 -27t27 -65t-27 -65t-65 -27t-65 27t-27 65zM379 -399v133l33 -17q32 -14 80 -14q63 0 98 39t35 115v1126h143v-1126
q0 -287 -266 -287q-48 0 -88 14q-23 10 -35 17z" />
    <glyph glyph-name="Jcircumflex" unicode="&#x134;" horiz-adv-x="1013" 
d="M20 143l103 103q25 -36 61 -62q81 -61 185 -61q131 0 208.5 79t77.5 218v1014h154v-1014q0 -192 -124 -316t-316 -124q-141 0 -258 81q-59 42 -91 82zM430 1628l225 277h144l225 -277h-133l-164 195l-164 -195h-133z" />
    <glyph glyph-name="jcircumflex" unicode="&#x135;" horiz-adv-x="471" 
d="M-82 -399v133l33 -17q32 -14 80 -14q63 0 98 39t35 115v1126h143v-1126q0 -287 -266 -287q-48 0 -88 14q-23 10 -35 17zM-61 1157l225 277h143l225 -277h-133l-163 195l-164 -195h-133z" />
    <glyph glyph-name="Kcommaaccent" unicode="&#x136;" horiz-adv-x="1372" 
d="M215 0v1434h154v-809l737 809h194l-542 -594l594 -840h-185l-512 727l-286 -307v-420h-154zM573 -440l93 276h133l-123 -276h-103z" />
    <glyph glyph-name="kcommaaccent" unicode="&#x137;" horiz-adv-x="1044" 
d="M174 0v1434h143v-973l492 522h174l-379 -399l420 -584h-164l-348 481l-195 -205v-276h-143zM420 -440l92 276h133l-123 -276h-102z" />
    <glyph glyph-name="Lacute" unicode="&#x139;" horiz-adv-x="1146" 
d="M215 0v1434h154v-1291h737v-143h-891zM246 1628l153 277h154l-195 -277h-112z" />
    <glyph glyph-name="lacute" unicode="&#x13a;" horiz-adv-x="491" 
d="M174 0v1434h143v-1434h-143zM195 1628l153 277h154l-195 -277h-112z" />
    <glyph glyph-name="Lcommaaccent" unicode="&#x13b;" horiz-adv-x="1146" 
d="M215 0v1434h154v-1291h737v-143h-891zM522 -440l92 276h134l-123 -276h-103z" />
    <glyph glyph-name="lcommaaccent" unicode="&#x13c;" horiz-adv-x="491" 
d="M174 0v1434h143v-1434h-143zM82 -440l92 276h133l-123 -276h-102z" />
    <glyph glyph-name="Lcaron" unicode="&#x13d;" horiz-adv-x="1146" 
d="M215 0v1434h154v-1291h737v-143h-891zM543 1157l92 277h133l-123 -277h-102z" />
    <glyph glyph-name="lcaron" unicode="&#x13e;" horiz-adv-x="563" 
d="M174 0v1434h143v-1434h-143zM440 1157l92 277h134l-123 -277h-103z" />
    <glyph glyph-name="Ldot" unicode="&#x13f;" horiz-adv-x="1146" 
d="M215 0v1434h154v-1291h737v-143h-891zM614 758q0 38 27.5 65t65.5 27t65 -27t27 -65t-27 -65t-65 -27t-65.5 27t-27.5 65z" />
    <glyph glyph-name="ldot" unicode="&#x140;" horiz-adv-x="737" 
d="M174 0v1434h143v-1434h-143zM481 717q0 38 27 65t65 27t65.5 -27t27.5 -65t-27.5 -65t-65.5 -27t-65 27t-27 65z" />
    <glyph glyph-name="Lslash" unicode="&#x141;" horiz-adv-x="1259" 
d="M328 0v584l-246 -144l-72 123l318 174v697h153v-605l287 175l72 -123l-359 -205v-533h738v-143h-891z" />
    <glyph glyph-name="lslash" unicode="&#x142;" horiz-adv-x="716" 
d="M287 0v635l-256 -154l-62 103l318 194v656h143v-584l256 164l62 -103l-318 -204v-707h-143z" />
    <glyph glyph-name="Nacute" unicode="&#x143;" horiz-adv-x="1597" 
d="M215 0v1434h133l881 -1158v1158h153v-1434h-133l-880 1157v-1157h-154zM737 1628l154 277h153l-194 -277h-113z" />
    <glyph glyph-name="nacute" unicode="&#x144;" horiz-adv-x="1187" 
d="M164 0v983h143v-143q26 40 78 82q110 82 240 82q178 0 288.5 -114.5t110.5 -305.5v-584h-143v584q0 129 -74.5 207.5t-192.5 78.5q-132 0 -219.5 -90.5t-87.5 -236.5v-543h-143zM553 1157l154 277h153l-194 -277h-113z" />
    <glyph glyph-name="Ncommaaccent" unicode="&#x145;" horiz-adv-x="1597" 
d="M215 0v1434h133l881 -1158v1158h153v-1434h-133l-880 1157v-1157h-154zM676 -440l92 276h133l-123 -276h-102z" />
    <glyph glyph-name="ncommaaccent" unicode="&#x146;" horiz-adv-x="1187" 
d="M164 0v983h143v-143q26 40 78 82q110 82 240 82q178 0 288.5 -114.5t110.5 -305.5v-584h-143v584q0 129 -74.5 207.5t-192.5 78.5q-132 0 -219.5 -90.5t-87.5 -236.5v-543h-143zM440 -440l92 276h134l-123 -276h-103z" />
    <glyph glyph-name="Ncaron" unicode="&#x147;" horiz-adv-x="1597" 
d="M215 0v1434h133l881 -1158v1158h153v-1434h-133l-880 1157v-1157h-154zM727 1628l-225 277h133l164 -195l164 195h133l-226 -277h-143z" />
    <glyph glyph-name="ncaron" unicode="&#x148;" horiz-adv-x="1187" 
d="M164 0v983h143v-143q26 40 78 82q110 82 240 82q178 0 288.5 -114.5t110.5 -305.5v-584h-143v584q0 129 -74.5 207.5t-192.5 78.5q-132 0 -219.5 -90.5t-87.5 -236.5v-543h-143zM532 1157l-225 277h133l164 -195l164 195h133l-225 -277h-144z" />
    <glyph glyph-name="napostrophe" unicode="&#x149;" horiz-adv-x="1187" 
d="M164 0v983h143v-143q26 40 78 82q110 82 240 82q178 0 288.5 -114.5t110.5 -305.5v-584h-143v584q0 129 -74.5 207.5t-192.5 78.5q-132 0 -219.5 -90.5t-87.5 -236.5v-543h-143zM31 1116l92 277h133l-123 -277h-102z" />
    <glyph glyph-name="Eng" unicode="&#x14a;" horiz-adv-x="1597" 
d="M215 0v1434h133l881 -1158v1158h153v-1434q0 -198 -108.5 -314t-280.5 -116q-131 0 -239 61q-49 28 -78 62l102 102q30 -27 58 -41q70 -41 157 -41q112 0 174 71.5t62 215.5v31l-860 1126v-1157h-154z" />
    <glyph glyph-name="eng" unicode="&#x14b;" horiz-adv-x="1187" 
d="M164 0v983h143v-143q26 40 78 82q110 82 240 82q178 0 288.5 -114.5t110.5 -305.5v-727q0 -287 -266 -287q-48 0 -88 14q-23 10 -35 17v133l33 -17q32 -14 80 -14q63 0 98 39t35 115v727q0 129 -74.5 207.5t-192.5 78.5q-132 0 -219.5 -90.5t-87.5 -236.5v-543h-143z" />
    <glyph glyph-name="Omacron" unicode="&#x14c;" horiz-adv-x="1720" 
d="M123 717q0 151 58 287.5t156.5 235t235 156.5t287.5 58t287.5 -58t235 -156.5t156.5 -235t58 -287.5t-58 -287.5t-156.5 -235t-235 -156.5t-287.5 -58t-287.5 58t-235 156.5t-156.5 235t-58 287.5zM860 123q162 0 296 77.5t211 214t77 302.5t-77 302.5t-211 214
t-296 77.5t-296 -77.5t-211 -214t-77 -302.5t77 -302.5t211 -214t296 -77.5zM563 1700v112h594v-112h-594z" />
    <glyph glyph-name="omacron" unicode="&#x14d;" horiz-adv-x="1187" 
d="M594 -20q-136 0 -251.5 67.5t-183 185.5t-67.5 259t67.5 259t183 185.5t251.5 67.5t251.5 -67.5t183 -185.5t67.5 -259t-67.5 -259t-183 -185.5t-251.5 -67.5zM594 113q148 0 253 109.5t105 269.5t-105 269t-253 109t-253 -109t-105 -269q0 -159 105.5 -269t252.5 -110z
M297 1249v113h594v-113h-594z" />
    <glyph glyph-name="Obreve" unicode="&#x14e;" horiz-adv-x="1720" 
d="M123 717q0 151 58 287.5t156.5 235t235 156.5t287.5 58t287.5 -58t235 -156.5t156.5 -235t58 -287.5t-58 -287.5t-156.5 -235t-235 -156.5t-287.5 -58t-287.5 58t-235 156.5t-156.5 235t-58 287.5zM860 123q162 0 296 77.5t211 214t77 302.5t-77 302.5t-211 214
t-296 77.5t-296 -77.5t-211 -214t-77 -302.5t77 -302.5t211 -214t296 -77.5zM584 1905h112q0 -85 42.5 -129.5t121.5 -44.5t121.5 44.5t42.5 129.5h113q0 -123 -77 -200t-200 -77t-199.5 77t-76.5 200z" />
    <glyph glyph-name="obreve" unicode="&#x14f;" horiz-adv-x="1187" 
d="M594 -20q-136 0 -251.5 67.5t-183 185.5t-67.5 259t67.5 259t183 185.5t251.5 67.5t251.5 -67.5t183 -185.5t67.5 -259t-67.5 -259t-183 -185.5t-251.5 -67.5zM594 113q148 0 253 109.5t105 269.5t-105 269t-253 109t-253 -109t-105 -269q0 -159 105.5 -269t252.5 -110z
M317 1434h113q0 -85 42.5 -129.5t121.5 -44.5t121.5 44.5t42.5 129.5h112q0 -123 -76.5 -200t-199.5 -77t-200 77t-77 200z" />
    <glyph glyph-name="Ohungarumlaut" unicode="&#x150;" horiz-adv-x="1720" 
d="M123 717q0 151 58 287.5t156.5 235t235 156.5t287.5 58t287.5 -58t235 -156.5t156.5 -235t58 -287.5t-58 -287.5t-156.5 -235t-235 -156.5t-287.5 -58t-287.5 58t-235 156.5t-156.5 235t-58 287.5zM860 123q162 0 296 77.5t211 214t77 302.5t-77 302.5t-211 214
t-296 77.5t-296 -77.5t-211 -214t-77 -302.5t77 -302.5t211 -214t296 -77.5zM645 1628l154 277h153l-196 -277h-111zM963 1628l151 277h156l-195 -277h-112z" />
    <glyph glyph-name="ohungarumlaut" unicode="&#x151;" horiz-adv-x="1187" 
d="M594 -20q-136 0 -251.5 67.5t-183 185.5t-67.5 259t67.5 259t183 185.5t251.5 67.5t251.5 -67.5t183 -185.5t67.5 -259t-67.5 -259t-183 -185.5t-251.5 -67.5zM594 113q148 0 253 109.5t105 269.5t-105 269t-253 109t-253 -109t-105 -269q0 -159 105.5 -269t252.5 -110z
M369 1157l153 277h154l-197 -277h-110zM686 1157l152 277h155l-194 -277h-113z" />
    <glyph glyph-name="OE" unicode="&#x152;" horiz-adv-x="2058" 
d="M1208 143h758v-143h-1116q-151 0 -286 56.5t-231.5 152t-153 228.5t-56.5 280t56.5 280t153 228.5t231.5 152t286 56.5h1096v-144h-738v-471h574v-143h-574v-533zM850 143h205v1147h-205q-162 0 -294 -75t-206 -206t-74 -292q0 -122 43.5 -228.5t119.5 -182.5
t182.5 -119.5t228.5 -43.5z" />
    <glyph glyph-name="oe" unicode="&#x153;" horiz-adv-x="1925" 
d="M1700 276l92 -92q-41 -55 -100 -102q-136 -102 -299 -102q-182 0 -314 126q-58 55 -96 130q-41 -74 -100 -130q-136 -126 -310 -126q-127 0 -237.5 67.5t-177 186t-66.5 258.5t66.5 258.5t177 186t237.5 67.5q170 0 310 -130q61 -58 100 -126q40 74 94 126
q136 130 305 130q92 0 174.5 -37t143.5 -102t97 -159.5t36 -203.5q0 -7 -6 -49l-4 -23h-768q18 -132 113.5 -224.5t224.5 -92.5q127 0 229 82q45 36 78 81zM573 113q132 0 235 110.5t103 268.5q0 157 -102.5 267.5t-235.5 110.5q-132 0 -234.5 -110t-102.5 -268
t102.5 -268.5t234.5 -110.5zM1055 563h635q-17 139 -100.5 223t-207.5 84q-122 0 -215.5 -90.5t-111.5 -216.5z" />
    <glyph glyph-name="Racute" unicode="&#x154;" horiz-adv-x="1382" 
d="M215 0v1434h573q191 0 316 -122.5t125 -307.5q0 -200 -150 -328q-70 -57 -147 -82l338 -594h-174l-318 573h-409v-573h-154zM369 717h419q130 0 208.5 78.5t78.5 208.5t-78 208t-209 78h-419v-573zM635 1628l153 277h154l-194 -277h-113z" />
    <glyph glyph-name="racute" unicode="&#x155;" horiz-adv-x="706" 
d="M164 0v983h143v-133q39 45 80 76q110 78 248 78h41v-144h-62q-127 0 -217 -87.5t-90 -229.5v-543h-143zM358 1157l154 277h154l-195 -277h-113z" />
    <glyph glyph-name="Rcommaaccent" unicode="&#x156;" horiz-adv-x="1382" 
d="M215 0v1434h573q191 0 316 -122.5t125 -307.5q0 -200 -150 -328q-70 -57 -147 -82l338 -594h-174l-318 573h-409v-573h-154zM369 717h419q130 0 208.5 78.5t78.5 208.5t-78 208t-209 78h-419v-573zM563 -440l92 276h133l-122 -276h-103z" />
    <glyph glyph-name="rcommaaccent" unicode="&#x157;" horiz-adv-x="706" 
d="M164 0v983h143v-133q39 45 80 76q110 78 248 78h41v-144h-62q-127 0 -217 -87.5t-90 -229.5v-543h-143zM82 -440l92 276h133l-123 -276h-102z" />
    <glyph glyph-name="Rcaron" unicode="&#x158;" horiz-adv-x="1382" 
d="M215 0v1434h573q191 0 316 -122.5t125 -307.5q0 -200 -150 -328q-70 -57 -147 -82l338 -594h-174l-318 573h-409v-573h-154zM369 717h419q130 0 208.5 78.5t78.5 208.5t-78 208t-209 78h-419v-573zM635 1628l-225 277h133l164 -195l163 195h134l-226 -277h-143z" />
    <glyph glyph-name="rcaron" unicode="&#x159;" horiz-adv-x="706" 
d="M164 0v983h143v-133q39 45 80 76q110 78 248 78h41v-144h-62q-127 0 -217 -87.5t-90 -229.5v-543h-143zM348 1157l-225 277h133l164 -195l164 195h133l-225 -277h-144z" />
    <glyph glyph-name="Sacute" unicode="&#x15a;" horiz-adv-x="1157" 
d="M92 195l92 104q38 -50 95 -88q118 -88 294 -88q157 0 242.5 73t85.5 193q0 59 -26.5 103t-71.5 72t-103.5 50t-123 40.5t-129 39t-123 51.5t-103.5 71t-71.5 103.5t-26.5 145.5q0 161 127 275t334 114q172 0 313 -92q61 -40 107 -92l-103 -103q-29 34 -80 72
q-113 72 -237 72q-142 0 -225 -72t-83 -174q0 -53 22 -94.5t59 -68.5t87 -49.5t106 -38t115.5 -35t115.5 -38.5t106 -50.5t87 -70.5t59 -98t22 -133q0 -181 -128.5 -295t-353.5 -114q-210 0 -364 106q-69 46 -117 109zM512 1628l154 277h153l-194 -277h-113z" />
    <glyph glyph-name="sacute" unicode="&#x15b;" horiz-adv-x="880" 
d="M72 154l102 102q27 -41 66 -72q78 -71 190 -71q105 0 160 45.5t55 117.5q0 45 -29.5 77.5t-76.5 51.5t-103.5 36t-113 38t-103.5 49.5t-76.5 79t-29.5 119.5q0 110 92 193.5t235 83.5q123 0 236 -68q46 -27 82 -66l-103 -102q-24 31 -53 51q-80 51 -162 51
q-81 0 -132.5 -43t-51.5 -100q0 -43 29.5 -74t76.5 -49t103.5 -34.5t113 -38t103.5 -51t76.5 -81.5t29.5 -123q0 -127 -97.5 -211.5t-260.5 -84.5q-154 0 -272 86q-53 38 -86 88zM379 1157l153 277h154l-194 -277h-113z" />
    <glyph glyph-name="Scircumflex" unicode="&#x15c;" horiz-adv-x="1157" 
d="M92 195l92 104q38 -50 95 -88q118 -88 294 -88q157 0 242.5 73t85.5 193q0 59 -26.5 103t-71.5 72t-103.5 50t-123 40.5t-129 39t-123 51.5t-103.5 71t-71.5 103.5t-26.5 145.5q0 161 127 275t334 114q172 0 313 -92q61 -40 107 -92l-103 -103q-29 34 -80 72
q-113 72 -237 72q-142 0 -225 -72t-83 -174q0 -53 22 -94.5t59 -68.5t87 -49.5t106 -38t115.5 -35t115.5 -38.5t106 -50.5t87 -70.5t59 -98t22 -133q0 -181 -128.5 -295t-353.5 -114q-210 0 -364 106q-69 46 -117 109zM276 1628l226 277h143l225 -277h-133l-164 195
l-163 -195h-134z" />
    <glyph glyph-name="scircumflex" unicode="&#x15d;" horiz-adv-x="880" 
d="M72 154l102 102q27 -41 66 -72q78 -71 190 -71q105 0 160 45.5t55 117.5q0 45 -29.5 77.5t-76.5 51.5t-103.5 36t-113 38t-103.5 49.5t-76.5 79t-29.5 119.5q0 110 92 193.5t235 83.5q123 0 236 -68q46 -27 82 -66l-103 -102q-24 31 -53 51q-80 51 -162 51
q-81 0 -132.5 -43t-51.5 -100q0 -43 29.5 -74t76.5 -49t103.5 -34.5t113 -38t103.5 -51t76.5 -81.5t29.5 -123q0 -127 -97.5 -211.5t-260.5 -84.5q-154 0 -272 86q-53 38 -86 88zM143 1157l226 277h143l225 -277h-133l-164 195l-164 -195h-133z" />
    <glyph glyph-name="Scedilla" unicode="&#x15e;" horiz-adv-x="1157" 
d="M379 -354l41 67q19 -19 35 -26q41 -25 98 -25q45 0 73.5 25t28.5 57q0 31 -22.5 51.5t-59.5 20.5q-27 0 -45 -11q-14 -9 -16 -10l-51 51l63 136q-184 12 -327 114q-65 46 -105 99l92 104q38 -50 95 -88q118 -88 294 -88q157 0 242.5 73t85.5 193q0 59 -26.5 103t-71.5 72
t-103.5 50t-123 40.5t-129 39t-123 51.5t-103.5 71t-71.5 103.5t-26.5 145.5q0 161 127 275t334 114q172 0 313 -92q61 -40 107 -92l-103 -103q-29 34 -80 72q-113 72 -237 72q-142 0 -225 -72t-83 -174q0 -53 22 -94.5t59 -68.5t87 -49.5t106 -38t115.5 -35t115.5 -38.5
t106 -50.5t87 -70.5t59 -98t22 -133q0 -172 -116 -283.5t-323 -123.5l-43 -95h11q77 0 120.5 -40t43.5 -107q0 -68 -52.5 -114t-142.5 -46q-61 0 -125 33q-30 17 -49 33z" />
    <glyph glyph-name="scedilla" unicode="&#x15f;" horiz-adv-x="880" 
d="M236 -354l40 67q19 -19 35 -26q41 -25 99 -25q45 0 73.5 25t28.5 57q0 31 -22.5 51.5t-59.5 20.5q-27 0 -45 -11q-14 -9 -16 -10l-52 51l64 136q-133 13 -234 94q-43 34 -75 78l102 102q27 -41 66 -72q78 -71 190 -71q105 0 160 45.5t55 117.5q0 45 -29.5 77.5
t-76.5 51.5t-103.5 36t-113 38t-103.5 49.5t-76.5 79t-29.5 119.5q0 110 92 193.5t235 83.5q123 0 236 -68q46 -27 82 -66l-103 -102q-24 31 -53 51q-80 51 -162 51q-81 0 -132.5 -43t-51.5 -100q0 -43 29.5 -74t76.5 -49t103.5 -34.5t113 -38t103.5 -51t76.5 -81.5
t29.5 -123q0 -118 -84.5 -200t-230.5 -94l-43 -95h10q77 0 120.5 -40t43.5 -107q0 -68 -52.5 -114t-141.5 -46q-61 0 -125 33q-30 17 -49 33z" />
    <glyph glyph-name="Scaron" unicode="&#x160;" horiz-adv-x="1157" 
d="M92 195l92 104q38 -50 95 -88q118 -88 294 -88q157 0 242.5 73t85.5 193q0 59 -26.5 103t-71.5 72t-103.5 50t-123 40.5t-129 39t-123 51.5t-103.5 71t-71.5 103.5t-26.5 145.5q0 161 127 275t334 114q172 0 313 -92q61 -40 107 -92l-103 -103q-29 34 -80 72
q-113 72 -237 72q-142 0 -225 -72t-83 -174q0 -53 22 -94.5t59 -68.5t87 -49.5t106 -38t115.5 -35t115.5 -38.5t106 -50.5t87 -70.5t59 -98t22 -133q0 -181 -128.5 -295t-353.5 -114q-210 0 -364 106q-69 46 -117 109zM502 1628l-226 277h134l163 -195l164 195h133
l-225 -277h-143z" />
    <glyph glyph-name="scaron" unicode="&#x161;" horiz-adv-x="880" 
d="M72 154l102 102q27 -41 66 -72q78 -71 190 -71q105 0 160 45.5t55 117.5q0 45 -29.5 77.5t-76.5 51.5t-103.5 36t-113 38t-103.5 49.5t-76.5 79t-29.5 119.5q0 110 92 193.5t235 83.5q123 0 236 -68q46 -27 82 -66l-103 -102q-24 31 -53 51q-80 51 -162 51
q-81 0 -132.5 -43t-51.5 -100q0 -43 29.5 -74t76.5 -49t103.5 -34.5t113 -38t103.5 -51t76.5 -81.5t29.5 -123q0 -127 -97.5 -211.5t-260.5 -84.5q-154 0 -272 86q-53 38 -86 88zM369 1157l-226 277h133l164 -195l164 195h133l-225 -277h-143z" />
    <glyph glyph-name="uni0162" unicode="&#x162;" horiz-adv-x="1136" 
d="M397 -354l41 67q19 -19 35 -26q41 -25 98 -25q45 0 74 25t29 57q0 31 -22.5 51.5t-59.5 20.5q-27 0 -45 -11q-13 -9 -17 -10l-51 51l74 154h-61v1290h-451v144h1055v-144h-451v-1290l-53 -113h10q77 0 120.5 -40t43.5 -107q0 -68 -52.5 -114t-142.5 -46q-61 0 -125 33
q-30 17 -49 33z" />
    <glyph glyph-name="uni0163" unicode="&#x163;" horiz-adv-x="737" 
d="M276 -354l41 67q19 -19 35 -26q41 -25 99 -25q45 0 73.5 25t28.5 57q0 31 -22.5 51.5t-59.5 20.5q-27 0 -45 -11q-14 -9 -16 -10l-52 51l68 144q-85 24 -132.5 93.5t-47.5 182.5v584h-185v133h113q82 0 82 102v226h133v-328h215v-133h-215v-584q0 -76 35 -114.5t98 -38.5
q50 0 94 14q4 2 18.5 7.5t20.5 8.5v-133q-7 -3 -21 -8.5t-20 -7.5q-47 -14 -102 -14l-41 -93h10q77 0 120.5 -40t43.5 -107q0 -68 -52.5 -114t-141.5 -46q-61 0 -125 33q-33 18 -50 33z" />
    <glyph glyph-name="Tcaron" unicode="&#x164;" horiz-adv-x="1136" 
d="M492 0v1290h-451v144h1055v-144h-451v-1290h-153zM502 1628l-226 277h134l163 -195l164 195h133l-225 -277h-143z" />
    <glyph glyph-name="tcaron" unicode="&#x165;" horiz-adv-x="747" 
d="M246 266v584h-185v133h113q82 0 82 102v226h133v-328h215v-133h-215v-584q0 -76 35 -114.5t98 -38.5q50 0 94 14q4 2 18.5 7.5t20.5 8.5v-133q-7 -3 -21 -8.5t-20 -7.5q-44 -14 -98 -14q-129 0 -199.5 74t-70.5 212zM625 1157l92 277h133l-123 -277h-102z" />
    <glyph glyph-name="Tbar" unicode="&#x166;" horiz-adv-x="1136" 
d="M492 0v758h-318v143h318v389h-451v144h1055v-144h-451v-389h318v-143h-318v-758h-153z" />
    <glyph glyph-name="tbar" unicode="&#x167;" horiz-adv-x="757" 
d="M256 266v195h-184v133h184v256h-184v133h112q82 0 82 102v226h133v-328h215v-133h-215v-256h215v-133h-215v-195q0 -76 35 -114.5t98 -38.5q51 0 95 14q4 2 18.5 7.5t20.5 8.5v-133q-7 -3 -21 -8.5t-20 -7.5q-44 -14 -99 -14q-129 0 -199.5 74t-70.5 212z" />
    <glyph glyph-name="Umacron" unicode="&#x16a;" horiz-adv-x="1556" 
d="M195 563v871h153v-871q0 -191 122.5 -315.5t307.5 -124.5t307.5 124.5t122.5 315.5v871h154v-871q0 -161 -77 -295t-211 -211t-296 -77t-295.5 77t-210.5 210.5t-77 295.5zM481 1700v112h594v-112h-594z" />
    <glyph glyph-name="umacron" unicode="&#x16b;" horiz-adv-x="1198" 
d="M164 410v573h143v-573q0 -129 80 -213t197 -84q126 0 211.5 91t85.5 236v543h143v-983h-143v133q-28 -41 -78 -78q-106 -75 -240 -75q-171 0 -285 120t-114 310zM297 1249v113h594v-113h-594z" />
    <glyph glyph-name="Ubreve" unicode="&#x16c;" horiz-adv-x="1556" 
d="M195 563v871h153v-871q0 -191 122.5 -315.5t307.5 -124.5t307.5 124.5t122.5 315.5v871h154v-871q0 -161 -77 -295t-211 -211t-296 -77t-295.5 77t-210.5 210.5t-77 295.5zM502 1905h112q0 -85 42.5 -129.5t121.5 -44.5t121.5 44.5t42.5 129.5h113q0 -123 -77 -200
t-200 -77t-199.5 77t-76.5 200z" />
    <glyph glyph-name="ubreve" unicode="&#x16d;" horiz-adv-x="1198" 
d="M164 410v573h143v-573q0 -129 80 -213t197 -84q126 0 211.5 91t85.5 236v543h143v-983h-143v133q-28 -41 -78 -78q-106 -75 -240 -75q-171 0 -285 120t-114 310zM317 1434h113q0 -85 42.5 -129.5t121.5 -44.5t121.5 44.5t42.5 129.5h112q0 -123 -76.5 -200t-199.5 -77
t-200 77t-77 200z" />
    <glyph glyph-name="Uring" unicode="&#x16e;" horiz-adv-x="1556" 
d="M195 563v871h153v-871q0 -191 122.5 -315.5t307.5 -124.5t307.5 124.5t122.5 315.5v871h154v-871q0 -161 -77 -295t-211 -211t-296 -77t-295.5 77t-210.5 210.5t-77 295.5zM584 1761q0 77 57 131t137 54t137.5 -54t57.5 -131t-57.5 -130.5t-137.5 -53.5t-137 53.5
t-57 130.5zM778 1669q38 0 65 27t27 65t-27 65t-65 27t-65 -27t-27 -65t27 -65t65 -27z" />
    <glyph glyph-name="uring" unicode="&#x16f;" horiz-adv-x="1198" 
d="M164 410v573h143v-573q0 -129 80 -213t197 -84q126 0 211.5 91t85.5 236v543h143v-983h-143v133q-28 -41 -78 -78q-106 -75 -240 -75q-171 0 -285 120t-114 310zM399 1311q0 77 57.5 130.5t137.5 53.5t137 -53.5t57 -130.5t-57 -131t-137 -54t-137.5 54t-57.5 131z
M594 1219q38 0 65 27t27 65t-27 65t-65 27t-65 -27t-27 -65t27 -65t65 -27z" />
    <glyph glyph-name="Uhungarumlaut" unicode="&#x170;" horiz-adv-x="1556" 
d="M195 563v871h153v-871q0 -191 122.5 -315.5t307.5 -124.5t307.5 124.5t122.5 315.5v871h154v-871q0 -161 -77 -295t-211 -211t-296 -77t-295.5 77t-210.5 210.5t-77 295.5zM543 1628l153 277h154l-197 -277h-110zM860 1628l152 277h155l-194 -277h-113z" />
    <glyph glyph-name="uhungarumlaut" unicode="&#x171;" horiz-adv-x="1198" 
d="M164 410v573h143v-573q0 -129 80 -213t197 -84q126 0 211.5 91t85.5 236v543h143v-983h-143v133q-28 -41 -78 -78q-106 -75 -240 -75q-171 0 -285 120t-114 310zM369 1157l153 277h154l-197 -277h-110zM686 1157l152 277h155l-194 -277h-113z" />
    <glyph glyph-name="Uogonek" unicode="&#x172;" horiz-adv-x="1556" 
d="M983 -287v-102q-7 -3 -22 -9t-19 -8q-44 -14 -94 -14q-92 0 -142.5 48.5t-50.5 135.5q0 65 30.5 124.5t62.5 91.5q-235 12 -394 179t-159 404v871h153v-871q0 -191 122.5 -315.5t307.5 -124.5t307.5 124.5t122.5 315.5v871h154v-871q0 -223 -145 -387.5t-361 -189.5
q-98 -118 -98 -211q0 -92 102 -92q46 0 84 14z" />
    <glyph glyph-name="uogonek" unicode="&#x173;" horiz-adv-x="1198" 
d="M164 410v573h143v-573q0 -129 80 -213t197 -84q126 0 211.5 91t85.5 236v543h143v-983h-41q-32 -34 -57 -74q-56 -78 -56 -151q0 -92 103 -92q46 0 84 14l39 16v-102q-7 -3 -22 -9t-19 -8q-44 -14 -94 -14q-92 0 -142.5 48.5t-50.5 135.5q0 92 55 168q25 40 58 68v133
q-28 -41 -78 -78q-106 -75 -240 -75q-171 0 -285 120t-114 310z" />
    <glyph glyph-name="Wcircumflex" unicode="&#x174;" horiz-adv-x="2129" 
d="M532 0l-471 1434h164l379 -1198l389 1198h144l389 -1198l379 1198h163l-471 -1434h-153l-379 1198l-379 -1198h-154zM768 1628l225 277h144l225 -277h-133l-164 195l-164 -195h-133z" />
    <glyph glyph-name="wcircumflex" unicode="&#x175;" horiz-adv-x="1495" 
d="M369 0l-338 983h153l256 -758l246 758h123l246 -758l256 758h153l-338 -983h-133l-245 748l-246 -748h-133zM451 1157l225 277h143l225 -277h-133l-163 195l-164 -195h-133z" />
    <glyph glyph-name="Ycircumflex" unicode="&#x176;" horiz-adv-x="1300" 
d="M573 0v502l-532 932h174l430 -768h10l430 768h175l-533 -932v-502h-154zM358 1628l226 277h143l225 -277h-133l-164 195l-163 -195h-134z" />
    <glyph glyph-name="ycircumflex" unicode="&#x177;" horiz-adv-x="1003" 
d="M92 -410v134q22 -9 33 -11q33 -10 70 -10q68 0 111 37t73 117l51 143l-399 983h153l318 -799l317 799h154l-451 -1126q-62 -155 -132 -221t-175 -66q-46 0 -88 10q-16 2 -35 10zM205 1157l225 277h143l226 -277h-133l-164 195l-164 -195h-133z" />
    <glyph glyph-name="Ydieresis" unicode="&#x178;" horiz-adv-x="1300" 
d="M573 0v502l-532 932h174l430 -768h10l430 768h175l-533 -932v-502h-154zM369 1751q0 38 27 65t65 27t65 -27t27 -65t-27 -65t-65 -27t-65 27t-27 65zM758 1751q0 38 27 65t65 27t65 -27t27 -65t-27 -65t-65 -27t-65 27t-27 65z" />
    <glyph glyph-name="Zacute" unicode="&#x179;" 
d="M92 0v143l840 1147h-809v144h993v-144l-840 -1147h861v-143h-1045zM553 1628l154 277h153l-194 -277h-113z" />
    <glyph glyph-name="zacute" unicode="&#x17a;" horiz-adv-x="952" 
d="M82 0v133l594 717h-574v133h748v-133l-594 -717h614v-133h-788zM420 1157l153 277h154l-195 -277h-112z" />
    <glyph glyph-name="Zdotaccent" unicode="&#x17b;" 
d="M92 0v143l840 1147h-809v144h993v-144l-840 -1147h861v-143h-1045zM522 1751q0 38 27 65t65 27t65.5 -27t27.5 -65t-27.5 -65t-65.5 -27t-65 27t-27 65z" />
    <glyph glyph-name="zdotaccent" unicode="&#x17c;" horiz-adv-x="952" 
d="M82 0v133l594 717h-574v133h748v-133l-594 -717h614v-133h-788zM379 1290q0 38 27 65t65 27t65 -27t27 -65t-27 -65t-65 -27t-65 27t-27 65z" />
    <glyph glyph-name="Zcaron" unicode="&#x17d;" 
d="M92 0v143l840 1147h-809v144h993v-144l-840 -1147h861v-143h-1045zM543 1628l-226 277h134l163 -195l164 195h133l-225 -277h-143z" />
    <glyph glyph-name="zcaron" unicode="&#x17e;" horiz-adv-x="952" 
d="M82 0v133l594 717h-574v133h748v-133l-594 -717h614v-133h-788zM399 1157l-225 277h133l164 -195l164 195h133l-225 -277h-144z" />
    <glyph glyph-name="uni018F" unicode="&#x18f;" horiz-adv-x="1607" 
d="M123 717h1208q0 133 -42 244.5t-115.5 188t-175.5 119t-220 42.5q-197 0 -350 -103q-72 -50 -111 -102l-102 92q63 76 139 127q197 129 424 129q148 0 278.5 -55t225 -151t149 -234t54.5 -297q0 -162 -52.5 -300.5t-143 -233.5t-215 -149t-265.5 -54q-145 0 -271.5 54
t-218 149t-144 233.5t-52.5 300.5zM1319 573h-1030q36 -212 176.5 -331t343.5 -119q196 0 335 119t175 331z" />
    <glyph glyph-name="florin" unicode="&#x192;" horiz-adv-x="716" 
d="M-164 -410v134q12 -7 35 -17q40 -14 88 -14q137 0 164 153l153 840h-163v133h184l72 348q29 148 103 217.5t204 69.5q42 0 88 -16l35 -15v-133l-35 15q-46 16 -88 16q-134 0 -164 -154l-72 -348h236v-133h-256l-154 -840q-53 -286 -307 -286q-48 0 -88 14q-29 13 -35 16z
" />
    <glyph glyph-name="Aringacute" unicode="&#x1fa;" horiz-adv-x="1413" 
d="M666 1751l153 277h154l-195 -277h-112zM41 0l571 1372q-45 24 -72.5 65.5t-27.5 88.5q0 79 55 131.5t140 52.5t139.5 -52.5t54.5 -131.5q0 -47 -27.5 -88.5t-72.5 -65.5l571 -1372h-164l-164 399h-675l-164 -399h-164zM430 543h553l-276 686zM614 1526q0 -38 27.5 -65
t65.5 -27t65 27t27 65t-27 65t-65 27t-65.5 -27t-27.5 -65z" />
    <glyph glyph-name="aringacute" unicode="&#x1fb;" horiz-adv-x="1064" 
d="M348 1229q0 78 56.5 131t138.5 53t138 -53t56 -131t-56 -131.5t-138 -53.5t-138.5 53.5t-56.5 131.5zM481 1454l154 256h153l-194 -256h-113zM451 1229q0 -38 27 -65t65 -27t65 27t27 65t-27 65t-65 27t-65 -27t-27 -65zM758 0v133q-28 -41 -78 -78q-106 -75 -240 -75
q-149 0 -248.5 87t-99.5 199q0 123 73.5 198.5t213.5 98.5l379 62q0 109 -68.5 177t-177.5 68q-108 0 -203 -71q-43 -36 -73 -72l-93 92q37 49 97 92q125 93 272 93q168 0 278.5 -108.5t110.5 -270.5v-625h-143zM758 440v62l-338 -62q-184 -34 -184 -174q0 -65 54 -109
t150 -44q140 0 229 90t89 237z" />
    <glyph glyph-name="AEacute" unicode="&#x1fc;" horiz-adv-x="1945" 
d="M-61 0l798 1434h1096v-144h-737v-471h573v-143h-573v-533h757v-143h-911v420h-604l-236 -420h-163zM410 563h532v727h-123zM1096 1628l153 277h154l-195 -277h-112z" />
    <glyph glyph-name="aeacute" unicode="&#x1fd;" horiz-adv-x="1781" 
d="M256 727l-92 92q36 50 90 92q117 93 266 93q151 0 262 -103q53 -53 78 -102q36 51 96 102q127 103 283 103q92 0 174.5 -37t143.5 -102t97 -159.5t36 -203.5q0 -9 -3.5 -24.5t-3.5 -18.5l-4 -19h-768q8 -131 109.5 -229t232.5 -98q128 0 230 82q45 36 78 81l94 -92
q-37 -49 -103 -102q-136 -102 -299 -102q-179 0 -311 122q-62 52 -102 123q-36 -74 -88 -123q-122 -122 -312 -122q-155 0 -251.5 83.5t-96.5 202.5q0 125 97 216t241 91h338v31q0 118 -68.5 192t-177.5 74q-103 0 -198 -71q-46 -39 -68 -72zM911 573h645
q-24 132 -110 214.5t-207 82.5t-215.5 -89t-112.5 -208zM768 440h-338q-91 0 -142.5 -47.5t-51.5 -126.5q0 -65 54 -109t150 -44q144 0 236 96t92 231zM840 1157l153 277h154l-195 -277h-112z" />
    <glyph glyph-name="Oslashacute" unicode="&#x1fe;" horiz-adv-x="1720" 
d="M102 61l185 185q-40 47 -82 127q-82 164 -82 344q0 151 58 287.5t156.5 235t235 156.5t287.5 58q178 0 342 -82q78 -42 129 -82l185 185l102 -103l-184 -184q40 -51 82 -129q81 -162 81 -342q0 -151 -58 -287.5t-156.5 -235t-235 -156.5t-287.5 -58q-182 0 -344 81
q-80 42 -127 82l-184 -184zM389 348l840 840q-46 34 -101 61q-126 62 -268 62q-162 0 -296 -77.5t-211 -214t-77 -302.5q0 -154 56 -268q25 -58 57 -101zM1331 1085l-839 -839q52 -39 100 -62q124 -61 268 -61q162 0 296 77.5t211 214t77 302.5q0 150 -58 268
q-19 45 -55 100zM809 1628l154 277h153l-194 -277h-113z" />
    <glyph glyph-name="oslashacute" unicode="&#x1ff;" horiz-adv-x="1187" 
d="M72 41l133 133q-32 32 -58 82q-55 98 -55 236q0 141 67.5 259t183 185.5t251.5 67.5q111 0 217 -52q35 -16 80 -51l133 133l92 -92l-133 -133q31 -36 55 -82q58 -103 58 -235q0 -141 -67.5 -259t-183 -185.5t-251.5 -67.5q-121 0 -217 51q-35 16 -80 51l-133 -133z
M297 276l502 523q-36 24 -58 35q-78 36 -147 36q-148 0 -253 -109t-105 -269q0 -85 30 -158q11 -31 31 -58zM891 707l-502 -523q23 -23 55 -37q66 -34 150 -34q148 0 253 109.5t105 269.5q0 73 -30 157q-12 28 -31 58zM543 1157l153 277h154l-195 -277h-112z" />
    <glyph glyph-name="Scommaaccent" unicode="&#x218;" horiz-adv-x="1157" 
d="M92 195l92 104q38 -50 95 -88q118 -88 294 -88q157 0 242.5 73t85.5 193q0 59 -26.5 103t-71.5 72t-103.5 50t-123 40.5t-129 39t-123 51.5t-103.5 71t-71.5 103.5t-26.5 145.5q0 161 127 275t334 114q172 0 313 -92q61 -40 107 -92l-103 -103q-29 34 -80 72
q-113 72 -237 72q-142 0 -225 -72t-83 -174q0 -53 22 -94.5t59 -68.5t87 -49.5t106 -38t115.5 -35t115.5 -38.5t106 -50.5t87 -70.5t59 -98t22 -133q0 -181 -128.5 -295t-353.5 -114q-210 0 -364 106q-69 46 -117 109zM430 -440l92 276h133l-123 -276h-102z" />
    <glyph glyph-name="scommaaccent" unicode="&#x219;" horiz-adv-x="880" 
d="M72 154l102 102q27 -41 66 -72q78 -71 190 -71q105 0 160 45.5t55 117.5q0 45 -29.5 77.5t-76.5 51.5t-103.5 36t-113 38t-103.5 49.5t-76.5 79t-29.5 119.5q0 110 92 193.5t235 83.5q123 0 236 -68q46 -27 82 -66l-103 -102q-24 31 -53 51q-80 51 -162 51
q-81 0 -132.5 -43t-51.5 -100q0 -43 29.5 -74t76.5 -49t103.5 -34.5t113 -38t103.5 -51t76.5 -81.5t29.5 -123q0 -127 -97.5 -211.5t-260.5 -84.5q-154 0 -272 86q-53 38 -86 88zM276 -440l93 276h133l-123 -276h-103z" />
    <glyph glyph-name="uni021A" unicode="&#x21a;" horiz-adv-x="1136" 
d="M492 0v1290h-451v144h1055v-144h-451v-1290h-153zM410 -440l92 276h133l-123 -276h-102z" />
    <glyph glyph-name="uni021B" unicode="&#x21b;" horiz-adv-x="737" 
d="M246 266v584h-185v133h113q82 0 82 102v226h133v-328h215v-133h-215v-584q0 -76 35 -114.5t98 -38.5q50 0 94 14q4 2 18.5 7.5t20.5 8.5v-133q-7 -3 -21 -8.5t-20 -7.5q-44 -14 -98 -14q-129 0 -199.5 74t-70.5 212zM297 -440l92 276h133l-123 -276h-102z" />
    <glyph glyph-name="uni0232" unicode="&#x232;" horiz-adv-x="1300" 
d="M573 0v502l-532 932h174l430 -768h10l430 768h175l-533 -932v-502h-154zM358 1700v112h594v-112h-594z" />
    <glyph glyph-name="uni0233" unicode="&#x233;" horiz-adv-x="1003" 
d="M92 -410v134q22 -9 33 -11q33 -10 70 -10q68 0 111 37t73 117l51 143l-399 983h153l318 -799l317 799h154l-451 -1126q-62 -155 -132 -221t-175 -66q-46 0 -88 10q-16 2 -35 10zM205 1249v113h594v-113h-594z" />
    <glyph glyph-name="uni0244" unicode="&#x244;" horiz-adv-x="1576" 
d="M20 768v143h205v523h154v-523h819v523h154v-523h204v-143h-204v-205q0 -124 -43.5 -232.5t-118.5 -185.5t-179.5 -121t-222.5 -44q-158 0 -286.5 75t-202.5 209t-74 299v205h-205zM379 768v-205q0 -197 115 -318.5t294 -121.5t294.5 121.5t115.5 318.5v205h-819z" />
    <glyph glyph-name="uni0259" unicode="&#x259;" horiz-adv-x="1136" 
d="M92 492v32l809 -2q-8 140 -109.5 244t-238.5 104q-130 0 -231 -77q-44 -32 -76 -76l-103 82q38 52 105 102q145 103 305 103q132 0 245 -67.5t179.5 -185.5t66.5 -259q0 -140 -66 -258.5t-174.5 -186t-230.5 -67.5q-211 0 -346 142.5t-135 369.5zM891 399h-645
q17 -130 106.5 -208t220.5 -78q118 0 209.5 82t108.5 204z" />
    <glyph glyph-name="uni0289" unicode="&#x289;" 
d="M41 512v133h154v338h143v-338h553v338h143v-338h154v-133h-154v-512h-143v133q-39 -49 -78 -78q-98 -75 -229 -75q-172 0 -280.5 116t-108.5 314v102h-154zM338 512v-102q0 -137 73.5 -217t192.5 -80q126 0 206.5 88t80.5 239v72h-553z" />
    <glyph glyph-name="uni02BC" unicode="&#x2bc;" horiz-adv-x="348" 
d="M61 1157l93 277h133l-123 -277h-103z" />
    <glyph glyph-name="circumflex" unicode="&#x2c6;" horiz-adv-x="716" 
d="M61 1157l226 277h143l225 -277h-133l-164 195l-163 -195h-134z" />
    <glyph glyph-name="caron" unicode="&#x2c7;" horiz-adv-x="716" 
d="M287 1157l-226 277h134l163 -195l164 195h133l-225 -277h-143z" />
    <glyph glyph-name="breve" unicode="&#x2d8;" horiz-adv-x="675" 
d="M61 1434h113q0 -85 42.5 -129.5t121.5 -44.5t121.5 44.5t42.5 129.5h112q0 -123 -76.5 -200t-199.5 -77t-200 77t-77 200z" />
    <glyph glyph-name="dotaccent" unicode="&#x2d9;" horiz-adv-x="307" 
d="M61 1311q0 38 27.5 65t65.5 27t65 -27t27 -65t-27 -65t-65 -27t-65.5 27t-27.5 65z" />
    <glyph glyph-name="ring" unicode="&#x2da;" horiz-adv-x="512" 
d="M61 1229q0 77 57.5 130.5t137.5 53.5t137.5 -53.5t57.5 -130.5t-57.5 -131t-137.5 -54t-137.5 54t-57.5 131zM256 1137q38 0 65 27t27 65t-27 65t-65 27t-65 -27t-27 -65t27 -65t65 -27z" />
    <glyph glyph-name="ogonek" unicode="&#x2db;" horiz-adv-x="450" 
d="M389 -287v-102q-7 -3 -22 -9t-19 -8q-44 -14 -94 -14q-92 0 -142.5 48.5t-50.5 135.5q0 90 56 168q27 42 57 68h102q-32 -34 -57 -74q-55 -76 -55 -151q0 -92 102 -92q46 0 84 14z" />
    <glyph glyph-name="tilde" unicode="&#x2dc;" horiz-adv-x="757" 
d="M164 1178h-103q0 118 51.5 181.5t133.5 63.5q48 0 88.5 -21t63.5 -45.5t53.5 -45.5t60.5 -21q34 0 58 34t24 99h102q0 -119 -51 -182t-133 -63q-48 0 -88.5 21t-63.5 45.5t-53.5 45.5t-60.5 21q-34 0 -58 -34t-24 -99z" />
    <glyph glyph-name="hungarumlaut" unicode="&#x2dd;" horiz-adv-x="747" 
d="M61 1157l154 277h154l-197 -277h-111zM379 1157l151 277h156l-194 -277h-113z" />
    <glyph glyph-name="acutecomb" unicode="&#x301;" horiz-adv-x="0" 
d="M-819 1495l153 277h154l-195 -277h-112z" />
    <glyph glyph-name="uni0302" unicode="&#x302;" horiz-adv-x="0" 
d="M-1065 1495l225 277h144l225 -277h-133l-164 195l-164 -195h-133z" />
    <glyph glyph-name="uni0304" unicode="&#x304;" horiz-adv-x="0" 
d="M-1055 1577v113h594v-113h-594z" />
    <glyph glyph-name="uni0306" unicode="&#x306;" horiz-adv-x="0" 
d="M-1034 1751h112q0 -85 42.5 -129.5t121.5 -44.5t121.5 44.5t42.5 129.5h113q0 -123 -77 -199.5t-200 -76.5t-199.5 76.5t-76.5 199.5z" />
    <glyph glyph-name="uni0307" unicode="&#x307;" horiz-adv-x="0" 
d="M-850 1628q0 38 27 65t65 27t65 -27t27 -65t-27 -65t-65 -27t-65 27t-27 65z" />
    <glyph glyph-name="uni0308" unicode="&#x308;" horiz-adv-x="0" 
d="M-1055 1628q0 38 27 65t65 27t65.5 -27t27.5 -65t-27.5 -65t-65.5 -27t-65 27t-27 65zM-666 1628q0 38 27.5 65t65.5 27t65 -27t27 -65t-27 -65t-65 -27t-65.5 27t-27.5 65z" />
    <glyph glyph-name="uni030A" unicode="&#x30a;" horiz-adv-x="0" 
d="M-952 1690q0 77 57 130.5t137 53.5t137.5 -53.5t57.5 -130.5t-57.5 -131t-137.5 -54t-137 54t-57 131zM-758 1597q38 0 65 27.5t27 65.5t-27 65t-65 27t-65 -27t-27 -65t27 -65.5t65 -27.5z" />
    <glyph glyph-name="uni030C" unicode="&#x30c;" horiz-adv-x="0" 
d="M-821 1495l-226 277h134l163 -195l164 195h133l-225 -277h-143z" />
    <glyph glyph-name="uni0326" unicode="&#x326;" horiz-adv-x="348" 
d="M61 -440l93 276h133l-123 -276h-103z" />
    <glyph glyph-name="Alphatonos" unicode="&#x386;" horiz-adv-x="1413" 
d="M164 1157l153 277h154l-195 -277h-112zM41 0l594 1434h143l594 -1434h-164l-164 399h-675l-164 -399h-164zM430 543h553l-276 676z" />
    <glyph glyph-name="Epsilontonos" unicode="&#x388;" horiz-adv-x="1310" 
d="M-133 1157l153 277h154l-194 -277h-113zM215 0v1434h983v-144h-829v-471h665v-143h-665v-533h850v-143h-1004z" />
    <glyph glyph-name="Etatonos" unicode="&#x389;" horiz-adv-x="1536" 
d="M-133 1157l153 277h154l-194 -277h-113zM215 0v1434h154v-635h798v635h154v-1434h-154v655h-798v-655h-154z" />
    <glyph glyph-name="Iotatonos" unicode="&#x38a;" horiz-adv-x="583" 
d="M-133 1157l153 277h154l-194 -277h-113zM215 0v1434h154v-1434h-154z" />
    <glyph glyph-name="Omicrontonos" unicode="&#x38c;" horiz-adv-x="1720" 
d="M-41 1157l154 277h153l-194 -277h-113zM123 717q0 151 58 287.5t156.5 235t235 156.5t287.5 58t287.5 -58t235 -156.5t156.5 -235t58 -287.5t-58 -287.5t-156.5 -235t-235 -156.5t-287.5 -58t-287.5 58t-235 156.5t-156.5 235t-58 287.5zM860 123q162 0 296 77.5t211 214
t77 302.5t-77 302.5t-211 214t-296 77.5t-296 -77.5t-211 -214t-77 -302.5t77 -302.5t211 -214t296 -77.5z" />
    <glyph glyph-name="Upsilontonos" unicode="&#x38e;" horiz-adv-x="1382" 
d="M-205 1157l154 277h153l-194 -277h-113zM655 0v502l-532 932h174l430 -768h10l430 768h174l-532 -932v-502h-154z" />
    <glyph glyph-name="Omegatonos" unicode="&#x38f;" horiz-adv-x="1781" 
d="M215 0v143h256q-144 84 -230.5 242.5t-86.5 331.5q0 151 58 287.5t156.5 235t235 156.5t287.5 58t287.5 -58t235 -156.5t156.5 -235t58 -287.5q0 -173 -86.5 -331.5t-230.5 -242.5h256v-143h-512v143q181 55 300.5 213t119.5 361q0 166 -77 302.5t-211 214t-296 77.5
t-296 -77.5t-211 -214t-77 -302.5q0 -203 119.5 -361t300.5 -213v-143h-512zM-10 1157l153 277h154l-195 -277h-112z" />
    <glyph glyph-name="iotadieresistonos" unicode="&#x390;" horiz-adv-x="604" 
d="M-51 1290q0 38 27 65t65 27t65 -27t27 -65t-27 -65t-65 -27t-65 27t-27 65zM338 1290q0 38 27 65t65 27t65 -27t27 -65t-27 -65t-65 -27t-65 27t-27 65zM90 1157l154 277h153l-194 -277h-113zM164 266v717h143v-717q0 -153 144 -153q39 0 79 14l33 16v-133
q-6 -3 -20.5 -8.5t-18.5 -7.5q-44 -14 -94 -14q-125 0 -195.5 74t-70.5 212z" />
    <glyph glyph-name="Alpha" unicode="&#x391;" horiz-adv-x="1413" 
d="M41 0l594 1434h143l594 -1434h-164l-164 399h-675l-164 -399h-164zM430 543h553l-276 676z" />
    <glyph glyph-name="Beta" unicode="&#x392;" horiz-adv-x="1361" 
d="M215 0v1434h553q175 0 287 -106.5t112 -262.5q0 -140 -82 -234q-42 -45 -81 -63q61 -29 116 -80q119 -115 119 -278q0 -179 -121.5 -294.5t-318.5 -115.5h-584zM369 831h399q116 0 181 62.5t65 171.5q0 102 -65.5 163.5t-180.5 61.5h-399v-459zM369 143h430
q129 0 207.5 74.5t78.5 192.5q0 119 -79.5 202.5t-206.5 83.5h-430v-553z" />
    <glyph glyph-name="Gamma" unicode="&#x393;" horiz-adv-x="1126" 
d="M215 0v1434h891v-144h-737v-1290h-154z" />
    <glyph glyph-name="uni0394" unicode="&#x394;" horiz-adv-x="1392" 
d="M20 0l605 1434h143l604 -1434h-1352zM246 143h901l-451 1076z" />
    <glyph glyph-name="Epsilon" unicode="&#x395;" horiz-adv-x="1310" 
d="M215 0v1434h983v-144h-829v-471h665v-143h-665v-533h850v-143h-1004z" />
    <glyph glyph-name="Zeta" unicode="&#x396;" 
d="M92 0v143l840 1147h-809v144h993v-144l-840 -1147h861v-143h-1045z" />
    <glyph glyph-name="Eta" unicode="&#x397;" horiz-adv-x="1536" 
d="M215 0v1434h154v-635h798v635h154v-1434h-154v655h-798v-655h-154z" />
    <glyph glyph-name="Theta" unicode="&#x398;" horiz-adv-x="1720" 
d="M123 717q0 151 58 287.5t156.5 235t235 156.5t287.5 58t287.5 -58t235 -156.5t156.5 -235t58 -287.5t-58 -287.5t-156.5 -235t-235 -156.5t-287.5 -58t-287.5 58t-235 156.5t-156.5 235t-58 287.5zM860 123q162 0 296 77.5t211 214t77 302.5t-77 302.5t-211 214
t-296 77.5t-296 -77.5t-211 -214t-77 -302.5t77 -302.5t211 -214t296 -77.5zM440 655v144h840v-144h-840z" />
    <glyph glyph-name="Iota" unicode="&#x399;" horiz-adv-x="583" 
d="M215 0v1434h154v-1434h-154z" />
    <glyph glyph-name="Kappa" unicode="&#x39a;" horiz-adv-x="1372" 
d="M215 0v1434h154v-809l737 809h194l-542 -594l594 -840h-185l-512 727l-286 -307v-420h-154z" />
    <glyph glyph-name="Lambda" unicode="&#x39b;" horiz-adv-x="1392" 
d="M41 0l584 1434h143l584 -1434h-164l-492 1219l-491 -1219h-164z" />
    <glyph glyph-name="Mu" unicode="&#x39c;" horiz-adv-x="1884" 
d="M215 0v1434h133l594 -779l594 779h133v-1434h-153v1167l-574 -757l-573 757v-1167h-154z" />
    <glyph glyph-name="Nu" unicode="&#x39d;" horiz-adv-x="1597" 
d="M215 0v1434h133l881 -1158v1158h153v-1434h-133l-880 1157v-1157h-154z" />
    <glyph glyph-name="Xi" unicode="&#x39e;" horiz-adv-x="1351" 
d="M143 0v143h1065v-143h-1065zM174 1290v144h1004v-144h-1004zM297 676v143h758v-143h-758z" />
    <glyph glyph-name="Omicron" unicode="&#x39f;" horiz-adv-x="1720" 
d="M123 717q0 151 58 287.5t156.5 235t235 156.5t287.5 58t287.5 -58t235 -156.5t156.5 -235t58 -287.5t-58 -287.5t-156.5 -235t-235 -156.5t-287.5 -58t-287.5 58t-235 156.5t-156.5 235t-58 287.5zM860 123q162 0 296 77.5t211 214t77 302.5t-77 302.5t-211 214
t-296 77.5t-296 -77.5t-211 -214t-77 -302.5t77 -302.5t211 -214t296 -77.5z" />
    <glyph glyph-name="Pi" unicode="&#x3a0;" horiz-adv-x="1536" 
d="M215 0v1434h1106v-1434h-154v1290h-798v-1290h-154z" />
    <glyph glyph-name="Rho" unicode="&#x3a1;" horiz-adv-x="1331" 
d="M215 0v1434h543q198 0 329.5 -129.5t131.5 -321.5t-131.5 -321.5t-329.5 -129.5h-389v-532h-154zM369 676h389q140 0 223.5 84t83.5 223t-83.5 223t-223.5 84h-389v-614z" />
    <glyph glyph-name="Sigma" unicode="&#x3a3;" 
d="M123 0v123l471 625l-471 563v123h1014v-144h-809l460 -542l-460 -605h809v-143h-1014z" />
    <glyph glyph-name="Tau" unicode="&#x3a4;" horiz-adv-x="1136" 
d="M492 0v1290h-451v144h1055v-144h-451v-1290h-153z" />
    <glyph glyph-name="Upsilon" unicode="&#x3a5;" horiz-adv-x="1300" 
d="M573 0v502l-532 932h174l430 -768h10l430 768h175l-533 -932v-502h-154z" />
    <glyph glyph-name="Phi" unicode="&#x3a6;" horiz-adv-x="1730" 
d="M788 205v1024q-238 -8 -375 -145t-137 -367t137 -367.5t375 -144.5zM788 -102v163q-144 4 -268 55.5t-211 138t-136.5 206t-49.5 256.5q0 182 84.5 330t236.5 234t344 91v164h154v-164q192 -5 344 -91t237 -234t85 -330t-85 -330.5t-237 -234.5t-344 -91v-163h-154z
M942 1229v-1024q238 7 375 144.5t137 367.5t-137 367t-375 145z" />
    <glyph glyph-name="Chi" unicode="&#x3a7;" horiz-adv-x="1331" 
d="M41 0l532 748l-491 686h184l400 -564l399 564h184l-491 -686l532 -748h-184l-440 625l-441 -625h-184z" />
    <glyph glyph-name="Psi" unicode="&#x3a8;" horiz-adv-x="1648" 
d="M748 0v430q-274 8 -434 180t-160 475v349h153v-349q0 -248 114.5 -376t326.5 -136v861h153v-861q212 8 326 135.5t114 376.5v349h154v-349q0 -303 -160 -475t-434 -180v-430h-153z" />
    <glyph glyph-name="uni03A9" unicode="&#x3a9;" horiz-adv-x="1781" 
d="M215 0v143h256q-144 84 -230.5 242.5t-86.5 331.5q0 151 58 287.5t156.5 235t235 156.5t287.5 58t287.5 -58t235 -156.5t156.5 -235t58 -287.5q0 -173 -86.5 -331.5t-230.5 -242.5h256v-143h-512v143q181 55 300.5 213t119.5 361q0 166 -77 302.5t-211 214t-296 77.5
t-296 -77.5t-211 -214t-77 -302.5q0 -203 119.5 -361t300.5 -213v-143h-512z" />
    <glyph glyph-name="Iotadieresis" unicode="&#x3aa;" horiz-adv-x="583" 
d="M215 0v1434h154v-1434h-154zM10 1751q0 38 27 65t65 27t65.5 -27t27.5 -65t-27.5 -65t-65.5 -27t-65 27t-27 65zM399 1751q0 38 27.5 65t65.5 27t65 -27t27 -65t-27 -65t-65 -27t-65.5 27t-27.5 65z" />
    <glyph glyph-name="Upsilondieresis" unicode="&#x3ab;" horiz-adv-x="1300" 
d="M573 0v502l-532 932h174l430 -768h10l430 768h175l-533 -932v-502h-154zM369 1751q0 38 27 65t65 27t65 -27t27 -65t-27 -65t-65 -27t-65 27t-27 65zM758 1751q0 38 27 65t65 27t65 -27t27 -65t-27 -65t-65 -27t-65 27t-27 65z" />
    <glyph glyph-name="alphatonos" unicode="&#x3ac;" horiz-adv-x="1239" 
d="M1198 123v-133l-16 -6q-20 -4 -45 -4q-130 0 -191 81q-26 36 -35 82q-31 -42 -84 -82q-113 -81 -254 -81q-202 0 -341.5 146t-139.5 366t139.5 366t341.5 146q140 0 254 -82q53 -40 84 -82v143h144v-768q0 -49 25 -75.5t67 -26.5q17 0 37 4zM573 113q132 0 235 110.5
t103 268.5q0 157 -102.5 267.5t-235.5 110.5q-142 0 -239.5 -106.5t-97.5 -271.5t97.5 -272t239.5 -107zM522 1157l154 277h153l-194 -277h-113z" />
    <glyph glyph-name="epsilontonos" unicode="&#x3ad;" horiz-adv-x="942" 
d="M809 225l92 -92q-43 -46 -94 -78q-121 -75 -295 -75q-104 0 -184.5 24.5t-128.5 66t-72.5 94t-24.5 111.5q0 130 97 195q49 30 98 41q-40 14 -78 47q-76 68 -76 178q0 113 96 190t273 77q141 0 244 -58q47 -23 84 -55l-92 -103q-27 24 -60 41q-70 41 -176 41
q-117 0 -171 -38.5t-54 -104.5q0 -65 54.5 -109.5t150.5 -44.5h153v-133h-153q-124 0 -185 -45t-61 -119q0 -68 69.5 -115.5t206.5 -47.5q126 0 213 55q47 26 74 57zM434 1157l154 277h153l-194 -277h-113z" />
    <glyph glyph-name="etatonos" unicode="&#x3ae;" horiz-adv-x="1187" 
d="M164 0v983h143v-143q26 40 78 82q110 82 240 82q178 0 288.5 -114.5t110.5 -305.5v-584h-143v584q0 129 -74.5 207.5t-192.5 78.5q-132 0 -219.5 -90.5t-87.5 -236.5v-543h-143zM543 1157l153 277h154l-195 -277h-112z" />
    <glyph glyph-name="iotatonos" unicode="&#x3af;" horiz-adv-x="604" 
d="M164 266v717h143v-717q0 -153 144 -153q39 0 79 14l33 16v-133q-6 -3 -20.5 -8.5t-18.5 -7.5q-44 -14 -94 -14q-125 0 -195.5 74t-70.5 212zM174 1157l154 277h153l-194 -277h-113z" />
    <glyph glyph-name="upsilondieresistonos" unicode="&#x3b0;" horiz-adv-x="1187" 
d="M307 1290q0 38 27 65t65 27t65.5 -27t27.5 -65t-27.5 -65t-65.5 -27t-65 27t-27 65zM696 1290q0 38 27 65t65 27t65.5 -27t27.5 -65t-27.5 -65t-65.5 -27t-65 27t-27 65zM449 1157l153 277h154l-195 -277h-112zM164 410v573h143v-573q0 -138 77.5 -217.5t209.5 -79.5
t209.5 79.5t77.5 217.5v573h143v-573q0 -192 -119 -311t-311 -119t-311 119t-119 311z" />
    <glyph glyph-name="alpha" unicode="&#x3b1;" horiz-adv-x="1239" 
d="M1198 123v-133l-16 -6q-20 -4 -45 -4q-130 0 -191 81q-26 36 -35 82q-31 -42 -84 -82q-113 -81 -254 -81q-202 0 -341.5 146t-139.5 366t139.5 366t341.5 146q140 0 254 -82q53 -40 84 -82v143h144v-768q0 -49 25 -75.5t67 -26.5q17 0 37 4zM573 113q132 0 235 110.5
t103 268.5q0 157 -102.5 267.5t-235.5 110.5q-142 0 -239.5 -106.5t-97.5 -271.5t97.5 -272t239.5 -107z" />
    <glyph glyph-name="beta" unicode="&#x3b2;" horiz-adv-x="1167" 
d="M174 -430v1495q0 170 111.5 279.5t287.5 109.5q166 0 278 -103.5t112 -244.5q0 -135 -89 -232q-39 -42 -86 -65q75 -24 138 -74q139 -117 139 -305q0 -195 -125.5 -312.5t-345.5 -117.5h-277v-430h-143zM317 133h277q142 0 235 80.5t93 216.5q0 134 -85.5 215.5
t-242.5 81.5h-154v133h113q129 0 197.5 63t68.5 173q0 92 -71 158.5t-175 66.5q-117 0 -186.5 -69.5t-69.5 -186.5v-932z" />
    <glyph glyph-name="gamma" unicode="&#x3b3;" horiz-adv-x="1003" 
d="M430 -430v430l-399 983h153l318 -788l317 788h154l-400 -983v-430h-143z" />
    <glyph glyph-name="delta" unicode="&#x3b4;" horiz-adv-x="1187" 
d="M195 1311v123h737v-123h-389v-11q62 -26 129.5 -73t138.5 -120.5t127 -159.5t91.5 -197.5t35.5 -227.5q0 -241 -138.5 -391.5t-342.5 -150.5q-131 0 -242 64.5t-175.5 175t-64.5 241.5q0 207 133.5 344t327.5 137q103 0 199 -47q39 -20 67 -45h11q-85 166 -267.5 295
t-377.5 166zM584 113q140 0 239 100.5t99 247.5q0 156 -97.5 252t-240.5 96q-147 0 -242.5 -97.5t-95.5 -250.5q0 -147 99 -247.5t239 -100.5z" />
    <glyph glyph-name="epsilon" unicode="&#x3b5;" horiz-adv-x="942" 
d="M809 225l92 -92q-43 -46 -94 -78q-121 -75 -295 -75q-104 0 -184.5 24.5t-128.5 66t-72.5 94t-24.5 111.5q0 130 97 195q49 30 98 41q-40 14 -78 47q-76 68 -76 178q0 113 96 190t273 77q141 0 244 -58q47 -23 84 -55l-92 -103q-27 24 -60 41q-70 41 -176 41
q-117 0 -171 -38.5t-54 -104.5q0 -65 54.5 -109.5t150.5 -44.5h153v-133h-153q-124 0 -185 -45t-61 -119q0 -68 69.5 -115.5t206.5 -47.5q126 0 213 55q47 26 74 57z" />
    <glyph glyph-name="zeta" unicode="&#x3b6;" horiz-adv-x="952" 
d="M850 -307h-143q0 115 34 223q12 43 37 94q-8 -3 -26.5 -8.5t-24.5 -7.5q-58 -14 -143 -14q-221 0 -346 113t-125 306q0 163 82 324.5t208 302.5q128 146 293 274h-532v134h737v-134q-165 -120 -323 -278q-138 -138 -230 -296.5t-92 -305.5q0 -149 85 -228t253 -79
q122 0 203 24q22 5 73 27l82 -103q-38 -74 -51 -110q-51 -128 -51 -258z" />
    <glyph glyph-name="eta" unicode="&#x3b7;" horiz-adv-x="1187" 
d="M164 0v983h143v-143q26 40 78 82q110 82 240 82q178 0 288.5 -114.5t110.5 -305.5v-584h-143v584q0 129 -74.5 207.5t-192.5 78.5q-132 0 -219.5 -90.5t-87.5 -236.5v-543h-143z" />
    <glyph glyph-name="theta" unicode="&#x3b8;" horiz-adv-x="1249" 
d="M625 -20q-78 0 -149.5 28t-134 88t-109 145.5t-73 207.5t-26.5 268t26.5 268t73 207.5t109 145.5t134 88t149.5 28q98 0 185 -46t156 -134t109.5 -232t40.5 -325t-40.5 -325t-109.5 -232t-156 -134t-185 -46zM276 778h695q-7 272 -102 407.5t-244 135.5q-71 0 -131.5 -32
t-108.5 -96.5t-76.5 -170.5t-32.5 -244zM971 645h-692q6 -140 36.5 -245.5t78.5 -166.5t106 -90.5t125 -29.5t125 29.5t106 90.5t78.5 166.5t36.5 245.5z" />
    <glyph glyph-name="iota" unicode="&#x3b9;" horiz-adv-x="604" 
d="M164 266v717h143v-717q0 -153 144 -153q39 0 79 14l33 16v-133q-6 -3 -20.5 -8.5t-18.5 -7.5q-44 -14 -94 -14q-125 0 -195.5 74t-70.5 212z" />
    <glyph glyph-name="kappa" unicode="&#x3ba;" horiz-adv-x="1034" 
d="M164 0v983h143v-522l492 522h174l-379 -399l420 -584h-164l-348 481l-195 -205v-276h-143z" />
    <glyph glyph-name="lambda" unicode="&#x3bb;" horiz-adv-x="1024" 
d="M51 0l410 983l-82 205q-29 75 -68 104t-96 29q-38 0 -65 -10q-2 -1 -12 -5.5t-15 -5.5v134l35 10q38 10 88 10q100 0 162.5 -52.5t113.5 -182.5l471 -1219h-153l-308 799l-331 -799h-150z" />
    <glyph glyph-name="uni03BC" unicode="&#x3bc;" horiz-adv-x="1187" 
d="M164 -430v1413h143v-584q0 -129 74 -207.5t192 -78.5q133 0 220.5 90.5t87.5 236.5v543h143v-983h-143v143q-26 -40 -78 -82q-109 -81 -240 -81q-117 0 -192 40q-29 14 -64 41v-491h-143z" />
    <glyph glyph-name="nu" unicode="&#x3bd;" horiz-adv-x="1003" 
d="M430 0l-399 983h153l318 -788l317 788h154l-400 -983h-143z" />
    <glyph glyph-name="xi" unicode="&#x3be;" horiz-adv-x="1064" 
d="M932 -307h-144q0 112 35 223q12 43 37 94q-2 -1 -47 -16q-58 -14 -147 -14q-254 0 -393.5 117.5t-139.5 301.5q0 61 16 114.5t36.5 89.5t55 68.5t56.5 48.5t57.5 32.5t41 18t22.5 7.5q-6 0 -28.5 8.5t-58 31.5t-68 55.5t-56 88.5t-23.5 123q0 158 119.5 263.5
t321.5 105.5q140 0 252 -47q50 -22 75 -45l-82 -113q-24 21 -57 35q-80 37 -188 37q-143 0 -220 -66t-77 -170q0 -105 81 -170t236 -65h133v-143h-133q-172 0 -270.5 -86.5t-98.5 -221.5q0 -129 100.5 -207.5t299.5 -78.5q122 0 203 24q22 5 73 27l82 -103q-38 -74 -51 -110
q-51 -128 -51 -258z" />
    <glyph glyph-name="omicron" unicode="&#x3bf;" horiz-adv-x="1187" 
d="M594 -20q-136 0 -251.5 67.5t-183 185.5t-67.5 259t67.5 259t183 185.5t251.5 67.5t251.5 -67.5t183 -185.5t67.5 -259t-67.5 -259t-183 -185.5t-251.5 -67.5zM594 113q148 0 253 109.5t105 269.5t-105 269t-253 109t-253 -109t-105 -269q0 -159 105.5 -269t252.5 -110z
" />
    <glyph glyph-name="pi" unicode="&#x3c0;" horiz-adv-x="1198" 
d="M164 0v983h870v-983h-143v848h-584v-848h-143z" />
    <glyph glyph-name="rho" unicode="&#x3c1;" 
d="M154 -430v922q0 221 141 366.5t350 145.5t350.5 -145.5t141.5 -366.5t-141.5 -366.5t-350.5 -145.5q-149 0 -262 81q-54 38 -86 82v-573h-143zM645 113q149 0 248.5 106.5t99.5 272.5t-99.5 272t-248.5 106t-248.5 -106t-99.5 -272t99.5 -272.5t248.5 -106.5z" />
    <glyph glyph-name="sigma1" unicode="&#x3c2;" horiz-adv-x="1054" 
d="M840 -307h-144q0 110 35 217q12 39 37 86q-3 -1 -15 -4t-20 -4q-31 -8 -88 -8q-246 0 -399.5 145.5t-153.5 366.5q0 222 143 367t359 145q150 0 268 -62q54 -28 90 -61l-82 -103q-40 28 -73 45q-96 47 -203 47q-155 0 -256.5 -106t-101.5 -272q0 -168 115 -273.5
t315 -105.5q77 0 143 20q34 11 51 21l82 -103q-36 -61 -51 -102q-51 -119 -51 -256z" />
    <glyph glyph-name="sigma" unicode="&#x3c3;" 
d="M594 983h20h594v-133h-286q80 -63 127 -159t47 -210q0 -215 -143.5 -358t-358.5 -143t-358.5 143t-143.5 358t143.5 358.5t358.5 143.5zM594 113q154 0 256 104.5t102 263.5t-102 264t-256 105t-256 -105t-102 -264t102 -263.5t256 -104.5z" />
    <glyph glyph-name="tau" unicode="&#x3c4;" horiz-adv-x="911" 
d="M369 266v584h-338v133h829v-133h-348v-584q0 -153 143 -153q40 0 80 14l33 16v-133q-6 -3 -20.5 -8.5t-18.5 -7.5q-44 -14 -94 -14q-125 0 -195.5 74t-70.5 212z" />
    <glyph glyph-name="upsilon" unicode="&#x3c5;" horiz-adv-x="1187" 
d="M164 410v573h143v-573q0 -138 77.5 -217.5t209.5 -79.5t209.5 79.5t77.5 217.5v573h143v-573q0 -192 -119 -311t-311 -119t-311 119t-119 311z" />
    <glyph glyph-name="phi" unicode="&#x3c6;" horiz-adv-x="1495" 
d="M676 -430v410q-257 7 -415.5 149t-158.5 352q0 178 103 312t256 180l51 -113q-122 -43 -194 -140t-72 -239q0 -164 112 -262.5t318 -105.5v870h143q255 0 414.5 -145t159.5 -357q0 -210 -158.5 -352t-415.5 -149v-410h-143zM819 850v-737q206 7 318 105.5t112 262.5
t-114 266.5t-316 102.5z" />
    <glyph glyph-name="chi" unicode="&#x3c7;" horiz-adv-x="983" 
d="M31 0l368 512l-338 471h175l256 -358l256 358h174l-338 -471l368 -512h-174l-286 399l-287 -399h-174z" />
    <glyph glyph-name="psi" unicode="&#x3c8;" horiz-adv-x="1474" 
d="M666 -430v410q-227 8 -364.5 156.5t-137.5 406.5v440h143v-430q0 -424 359 -440v870h143v-870q358 16 358 440v430h144v-440q0 -258 -137.5 -406.5t-364.5 -156.5v-410h-143z" />
    <glyph glyph-name="omega" unicode="&#x3c9;" horiz-adv-x="1679" 
d="M768 492v163h143v-163q0 -379 246 -379q115 0 185.5 94t70.5 285q0 144 -55 245t-141 156l73 111q120 -63 193 -200t73 -312q0 -243 -110 -377.5t-279 -134.5q-166 0 -260 106q-42 45 -67 109q-24 -62 -68 -109q-94 -106 -260 -106q-169 0 -279 134.5t-110 377.5
q0 175 73 312t193 200l74 -111q-86 -55 -141.5 -156t-55.5 -245q0 -191 70.5 -285t185.5 -94q113 0 179.5 91t66.5 288z" />
    <glyph glyph-name="iotadieresis" unicode="&#x3ca;" horiz-adv-x="604" 
d="M164 266v717h143v-717q0 -153 144 -153q39 0 79 14l33 16v-133q-6 -3 -20.5 -8.5t-18.5 -7.5q-44 -14 -94 -14q-125 0 -195.5 74t-70.5 212zM-51 1290q0 38 27 65t65 27t65 -27t27 -65t-27 -65t-65 -27t-65 27t-27 65zM338 1290q0 38 27 65t65 27t65 -27t27 -65t-27 -65
t-65 -27t-65 27t-27 65z" />
    <glyph glyph-name="upsilondieresis" unicode="&#x3cb;" horiz-adv-x="1187" 
d="M164 410v573h143v-573q0 -138 77.5 -217.5t209.5 -79.5t209.5 79.5t77.5 217.5v573h143v-573q0 -192 -119 -311t-311 -119t-311 119t-119 311zM307 1290q0 38 27 65t65 27t65.5 -27t27.5 -65t-27.5 -65t-65.5 -27t-65 27t-27 65zM696 1290q0 38 27 65t65 27t65.5 -27
t27.5 -65t-27.5 -65t-65.5 -27t-65 27t-27 65z" />
    <glyph glyph-name="omicrontonos" unicode="&#x3cc;" horiz-adv-x="1187" 
d="M532 1157l154 277h154l-195 -277h-113zM594 -20q-136 0 -251.5 67.5t-183 185.5t-67.5 259t67.5 259t183 185.5t251.5 67.5t251.5 -67.5t183 -185.5t67.5 -259t-67.5 -259t-183 -185.5t-251.5 -67.5zM594 113q148 0 253 109.5t105 269.5t-105 269t-253 109t-253 -109
t-105 -269q0 -159 105.5 -269t252.5 -110z" />
    <glyph glyph-name="upsilontonos" unicode="&#x3cd;" horiz-adv-x="1187" 
d="M164 410v573h143v-573q0 -138 77.5 -217.5t209.5 -79.5t209.5 79.5t77.5 217.5v573h143v-573q0 -192 -119 -311t-311 -119t-311 119t-119 311zM522 1157l154 277h153l-194 -277h-113z" />
    <glyph glyph-name="omegatonos" unicode="&#x3ce;" horiz-adv-x="1679" 
d="M768 492v163h143v-163q0 -379 246 -379q115 0 185.5 94t70.5 285q0 144 -55 245t-141 156l73 111q120 -63 193 -200t73 -312q0 -243 -110 -377.5t-279 -134.5q-166 0 -260 106q-42 45 -67 109q-24 -62 -68 -109q-94 -106 -260 -106q-169 0 -279 134.5t-110 377.5
q0 175 73 312t193 200l74 -111q-86 -55 -141.5 -156t-55.5 -245q0 -191 70.5 -285t185.5 -94q113 0 179.5 91t66.5 288zM727 1157l154 277h153l-194 -277h-113z" />
    <glyph glyph-name="uni0400" unicode="&#x400;" horiz-adv-x="1310" 
d="M686 1628l-194 277h153l154 -277h-113zM215 0v1434h983v-144h-829v-471h665v-143h-665v-533h850v-143h-1004z" />
    <glyph glyph-name="uni0401" unicode="&#x401;" horiz-adv-x="1310" 
d="M215 0v1434h983v-144h-829v-471h665v-143h-665v-533h850v-143h-1004zM420 1751q0 38 27 65t65 27t65 -27t27 -65t-27 -65t-65 -27t-65 27t-27 65zM809 1751q0 38 27 65t65 27t65 -27t27 -65t-27 -65t-65 -27t-65 27t-27 65z" />
    <glyph glyph-name="uni0402" unicode="&#x402;" horiz-adv-x="1464" 
d="M369 0v1290h-369v144h891v-144h-369v-491q45 37 107 65q140 68 282 68q195 0 312.5 -125.5t117.5 -345.5q0 -221 -128.5 -351t-342.5 -130v143q149 0 233.5 89t84.5 249q0 151 -82 239t-215 88q-134 0 -264 -81q-64 -41 -105 -82v-625h-153z" />
    <glyph glyph-name="uni0403" unicode="&#x403;" horiz-adv-x="1126" 
d="M215 0v1434h891v-144h-737v-1290h-154zM604 1628l154 277h153l-194 -277h-113z" />
    <glyph glyph-name="uni0404" unicode="&#x404;" horiz-adv-x="1536" 
d="M276 799h758v-144h-758q25 -228 186.5 -380t397.5 -152q209 0 369 123q71 52 123 123l102 -93q-71 -91 -151 -149q-199 -147 -443 -147q-151 0 -287.5 58t-235 156.5t-156.5 235t-58 287.5t58 287.5t156.5 235t235 156.5t287.5 58q241 0 438 -149q86 -67 146 -148
l-103 -92q-52 74 -118 123q-156 123 -363 123q-116 0 -218.5 -39.5t-177.5 -108.5t-124 -163t-64 -201z" />
    <glyph glyph-name="uni0405" unicode="&#x405;" horiz-adv-x="1157" 
d="M92 195l92 104q38 -50 95 -88q118 -88 294 -88q157 0 242.5 73t85.5 193q0 59 -26.5 103t-71.5 72t-103.5 50t-123 40.5t-129 39t-123 51.5t-103.5 71t-71.5 103.5t-26.5 145.5q0 161 127 275t334 114q172 0 313 -92q61 -40 107 -92l-103 -103q-29 34 -80 72
q-113 72 -237 72q-142 0 -225 -72t-83 -174q0 -53 22 -94.5t59 -68.5t87 -49.5t106 -38t115.5 -35t115.5 -38.5t106 -50.5t87 -70.5t59 -98t22 -133q0 -181 -128.5 -295t-353.5 -114q-210 0 -364 106q-69 46 -117 109z" />
    <glyph glyph-name="uni0406" unicode="&#x406;" horiz-adv-x="583" 
d="M215 0v1434h154v-1434h-154z" />
    <glyph glyph-name="uni0407" unicode="&#x407;" horiz-adv-x="583" 
d="M215 0v1434h154v-1434h-154zM10 1751q0 38 27 65t65 27t65.5 -27t27.5 -65t-27.5 -65t-65.5 -27t-65 27t-27 65zM399 1751q0 38 27.5 65t65.5 27t65 -27t27 -65t-27 -65t-65 -27t-65.5 27t-27.5 65z" />
    <glyph glyph-name="uni0408" unicode="&#x408;" horiz-adv-x="1013" 
d="M20 143l103 103q25 -36 61 -62q81 -61 185 -61q131 0 208.5 79t77.5 218v1014h154v-1014q0 -192 -124 -316t-316 -124q-141 0 -258 81q-59 42 -91 82z" />
    <glyph glyph-name="uni0409" unicode="&#x409;" horiz-adv-x="2211" 
d="M-10 0v154q22 -9 37 -11q42 -10 75 -10q36 0 63.5 8.5t56.5 32t50 63.5t40 106t31 156.5t19 217.5t7 287v430h891v-533h368q198 0 329.5 -129.5t131.5 -320.5q0 -192 -131.5 -321.5t-329.5 -129.5h-522v1290h-584v-286q0 -256 -18.5 -440t-50.5 -296.5t-84 -177.5
t-109 -87.5t-137 -22.5q-49 0 -94 10q-22 3 -39 10zM1260 143h368q139 0 223 84t84 224q0 139 -83.5 223t-223.5 84h-368v-615z" />
    <glyph glyph-name="uni040A" unicode="&#x40a;" horiz-adv-x="2211" 
d="M215 0v1434h154v-533h737v533h154v-533h368q198 0 329.5 -129.5t131.5 -320.5q0 -192 -131.5 -321.5t-329.5 -129.5h-522v758h-737v-758h-154zM1260 143h368q139 0 223 84t84 224q0 139 -83.5 223t-223.5 84h-368v-615z" />
    <glyph glyph-name="uni040B" unicode="&#x40b;" horiz-adv-x="1515" 
d="M369 0v1290h-369v144h891v-144h-369v-491q45 37 107 65q140 68 282 68q193 0 311.5 -120.5t118.5 -319.5v-492h-153v492q0 130 -83 213t-214 83q-134 0 -264 -81q-64 -41 -105 -82v-625h-153z" />
    <glyph glyph-name="uni040C" unicode="&#x40c;" horiz-adv-x="1372" 
d="M215 0v1434h154v-809l737 809h194l-542 -594l594 -840h-185l-512 727l-286 -307v-420h-154zM666 1628l153 277h154l-195 -277h-112z" />
    <glyph glyph-name="uni040D" unicode="&#x40d;" horiz-adv-x="1597" 
d="M215 0v1434h154v-1158l880 1158h133v-1434h-153v1157l-881 -1157h-133zM758 1628l-195 277h154l153 -277h-112z" />
    <glyph glyph-name="uni040E" unicode="&#x40e;" horiz-adv-x="1249" 
d="M133 0v143q19 -8 35 -10q42 -10 88 -10q94 0 151.5 44.5t114.5 149.5l62 113q-32 61 -231 433.5t-302 570.5h164l451 -840l389 840h164l-533 -1117q-90 -183 -181 -260t-239 -77q-49 0 -94 10q-22 3 -39 10zM358 1905h113q0 -69 47.5 -116.5t116.5 -47.5t116.5 47.5
t47.5 116.5h112q0 -123 -76.5 -200t-199.5 -77t-200 77t-77 200z" />
    <glyph glyph-name="uni040F" unicode="&#x40f;" horiz-adv-x="1525" 
d="M215 0v1434h154v-1291h788v1291h154v-1434h-471v-307h-154v307h-471z" />
    <glyph glyph-name="uni0410" unicode="&#x410;" horiz-adv-x="1413" 
d="M41 0l594 1434h143l594 -1434h-164l-164 399h-675l-164 -399h-164zM430 543h553l-276 676z" />
    <glyph glyph-name="uni0411" unicode="&#x411;" horiz-adv-x="1341" 
d="M215 0v1434h891v-144h-737v-430h399q190 0 320.5 -125.5t130.5 -304.5t-130.5 -304.5t-320.5 -125.5h-553zM369 143h399q130 0 213.5 81.5t83.5 205.5t-83.5 205.5t-213.5 81.5h-399v-574z" />
    <glyph glyph-name="uni0412" unicode="&#x412;" horiz-adv-x="1361" 
d="M215 0v1434h553q175 0 287 -106.5t112 -262.5q0 -140 -82 -234q-42 -45 -81 -63q61 -29 116 -80q119 -115 119 -278q0 -179 -121.5 -294.5t-318.5 -115.5h-584zM369 831h399q116 0 181 62.5t65 171.5q0 102 -65.5 163.5t-180.5 61.5h-399v-459zM369 143h430
q129 0 207.5 74.5t78.5 192.5q0 119 -79.5 202.5t-206.5 83.5h-430v-553z" />
    <glyph glyph-name="uni0413" unicode="&#x413;" horiz-adv-x="1126" 
d="M215 0v1434h891v-144h-737v-1290h-154z" />
    <glyph glyph-name="uni0414" unicode="&#x414;" horiz-adv-x="1454" 
d="M0 -307v450h82q73 76 127 193q129 281 129 668v430h881v-1291h174v-450h-154v307h-1085v-307h-154zM246 143h819v1147h-573v-286q0 -393 -123 -664q-53 -121 -123 -197z" />
    <glyph glyph-name="uni0415" unicode="&#x415;" horiz-adv-x="1310" 
d="M215 0v1434h983v-144h-829v-471h665v-143h-665v-533h850v-143h-1004z" />
    <glyph glyph-name="uni0416" unicode="&#x416;" horiz-adv-x="1976" 
d="M20 0l594 840l-542 594h194l645 -705v705h154v-705l645 705h195l-543 -594l594 -840h-184l-512 727l-195 -205v-522h-154v522l-194 205l-512 -727h-185z" />
    <glyph glyph-name="uni0417" unicode="&#x417;" horiz-adv-x="1218" 
d="M61 205l103 102q43 -52 104 -92q141 -92 305 -92q169 0 269 81.5t100 194.5q0 121 -99 204t-270 83h-163v143h163q147 0 232.5 69t85.5 167q0 104 -85 175t-233 71q-138 0 -264 -82q-60 -43 -94 -82l-102 102q51 57 118 103q160 102 342 102q216 0 343.5 -109.5
t127.5 -269.5q0 -157 -122 -252q-53 -44 -123 -65q79 -23 147 -72q150 -111 150 -287q0 -80 -37.5 -155.5t-104.5 -134t-166.5 -94t-214.5 -35.5q-210 0 -383 112q-78 51 -129 113z" />
    <glyph glyph-name="uni0418" unicode="&#x418;" horiz-adv-x="1597" 
d="M215 0v1434h154v-1158l880 1158h133v-1434h-153v1157l-881 -1157h-133z" />
    <glyph glyph-name="uni0419" unicode="&#x419;" horiz-adv-x="1597" 
d="M215 0v1434h154v-1158l880 1158h133v-1434h-153v1157l-881 -1157h-133zM522 1905h113q0 -69 47.5 -116.5t116.5 -47.5t116.5 47.5t47.5 116.5h112q0 -123 -76.5 -200t-199.5 -77t-200 77t-77 200z" />
    <glyph glyph-name="uni041A" unicode="&#x41a;" horiz-adv-x="1372" 
d="M215 0v1434h154v-809l737 809h194l-542 -594l594 -840h-185l-512 727l-286 -307v-420h-154z" />
    <glyph glyph-name="uni041B" unicode="&#x41b;" horiz-adv-x="1505" 
d="M-10 0v154q22 -9 37 -11q42 -10 75 -10q36 0 63.5 8.5t56.5 32t50 63.5t40 106t31 156.5t19 217.5t7 287v430h921v-1434h-153v1290h-615v-286q0 -256 -18.5 -440t-50.5 -296.5t-84 -177.5t-109 -87.5t-137 -22.5q-49 0 -94 10q-22 3 -39 10z" />
    <glyph glyph-name="uni041C" unicode="&#x41c;" horiz-adv-x="1884" 
d="M215 0v1434h133l594 -779l594 779h133v-1434h-153v1167l-574 -757l-573 757v-1167h-154z" />
    <glyph glyph-name="uni041D" unicode="&#x41d;" horiz-adv-x="1536" 
d="M215 0v1434h154v-635h798v635h154v-1434h-154v655h-798v-655h-154z" />
    <glyph glyph-name="uni041E" unicode="&#x41e;" horiz-adv-x="1720" 
d="M123 717q0 151 58 287.5t156.5 235t235 156.5t287.5 58t287.5 -58t235 -156.5t156.5 -235t58 -287.5t-58 -287.5t-156.5 -235t-235 -156.5t-287.5 -58t-287.5 58t-235 156.5t-156.5 235t-58 287.5zM860 123q162 0 296 77.5t211 214t77 302.5t-77 302.5t-211 214
t-296 77.5t-296 -77.5t-211 -214t-77 -302.5t77 -302.5t211 -214t296 -77.5z" />
    <glyph glyph-name="uni041F" unicode="&#x41f;" horiz-adv-x="1536" 
d="M215 0v1434h1106v-1434h-154v1290h-798v-1290h-154z" />
    <glyph glyph-name="uni0420" unicode="&#x420;" horiz-adv-x="1331" 
d="M215 0v1434h543q198 0 329.5 -129.5t131.5 -321.5t-131.5 -321.5t-329.5 -129.5h-389v-532h-154zM369 676h389q140 0 223.5 84t83.5 223t-83.5 223t-223.5 84h-389v-614z" />
    <glyph glyph-name="uni0421" unicode="&#x421;" horiz-adv-x="1536" 
d="M1352 369l102 -93q-71 -91 -151 -149q-199 -147 -443 -147q-151 0 -287.5 58t-235 156.5t-156.5 235t-58 287.5t58 287.5t156.5 235t235 156.5t287.5 58q241 0 438 -149q86 -67 146 -148l-103 -92q-52 74 -118 123q-156 123 -363 123q-162 0 -296 -77.5t-211 -214
t-77 -302.5t77 -302.5t211 -214t296 -77.5q209 0 369 123q71 52 123 123z" />
    <glyph glyph-name="uni0422" unicode="&#x422;" horiz-adv-x="1136" 
d="M492 0v1290h-451v144h1055v-144h-451v-1290h-153z" />
    <glyph glyph-name="uni0423" unicode="&#x423;" horiz-adv-x="1249" 
d="M133 0v143q19 -8 35 -10q42 -10 88 -10q94 0 151.5 44.5t114.5 149.5l62 113q-32 61 -231 433.5t-302 570.5h164l451 -840l389 840h164l-533 -1117q-90 -183 -181 -260t-239 -77q-49 0 -94 10q-22 3 -39 10z" />
    <glyph glyph-name="uni0424" unicode="&#x424;" horiz-adv-x="1730" 
d="M788 -41v195q-154 4 -282 51t-213.5 125.5t-132.5 183t-47 223.5t47 223.5t132.5 183.5t213.5 126t282 51v154h154v-154q154 -4 282 -51t214 -126t133 -183.5t47 -223.5t-47 -223.5t-133 -183t-214 -125.5t-282 -51v-195h-154zM788 297v881q-247 -7 -384.5 -129
t-137.5 -312t137.5 -311.5t384.5 -128.5zM942 1178v-881q247 7 384.5 128.5t137.5 311.5t-137.5 312t-384.5 129z" />
    <glyph glyph-name="uni0425" unicode="&#x425;" horiz-adv-x="1331" 
d="M41 0l532 748l-491 686h184l400 -564l399 564h184l-491 -686l532 -748h-184l-440 625l-441 -625h-184z" />
    <glyph glyph-name="uni0426" unicode="&#x426;" horiz-adv-x="1546" 
d="M215 0v1434h154v-1291h778v1291h153v-1291h185v-450h-154v307h-1116z" />
    <glyph glyph-name="uni0427" unicode="&#x427;" horiz-adv-x="1443" 
d="M1075 0v625q-47 -35 -106 -62q-134 -61 -283 -61q-226 0 -358.5 134.5t-132.5 367.5v430h153v-430q0 -173 94 -266t265 -93q149 0 272 76q55 35 96 78v635h154v-1434h-154z" />
    <glyph glyph-name="uni0428" unicode="&#x428;" horiz-adv-x="2078" 
d="M215 0v1434h154v-1291h594v1291h153v-1291h594v1291h154v-1434h-1649z" />
    <glyph glyph-name="uni0429" unicode="&#x429;" horiz-adv-x="2109" 
d="M215 0v1434h154v-1291h594v1291h153v-1291h594v1291h154v-1291h184v-450h-154v307h-1679z" />
    <glyph glyph-name="uni042A" unicode="&#x42a;" horiz-adv-x="1454" 
d="M348 0v1290h-348v144h502v-533h368q198 0 329.5 -129.5t131.5 -320.5q0 -192 -131.5 -321.5t-329.5 -129.5h-522zM502 143h368q140 0 224 84.5t84 223.5t-84 223t-224 84h-368v-615z" />
    <glyph glyph-name="uni042B" unicode="&#x42b;" horiz-adv-x="1812" 
d="M215 0v1434h154v-533h368q198 0 329.5 -129.5t131.5 -320.5q0 -192 -131.5 -321.5t-329.5 -129.5h-522zM1444 0v1434h153v-1434h-153zM369 143h368q139 0 223 84t84 224q0 139 -84 223t-223 84h-368v-615z" />
    <glyph glyph-name="uni042C" unicode="&#x42c;" horiz-adv-x="1341" 
d="M215 0v1434h154v-533h389q198 0 329.5 -129.5t131.5 -320.5q0 -192 -131.5 -321.5t-329.5 -129.5h-543zM369 143h389q139 0 223 84t84 224q0 139 -83.5 223t-223.5 84h-389v-615z" />
    <glyph glyph-name="uni042D" unicode="&#x42d;" horiz-adv-x="1525" 
d="M72 276l102 93q52 -71 123 -123q160 -123 369 -123q233 0 395.5 152.5t187.5 379.5h-757v144h757q-33 222 -191.5 367t-391.5 145q-207 0 -363 -123q-68 -51 -119 -123l-102 92q59 83 145 148q193 149 439 149q151 0 287.5 -58t235 -156.5t156.5 -235t58 -287.5
t-58 -287.5t-156.5 -235t-235 -156.5t-287.5 -58q-244 0 -443 147q-80 58 -151 149z" />
    <glyph glyph-name="uni042E" unicode="&#x42e;" horiz-adv-x="2160" 
d="M215 0v1434h154v-635h276q14 133 74 253t150.5 209t213.5 141t258 52q140 0 268.5 -56.5t222.5 -154t150 -235t56 -291.5t-56 -291.5t-150 -235t-222.5 -154t-268.5 -56.5q-136 0 -259.5 52.5t-215 142.5t-150.5 215t-71 265h-276v-655h-154zM1341 123q110 0 210 44.5
t173 121.5t116.5 188.5t43.5 239.5t-43.5 239.5t-116.5 188.5t-173 121.5t-210 44.5t-209.5 -44.5t-173 -121.5t-116.5 -188.5t-43 -239.5t43 -239.5t116.5 -188.5t173 -121.5t209.5 -44.5z" />
    <glyph glyph-name="uni042F" unicode="&#x42f;" horiz-adv-x="1372" 
d="M102 0l338 594q-81 26 -149 82q-148 126 -148 328q0 185 125 307.5t316 122.5h573v-1434h-153v573h-410l-318 -573h-174zM584 717h420v573h-420q-131 0 -209 -78t-78 -208t78.5 -208.5t208.5 -78.5z" />
    <glyph glyph-name="uni0430" unicode="&#x430;" horiz-adv-x="1064" 
d="M758 0v133q-28 -41 -78 -78q-106 -75 -240 -75q-149 0 -248.5 87t-99.5 199q0 123 73.5 198.5t213.5 98.5l379 62q0 109 -68.5 177t-177.5 68q-108 0 -203 -71q-43 -36 -73 -72l-93 92q37 49 97 92q125 93 272 93q168 0 278.5 -108.5t110.5 -270.5v-625h-143zM758 440v62
l-338 -62q-184 -34 -184 -174q0 -65 54 -109t150 -44q140 0 229 90t89 237z" />
    <glyph glyph-name="uni0431" unicode="&#x431;" horiz-adv-x="1198" 
d="M963 1495l71 -113q-29 -23 -80 -43q-110 -51 -309 -90q-164 -34 -263 -154t-106 -327q36 54 86 96q115 99 263 99q126 0 234 -65t172.5 -178.5t64.5 -248.5q0 -206 -141 -348.5t-341 -142.5q-105 0 -193.5 40.5t-155.5 118t-104.5 199.5t-37.5 276q0 147 25 267t69 205.5
t107.5 147.5t138 97.5t162.5 50.5q159 30 260 72q55 25 78 41zM614 113q141 0 239.5 103t98.5 255t-98.5 255t-239.5 103t-239.5 -103t-98.5 -255t98.5 -255t239.5 -103z" />
    <glyph glyph-name="uni0432" unicode="&#x432;" horiz-adv-x="1054" 
d="M164 0v983h450q136 0 216.5 -72t80.5 -184q0 -91 -61 -156q-29 -29 -62 -49q43 -14 82 -45q82 -70 82 -190q0 -133 -83 -210t-234 -77h-471zM307 584h307q76 0 115 35t39 98t-39 98t-115 35h-307v-266zM307 133h328q85 0 129.5 42.5t44.5 121.5t-44.5 121.5t-129.5 42.5
h-328v-328z" />
    <glyph glyph-name="uni0433" unicode="&#x433;" horiz-adv-x="839" 
d="M164 0v983h655v-133h-512v-850h-143z" />
    <glyph glyph-name="uni0434" unicode="&#x434;" horiz-adv-x="1136" 
d="M0 -246v379h72q48 50 86 135q88 188 88 428v287h676v-850h153v-379h-143v246h-789v-246h-143zM225 133h553v717h-389v-154q0 -232 -82 -424q-38 -84 -82 -139z" />
    <glyph glyph-name="uni0435" unicode="&#x435;" horiz-adv-x="1136" 
d="M901 276l92 -92q-40 -53 -104 -102q-144 -102 -305 -102q-99 0 -189.5 40t-157 108t-106 163.5t-39.5 200.5q0 140 66.5 258.5t177 186t237.5 67.5q202 0 336.5 -139t134.5 -353q0 -11 -6 -53l-4 -21l-798 2q8 -132 109 -229.5t239 -97.5q125 0 235 82q55 44 82 81z
M236 563h665q-18 133 -108.5 220t-219.5 87t-224 -90t-113 -217z" />
    <glyph glyph-name="uni0436" unicode="&#x436;" horiz-adv-x="1495" 
d="M20 0l420 584l-379 399h175l440 -471v471h143v-471l441 471h174l-379 -399l420 -584h-164l-348 481l-144 -153v-328h-143v328l-144 153l-348 -481h-164z" />
    <glyph glyph-name="uni0437" unicode="&#x437;" horiz-adv-x="901" 
d="M51 154l92 92q37 -43 74 -68q93 -65 203 -65q118 0 176.5 45t58.5 118t-59 118.5t-176 45.5h-113v133h113q89 0 141.5 45t52.5 109q0 65 -49 104t-145 39q-101 0 -180 -57q-39 -25 -66 -55l-102 102q30 33 90 72q121 72 258 72q148 0 243 -83t95 -194q0 -112 -78 -174
q-38 -30 -76 -41q47 -11 96 -41q99 -67 99 -195q0 -124 -99 -210t-280 -86q-151 0 -277 86q-54 38 -92 88z" />
    <glyph glyph-name="uni0438" unicode="&#x438;" horiz-adv-x="1187" 
d="M164 0v983h143v-737l594 737h123v-983h-143v737l-594 -737h-123z" />
    <glyph glyph-name="uni0439" unicode="&#x439;" horiz-adv-x="1187" 
d="M317 1434h113q0 -85 42.5 -129.5t121.5 -44.5t121.5 44.5t42.5 129.5h112q0 -123 -76.5 -200t-199.5 -77t-200 77t-77 200zM164 0v983h143v-737l594 737h123v-983h-143v737l-594 -737h-123z" />
    <glyph glyph-name="uni043A" unicode="&#x43a;" horiz-adv-x="1034" 
d="M164 0v983h143v-522l492 522h174l-379 -399l420 -584h-164l-348 481l-195 -205v-276h-143z" />
    <glyph glyph-name="uni043B" unicode="&#x43b;" horiz-adv-x="1146" 
d="M0 0v143q11 -7 25 -10q27 -10 57 -10q37 0 63 11.5t50.5 46.5t39 97t23 166.5t8.5 251.5v287h717v-983h-143v850h-430v-154q0 -175 -15 -302.5t-40 -206.5t-65.5 -126t-84.5 -64t-103 -17q-38 0 -71 10q-12 2 -31 10z" />
    <glyph glyph-name="uni043C" unicode="&#x43c;" horiz-adv-x="1331" 
d="M164 0v983h112l390 -491l389 491h112v-983h-143v727l-358 -451l-359 451v-727h-143z" />
    <glyph glyph-name="uni043D" unicode="&#x43d;" horiz-adv-x="1177" 
d="M164 0v983h143v-420h563v420h144v-983h-144v430h-563v-430h-143z" />
    <glyph glyph-name="uni043E" unicode="&#x43e;" horiz-adv-x="1187" 
d="M594 -20q-136 0 -251.5 67.5t-183 185.5t-67.5 259t67.5 259t183 185.5t251.5 67.5t251.5 -67.5t183 -185.5t67.5 -259t-67.5 -259t-183 -185.5t-251.5 -67.5zM594 113q148 0 253 109.5t105 269.5t-105 269t-253 109t-253 -109t-105 -269q0 -159 105.5 -269t252.5 -110z
" />
    <glyph glyph-name="uni043F" unicode="&#x43f;" horiz-adv-x="1177" 
d="M164 0v983h850v-983h-144v848h-563v-848h-143z" />
    <glyph glyph-name="uni0440" unicode="&#x440;" horiz-adv-x="1218" 
d="M164 -430v1413h143v-143q35 47 84 82q110 82 254 82q202 0 341.5 -146t139.5 -366t-139.5 -366t-341.5 -146q-145 0 -254 81q-49 35 -84 82v-573h-143zM645 113q142 0 240 107t98 272t-98 271.5t-240 106.5q-133 0 -235.5 -110.5t-102.5 -267.5q0 -158 103 -268.5
t235 -110.5z" />
    <glyph glyph-name="uni0441" unicode="&#x441;" horiz-adv-x="1054" 
d="M891 276l102 -92q-41 -51 -108 -102q-144 -102 -301 -102q-99 0 -189.5 40t-157 108t-106 163.5t-39.5 200.5t39.5 200.5t106 163.5t157 108t189.5 40q158 0 295 -99q56 -41 104 -96l-102 -102q-32 43 -76 81q-98 82 -221 82q-140 0 -244 -109.5t-104 -268.5t104 -269
t244 -110q117 0 227 82q50 40 80 81z" />
    <glyph glyph-name="uni0442" unicode="&#x442;" horiz-adv-x="921" 
d="M389 0v850h-348v133h840v-133h-349v-850h-143z" />
    <glyph glyph-name="uni0443" unicode="&#x443;" horiz-adv-x="1003" 
d="M92 -410v134q22 -9 33 -11q33 -10 70 -10q68 0 111 37t73 117l51 143l-399 983h153l318 -799l317 799h154l-451 -1126q-62 -155 -132 -221t-175 -66q-46 0 -88 10q-16 2 -35 10z" />
    <glyph glyph-name="uni0444" unicode="&#x444;" horiz-adv-x="1454" 
d="M655 -430v410q-248 0 -405.5 146.5t-157.5 365.5t157.5 365.5t405.5 146.5v430h144v-430q248 0 405.5 -146.5t157.5 -365.5t-157.5 -365.5t-405.5 -146.5v-410h-144zM655 113v757q-189 0 -304 -107t-115 -271q0 -167 114.5 -273t304.5 -106zM799 870v-757
q190 0 305 106.5t115 272.5q0 164 -115.5 271t-304.5 107z" />
    <glyph glyph-name="uni0445" unicode="&#x445;" horiz-adv-x="983" 
d="M31 0l368 512l-338 471h175l256 -358l256 358h174l-338 -471l368 -512h-174l-286 399l-287 -399h-174z" />
    <glyph glyph-name="uni0446" unicode="&#x446;" horiz-adv-x="1208" 
d="M164 0v983h143v-850h543v850h143v-850h154v-379h-143v246h-840z" />
    <glyph glyph-name="uni0447" unicode="&#x447;" horiz-adv-x="1105" 
d="M799 0v399q-45 -27 -78 -41q-87 -41 -199 -41q-167 0 -273 106t-106 273v287h144v-287q0 -109 68 -177t177 -68q103 0 195 45q35 18 72 47v440h143v-983h-143z" />
    <glyph glyph-name="uni0448" unicode="&#x448;" horiz-adv-x="1597" 
d="M164 0v983h143v-850h420v850h145v-850h418v850h144v-983h-1270z" />
    <glyph glyph-name="uni0449" unicode="&#x449;" horiz-adv-x="1648" 
d="M164 0v983h143v-850h420v850h145v-850h418v850h144v-850h153v-379h-143v246h-1280z" />
    <glyph glyph-name="uni044A" unicode="&#x44a;" horiz-adv-x="1095" 
d="M256 0v850h-256v133h399v-328h246q168 0 263.5 -88.5t95.5 -238.5q0 -149 -95.5 -238.5t-261.5 -89.5h-391zM399 133h248q97 0 155 54t58 141t-58 140.5t-157 53.5h-246v-389z" />
    <glyph glyph-name="uni044B" unicode="&#x44b;" horiz-adv-x="1402" 
d="M164 0v983h143v-328h246q168 0 263 -88.5t95 -238.5q0 -149 -95 -238.5t-261 -89.5h-391zM1096 0v983h143v-983h-143zM307 133h248q97 0 155 54t58 141t-58 140.5t-157 53.5h-246v-389z" />
    <glyph glyph-name="uni044C" unicode="&#x44c;" horiz-adv-x="1013" 
d="M164 0v983h143v-328h256q168 0 263.5 -88.5t95.5 -238.5q0 -149 -95.5 -238.5t-261.5 -89.5h-401zM307 133h258q97 0 155 54t58 141t-58 140.5t-157 53.5h-256v-389z" />
    <glyph glyph-name="uni044D" unicode="&#x44d;" horiz-adv-x="1044" 
d="M51 184l103 92q32 -43 79 -81q110 -82 228 -82q128 0 229 97t119 230h-492v133h482q-18 119 -114 208t-224 89q-123 0 -221 -82q-44 -38 -76 -81l-103 102q47 53 105 96q137 99 295 99q132 0 245 -67.5t179.5 -185.5t66.5 -259t-66.5 -259t-179.5 -185.5t-245 -67.5
q-157 0 -301 102q-70 53 -109 102z" />
    <glyph glyph-name="uni044E" unicode="&#x44e;" horiz-adv-x="1597" 
d="M164 0v983h143v-420h215q17 118 84 218.5t175.5 161.5t232.5 61q132 0 245 -67.5t179.5 -185.5t66.5 -259t-66.5 -259t-179.5 -185.5t-245 -67.5q-189 0 -328 131t-164 319h-215v-430h-143zM1014 113q140 0 244 110t104 269t-104 268.5t-244 109.5t-244 -109.5
t-104 -268.5t104 -269t244 -110z" />
    <glyph glyph-name="uni044F" unicode="&#x44f;" horiz-adv-x="1044" 
d="M82 0l225 358q-53 16 -102 56q-103 87 -103 241q0 140 100 234t259 94h420v-983h-144v328h-286l-205 -328h-164zM461 461h276v389h-276q-99 0 -157 -54t-58 -141t58 -140.5t157 -53.5z" />
    <glyph glyph-name="uni0450" unicode="&#x450;" horiz-adv-x="1136" 
d="M512 1157l-195 277h154l154 -277h-113zM901 276l92 -92q-40 -53 -104 -102q-144 -102 -305 -102q-99 0 -189.5 40t-157 108t-106 163.5t-39.5 200.5q0 140 66.5 258.5t177 186t237.5 67.5q202 0 336.5 -139t134.5 -353q0 -11 -6 -53l-4 -21l-798 2q8 -132 109 -229.5
t239 -97.5q125 0 235 82q55 44 82 81zM236 563h665q-18 133 -108.5 220t-219.5 87t-224 -90t-113 -217z" />
    <glyph glyph-name="uni0451" unicode="&#x451;" horiz-adv-x="1136" 
d="M901 276l92 -92q-40 -53 -104 -102q-144 -102 -305 -102q-99 0 -189.5 40t-157 108t-106 163.5t-39.5 200.5q0 140 66.5 258.5t177 186t237.5 67.5q202 0 336.5 -139t134.5 -353q0 -11 -6 -53l-4 -21l-798 2q8 -132 109 -229.5t239 -97.5q125 0 235 82q55 44 82 81z
M236 563h665q-18 133 -108.5 220t-219.5 87t-224 -90t-113 -217zM287 1290q0 38 27 65t65 27t65 -27t27 -65t-27 -65t-65 -27t-65 27t-27 65zM676 1290q0 38 27 65t65 27t65 -27t27 -65t-27 -65t-65 -27t-65 27t-27 65z" />
    <glyph glyph-name="uni0452" unicode="&#x452;" horiz-adv-x="1187" 
d="M195 0v1116h-175v133h175v185h143v-185h287v-133h-287v-338q26 40 78 82q110 82 239 82q180 0 300 -130.5t120 -340.5q0 -219 -128 -355t-322 -136v133q134 0 220.5 97t86.5 261q0 150 -84 244t-203 94q-132 0 -219.5 -91t-87.5 -237v-481h-143z" />
    <glyph glyph-name="uni0453" unicode="&#x453;" horiz-adv-x="839" 
d="M164 0v983h655v-133h-512v-850h-143zM420 1157l153 277h154l-195 -277h-112z" />
    <glyph glyph-name="uni0454" unicode="&#x454;" horiz-adv-x="1054" 
d="M246 573h481v-133h-491q18 -133 119 -230t229 -97q117 0 227 82q50 40 80 81l102 -92q-41 -51 -108 -102q-144 -102 -301 -102q-99 0 -189.5 40t-157 108t-106 163.5t-39.5 200.5t39.5 200.5t106 163.5t157 108t189.5 40q158 0 295 -99q56 -41 104 -96l-102 -102
q-32 43 -76 81q-98 82 -221 82q-128 0 -224 -89t-114 -208z" />
    <glyph glyph-name="uni0455" unicode="&#x455;" horiz-adv-x="880" 
d="M72 154l102 102q27 -41 66 -72q78 -71 190 -71q105 0 160 45.5t55 117.5q0 45 -29.5 77.5t-76.5 51.5t-103.5 36t-113 38t-103.5 49.5t-76.5 79t-29.5 119.5q0 110 92 193.5t235 83.5q123 0 236 -68q46 -27 82 -66l-103 -102q-24 31 -53 51q-80 51 -162 51
q-81 0 -132.5 -43t-51.5 -100q0 -43 29.5 -74t76.5 -49t103.5 -34.5t113 -38t103.5 -51t76.5 -81.5t29.5 -123q0 -127 -97.5 -211.5t-260.5 -84.5q-154 0 -272 86q-53 38 -86 88z" />
    <glyph glyph-name="uni0456" unicode="&#x456;" horiz-adv-x="471" 
d="M143 1311q0 38 27.5 65t65.5 27t65 -27t27 -65t-27 -65t-65 -27t-65.5 27t-27.5 65zM164 0v983h143v-983h-143z" />
    <glyph glyph-name="uni0457" unicode="&#x457;" horiz-adv-x="471" 
d="M164 0v983h143v-983h-143zM-51 1290q0 38 27 65t65 27t65 -27t27 -65t-27 -65t-65 -27t-65 27t-27 65zM338 1290q0 38 27 65t65 27t65 -27t27 -65t-27 -65t-65 -27t-65 27t-27 65z" />
    <glyph glyph-name="uni0458" unicode="&#x458;" horiz-adv-x="471" 
d="M143 1311q0 38 27.5 65t65.5 27t65 -27t27 -65t-27 -65t-65 -27t-65.5 27t-27.5 65zM-82 -399v133l33 -17q32 -14 80 -14q63 0 98 39t35 115v1126h143v-1126q0 -287 -266 -287q-48 0 -88 14q-23 10 -35 17z" />
    <glyph glyph-name="uni0459" unicode="&#x459;" horiz-adv-x="1648" 
d="M0 0v143q11 -7 25 -10q27 -10 57 -10q37 0 63 11.5t50.5 46.5t39 97t23 166.5t8.5 251.5v287h686v-369h246q175 0 266.5 -82t91.5 -225t-91.5 -225t-264.5 -82h-391v850h-399v-154q0 -175 -15 -302.5t-40 -206.5t-65.5 -126t-84.5 -64t-103 -17q-38 0 -71 10
q-12 2 -31 10zM952 133h248q103 0 158 47t55 127q0 81 -54.5 127.5t-160.5 46.5h-246v-348z" />
    <glyph glyph-name="uni045A" unicode="&#x45a;" horiz-adv-x="1669" 
d="M164 0v983h143v-369h522v369h144v-369h246q175 0 266.5 -82t91.5 -225t-91.5 -225t-264.5 -82h-392v481h-522v-481h-143zM973 133h248q103 0 158 47t55 127q0 81 -54.5 127.5t-160.5 46.5h-246v-348z" />
    <glyph glyph-name="uni045B" unicode="&#x45b;" horiz-adv-x="1218" 
d="M195 0v1116h-175v133h175v185h143v-185h287v-133h-287v-338q26 40 78 82q110 82 239 82q178 0 289 -114.5t111 -305.5v-522h-144v522q0 129 -74 208t-192 79q-132 0 -219.5 -91t-87.5 -237v-481h-143z" />
    <glyph glyph-name="uni045C" unicode="&#x45c;" horiz-adv-x="1034" 
d="M164 0v983h143v-522l492 522h174l-379 -399l420 -584h-164l-348 481l-195 -205v-276h-143zM481 1157l154 277h153l-194 -277h-113z" />
    <glyph glyph-name="uni045D" unicode="&#x45d;" horiz-adv-x="1187" 
d="M164 0v983h143v-737l594 737h123v-983h-143v737l-594 -737h-123zM563 1157l-194 277h153l154 -277h-113z" />
    <glyph glyph-name="uni045E" unicode="&#x45e;" horiz-adv-x="1003" 
d="M92 -410v134q22 -9 33 -11q33 -10 70 -10q68 0 111 37t73 117l51 143l-399 983h153l318 -799l317 799h154l-451 -1126q-62 -155 -132 -221t-175 -66q-46 0 -88 10q-16 2 -35 10zM225 1434h113q0 -85 42.5 -129.5t121.5 -44.5t121.5 44.5t42.5 129.5h112
q0 -123 -76.5 -200t-199.5 -77t-200 77t-77 200z" />
    <glyph glyph-name="uni045F" unicode="&#x45f;" horiz-adv-x="1167" 
d="M164 0v983h143v-850h553v850h144v-983h-349v-246h-143v246h-348z" />
    <glyph glyph-name="uni0462" unicode="&#x462;" horiz-adv-x="1413" 
d="M307 0v1075h-307v144h307v215h154v-215h389v-144h-389v-235h379q205 0 327.5 -116.5t122.5 -303.5t-122.5 -303.5t-327.5 -116.5h-533zM461 143h379q146 0 221.5 72.5t75.5 204.5t-75.5 204t-221.5 72h-379v-553z" />
    <glyph glyph-name="uni0463" unicode="&#x463;" horiz-adv-x="1095" 
d="M256 0v850h-256v133h256v451h143v-451h318v-133h-318v-195h246q168 0 263.5 -88.5t95.5 -238.5q0 -149 -95.5 -238.5t-261.5 -89.5h-391zM399 133h248q97 0 155 54t58 141t-58 140.5t-157 53.5h-246v-389z" />
    <glyph glyph-name="uni046A" unicode="&#x46a;" horiz-adv-x="1628" 
d="M143 0v174q0 274 127.5 440t354.5 205l-451 512v103h1280v-103l-450 -512q227 -39 354 -205t127 -440v-174h-154v174q0 496 -440 512v-686h-154v686q-440 -16 -440 -512v-174h-154zM809 829h10l410 461h-830z" />
    <glyph glyph-name="uni046B" unicode="&#x46b;" horiz-adv-x="1331" 
d="M236 0h-144q0 219 109 359t291 173l-328 349v102h1003v-102l-327 -349q181 -33 290 -173t109 -359h-143q0 404 -359 420v-420h-143v420q-358 -16 -358 -420zM666 532l301 328h-602z" />
    <glyph glyph-name="uni0472" unicode="&#x472;" horiz-adv-x="1720" 
d="M123 717q0 151 58 287.5t156.5 235t235 156.5t287.5 58t287.5 -58t235 -156.5t156.5 -235t58 -287.5t-58 -287.5t-156.5 -235t-235 -156.5t-287.5 -58t-287.5 58t-235 156.5t-156.5 235t-58 287.5zM1444 666q-44 -20 -88 -31q-107 -31 -209 -31q-100 0 -204.5 20.5
t-199.5 41t-170 20.5q-118 0 -219 -33q-48 -16 -71 -32q33 -217 192 -357.5t385 -140.5q230 0 394.5 152.5t189.5 390.5zM1438 813q-33 217 -192.5 357.5t-385.5 140.5q-230 0 -394.5 -152.5t-189.5 -390.5l86 31q118 30 211 30q125 0 307 -40.5t267 -40.5q121 0 219 32
q47 16 72 33z" />
    <glyph glyph-name="uni0473" unicode="&#x473;" horiz-adv-x="1187" 
d="M594 -20q-136 0 -251.5 67.5t-183 185.5t-67.5 259t67.5 259t183 185.5t251.5 67.5t251.5 -67.5t183 -185.5t67.5 -259t-67.5 -259t-183 -185.5t-251.5 -67.5zM944 573q-24 129 -125 213t-225 84q-138 0 -239.5 -94t-118.5 -235q15 9 49 20q71 23 125 23q86 0 200.5 -26
t177.5 -26q68 0 121 21q26 11 35 20zM952 442q-15 -11 -49 -22q-65 -21 -125 -21q-86 0 -201 26t-178 26q-67 0 -120 -21q-26 -11 -35 -20q24 -129 125 -213t225 -84q138 0 239.5 94t118.5 235z" />
    <glyph glyph-name="uni0474" unicode="&#x474;" horiz-adv-x="1433" 
d="M614 0l-553 1434h164l461 -1209l350 922q34 88 59.5 138.5t61 92.5t79 59t105.5 17q42 0 80 -10q25 -8 33 -10l-41 -134l-16 5q-30 6 -45 6q-53 0 -83.5 -32t-60.5 -112l-450 -1167h-144z" />
    <glyph glyph-name="uni0475" unicode="&#x475;" horiz-adv-x="1054" 
d="M430 0l-389 983h154l307 -788l225 583q47 123 105.5 174.5t150.5 51.5q41 0 74 -11l28 -10l-41 -123l-14 4q-24 6 -37 6q-46 0 -70.5 -24t-50.5 -88l-299 -758h-143z" />
    <glyph glyph-name="uni048A" unicode="&#x48a;" horiz-adv-x="1607" 
d="M215 0v1434h154v-1158l880 1158h133v-1291h226v-20l-236 -430h-102l102 307h-143v1157l-881 -1157h-133zM522 1905h113q0 -69 47.5 -116.5t116.5 -47.5t116.5 47.5t47.5 116.5h112q0 -123 -76.5 -200t-199.5 -77t-200 77t-77 200z" />
    <glyph glyph-name="uni048B" unicode="&#x48b;" horiz-adv-x="1218" 
d="M164 0v983h143v-737l594 737h123v-850h195v-20l-195 -359h-92l82 246h-133v737l-594 -737h-123zM317 1434h113q0 -85 42.5 -129.5t121.5 -44.5t121.5 44.5t42.5 129.5h112q0 -123 -76.5 -200t-199.5 -77t-200 77t-77 200z" />
    <glyph glyph-name="uni048C" unicode="&#x48c;" horiz-adv-x="1413" 
d="M307 0v1075h-307v144h307v215h154v-215h389v-144h-389v-235h379q205 0 327.5 -116.5t122.5 -303.5t-122.5 -303.5t-327.5 -116.5h-533zM461 143h379q146 0 221.5 72.5t75.5 204.5t-75.5 204t-221.5 72h-379v-553z" />
    <glyph glyph-name="uni048D" unicode="&#x48d;" horiz-adv-x="1095" 
d="M256 0v850h-256v133h256v451h143v-451h318v-133h-318v-195h246q168 0 263.5 -88.5t95.5 -238.5q0 -149 -95.5 -238.5t-261.5 -89.5h-391zM399 133h248q97 0 155 54t58 141t-58 140.5t-157 53.5h-246v-389z" />
    <glyph glyph-name="uni048E" unicode="&#x48e;" horiz-adv-x="1331" 
d="M215 0v1434h543q198 0 329.5 -129.5t131.5 -321.5q0 -125 -59.5 -231t-166.5 -162l113 -160l-123 -82l-133 193l-27 -4q-40 -5 -65 -5h-389v-532h-154zM369 676h385l-109 153l123 82l143 -204q72 40 113 110t41 166q0 139 -83.5 223t-223.5 84h-389v-614z" />
    <glyph glyph-name="uni048F" unicode="&#x48f;" horiz-adv-x="1218" 
d="M164 -430v1413h143v-143q35 47 84 82q110 82 254 82q202 0 341.5 -146t139.5 -366q0 -246 -174 -400l123 -174l-112 -72l-123 174q-14 -6 -60 -20q-78 -20 -135 -20q-145 0 -254 81q-49 35 -84 82v-573h-143zM760 133l-135 195l112 71l135 -192q48 48 79.5 123t31.5 162
q0 165 -98 271.5t-240 106.5q-133 0 -235.5 -110.5t-102.5 -267.5q0 -158 103 -268.5t235 -110.5q46 0 84 10q16 3 31 10z" />
    <glyph glyph-name="uni0490" unicode="&#x490;" horiz-adv-x="1126" 
d="M215 0v1434h748v286h143v-430h-737v-1290h-154z" />
    <glyph glyph-name="uni0491" unicode="&#x491;" horiz-adv-x="839" 
d="M164 0v983h520v246h135v-379h-512v-850h-143z" />
    <glyph glyph-name="uni0492" unicode="&#x492;" horiz-adv-x="1177" 
d="M266 0v655h-205v144h205v635h871v-144h-717v-491h399v-144h-399v-655h-154z" />
    <glyph glyph-name="uni0493" unicode="&#x493;" horiz-adv-x="880" 
d="M205 0v410h-164v133h164v440h655v-133h-512v-307h287v-133h-287v-410h-143z" />
    <glyph glyph-name="uni0494" unicode="&#x494;" horiz-adv-x="1361" 
d="M215 0v1434h891v-144h-737v-583q65 38 100 51q129 51 268 51q232 0 367 -139t135 -383q0 -260 -146 -411.5t-386 -151.5v143q173 0 275.5 111t102.5 309q0 177 -97.5 278t-260.5 101q-146 0 -268 -68q-49 -25 -90 -66v-532h-154z" />
    <glyph glyph-name="uni0495" unicode="&#x495;" horiz-adv-x="1003" 
d="M512 -430v133q130 0 208.5 90t78.5 268q0 165 -73 251.5t-194 86.5q-85 0 -165 -51q-32 -19 -60 -51v-297h-143v983h635v-133h-492v-389q28 21 60 35q78 36 176 36q172 0 285.5 -127t113.5 -344q0 -235 -117 -363t-313 -128z" />
    <glyph glyph-name="uni0496" unicode="&#x496;" horiz-adv-x="1996" 
d="M20 0l594 840l-542 594h194l645 -705v705h154v-705l645 705h195l-543 -594l491 -697h175v-450h-154v307h-102l-512 727l-195 -205v-522h-154v522l-194 205l-512 -727h-185z" />
    <glyph glyph-name="uni0497" unicode="&#x497;" horiz-adv-x="1536" 
d="M20 0l420 584l-379 399h175l440 -471v471h143v-471l441 471h174l-379 -399l323 -451h168v-379h-143v246h-92l-348 481l-144 -153v-328h-143v328l-144 153l-348 -481h-164z" />
    <glyph glyph-name="uni0498" unicode="&#x498;" horiz-adv-x="1218" 
d="M502 -307v291q-179 17 -328 120q-72 52 -113 101l103 102q43 -52 104 -92q141 -92 305 -92q169 0 269 81.5t100 194.5q0 121 -99 204t-270 83h-163v143h163q147 0 232.5 69t85.5 167q0 104 -85 175t-233 71q-138 0 -264 -82q-60 -43 -94 -82l-102 102q51 57 118 103
q160 102 342 102q216 0 343.5 -109.5t127.5 -269.5q0 -157 -122 -252q-53 -44 -123 -65q79 -23 147 -72q150 -111 150 -287q0 -151 -124 -273.5t-317 -139.5v-293h-153z" />
    <glyph glyph-name="uni0499" unicode="&#x499;" horiz-adv-x="901" 
d="M369 -246v230q-129 10 -236 90q-51 42 -82 80l92 92q37 -43 74 -68q93 -65 203 -65q118 0 176.5 45t58.5 118t-59 118.5t-176 45.5h-113v133h113q89 0 141.5 45t52.5 109q0 65 -49 104t-145 39q-101 0 -180 -57q-39 -25 -66 -55l-102 102q30 33 90 72q121 72 258 72
q148 0 243 -83t95 -194q0 -46 -14 -83.5t-31 -59t-42 -38.5t-37.5 -22.5t-26.5 -10.5q-2 -1 -3 -1q6 0 24.5 -5t48.5 -21.5t56.5 -41t46 -69t19.5 -99.5q0 -103 -77 -188.5t-210 -101.5v-232h-143z" />
    <glyph glyph-name="uni049A" unicode="&#x49a;" horiz-adv-x="1392" 
d="M215 0v1434h154v-809l737 809h194l-542 -594l491 -697h174v-450h-153v307h-103l-512 727l-286 -307v-420h-154z" />
    <glyph glyph-name="uni049B" unicode="&#x49b;" horiz-adv-x="1075" 
d="M164 0v983h143v-522l492 522h174l-379 -399l324 -451h167v-379h-143v246h-92l-348 481l-195 -205v-276h-143z" />
    <glyph glyph-name="uni049C" unicode="&#x49c;" horiz-adv-x="1443" 
d="M215 0v1434h154v-635h123v276h143v-276h102l430 635h185l-482 -707l533 -727h-184l-482 655h-102v-276h-143v276h-123v-655h-154z" />
    <glyph glyph-name="uni049D" unicode="&#x49d;" horiz-adv-x="1105" 
d="M164 0v983h143v-430h103v215h122v-215h62l256 430h164l-287 -481l328 -502h-174l-281 430h-68v-205h-122v205h-103v-430h-143z" />
    <glyph glyph-name="uni049E" unicode="&#x49e;" horiz-adv-x="1413" 
d="M276 0v1085h-276v144h276v205h154v-205h256v-144h-256v-450l717 799h194l-532 -594l584 -840h-195l-500 719l-268 -299v-420h-154z" />
    <glyph glyph-name="uni049F" unicode="&#x49f;" horiz-adv-x="1064" 
d="M195 0v1116h-175v133h175v185h143v-185h287v-133h-287v-655l491 522h175l-379 -399l419 -584h-163l-349 481l-194 -205v-276h-143z" />
    <glyph glyph-name="uni04A0" unicode="&#x4a0;" horiz-adv-x="1505" 
d="M369 0v1290h-369v144h522v-799l717 799h195l-533 -594l584 -840h-195l-499 719l-269 -299v-420h-153z" />
    <glyph glyph-name="uni04A1" unicode="&#x4a1;" horiz-adv-x="1075" 
d="M205 0v850h-205v133h348v-522l492 522h174l-379 -399l420 -584h-164l-348 481l-195 -205v-276h-143z" />
    <glyph glyph-name="uni04A2" unicode="&#x4a2;" horiz-adv-x="1556" 
d="M215 0v1434h154v-635h798v635h154v-1291h174v-450h-154v307h-174v655h-798v-655h-154z" />
    <glyph glyph-name="uni04A3" unicode="&#x4a3;" 
d="M164 0v983h143v-420h563v420h144v-850h153v-379h-143v246h-154v430h-563v-430h-143z" />
    <glyph glyph-name="uni04A4" unicode="&#x4a4;" horiz-adv-x="1996" 
d="M215 0v1434h154v-635h757v635h850v-144h-696v-1290h-154v655h-757v-655h-154z" />
    <glyph glyph-name="uni04A5" unicode="&#x4a5;" horiz-adv-x="1484" 
d="M164 0v983h143v-420h533v420h624v-133h-481v-850h-143v430h-533v-430h-143z" />
    <glyph glyph-name="uni04A6" unicode="&#x4a6;" horiz-adv-x="2222" 
d="M215 0v1434h1085v-727q63 37 101 51q129 51 268 51q232 0 367 -139t135 -383q0 -260 -146.5 -411.5t-386.5 -151.5v143q173 0 276 111t103 309q0 177 -97.5 278t-260.5 101q-146 0 -268 -68q-51 -26 -91 -66v-532h-153v1290h-778v-1290h-154z" />
    <glyph glyph-name="uni04A7" unicode="&#x4a7;" horiz-adv-x="1669" 
d="M164 0v983h829v-522q28 21 60 35q78 36 176 36q172 0 285.5 -127t113.5 -344q0 -235 -117 -363t-313 -128v133q130 0 208.5 90t78.5 268q0 165 -72.5 251.5t-193.5 86.5q-86 0 -166 -51q-32 -19 -60 -51v-297h-143v848h-543v-848h-143z" />
    <glyph glyph-name="uni04A8" unicode="&#x4a8;" horiz-adv-x="1710" 
d="M1270 123h82q104 0 184 35q34 14 61 37l62 -123q-26 -26 -70 -47q-96 -45 -237 -45q-102 0 -172 24q-27 7 -64 27q-48 -21 -76 -27q-81 -24 -190 -24q-144 0 -274.5 56.5t-225.5 154t-151 235t-56 291.5q0 160 51.5 296.5t139.5 229t202.5 147.5t241.5 64v-143
q-98 -9 -183.5 -51.5t-152.5 -115t-106 -183t-39 -244.5q0 -128 43.5 -239t118.5 -188.5t179 -122t222 -44.5h92q-84 62 -149 158q-148 212 -148 497q0 131 37.5 241t101 182t146.5 111.5t176 39.5t176 -39.5t146.5 -111.5t101 -182t37.5 -241q0 -282 -154 -497
q-70 -99 -153 -158zM1112 174q92 54 156 133q155 186 155 471q0 205 -88 317.5t-219 112.5t-219 -112.5t-88 -317.5q0 -279 152 -471q63 -77 151 -133z" />
    <glyph glyph-name="uni04A9" unicode="&#x4a9;" 
d="M594 102h31q-43 41 -82 107q-82 144 -82 323q0 174 86.5 276.5t220.5 102.5t220.5 -102.5t86.5 -276.5q0 -179 -82 -323q-39 -66 -82 -107h41q96 0 156 56q31 28 49 57l92 -92q-34 -46 -69 -72q-86 -71 -207 -71q-90 0 -156 20q-34 11 -49 20q-18 -10 -47 -20
q-62 -20 -137 -20q-209 0 -350.5 147t-141.5 375q0 207 120.5 345.5t289.5 156.5v-134q-108 -19 -187 -117t-79 -251q0 -174 102 -287t256 -113zM768 133q44 32 82 86q82 126 82 303q0 123 -48.5 189.5t-115.5 66.5t-115.5 -66.5t-48.5 -189.5q0 -177 82 -303q38 -54 82 -86
z" />
    <glyph glyph-name="uni04AA" unicode="&#x4aa;" horiz-adv-x="1536" 
d="M768 -307v293q-182 21 -329.5 123t-231.5 262t-84 346q0 151 58 287.5t156.5 235t235 156.5t287.5 58q241 0 438 -149q86 -67 146 -148l-103 -92q-52 74 -118 123q-156 123 -363 123q-162 0 -296 -77.5t-211 -214t-77 -302.5t77 -302.5t211 -214t296 -77.5q209 0 369 123
q71 52 123 123l102 -93q-54 -74 -135 -137q-174 -139 -397 -157v-289h-154z" />
    <glyph glyph-name="uni04AB" unicode="&#x4ab;" horiz-adv-x="1054" 
d="M502 -246v234q-170 25 -290 170t-120 334q0 105 39.5 200.5t106 163.5t157 108t189.5 40q158 0 295 -99q56 -41 104 -96l-102 -102q-32 43 -76 81q-98 82 -221 82q-140 0 -244 -109.5t-104 -268.5t104 -269t244 -110q117 0 227 82q50 40 80 81l102 -92q-39 -47 -94 -90
q-115 -92 -254 -110v-230h-143z" />
    <glyph glyph-name="uni04AC" unicode="&#x4ac;" horiz-adv-x="1136" 
d="M666 -307v307h-174v1290h-451v144h1055v-144h-451v-1147h174v-450h-153z" />
    <glyph glyph-name="uni04AD" unicode="&#x4ad;" horiz-adv-x="921" 
d="M543 -246v246h-154v850h-348v133h840v-133h-349v-717h154v-379h-143z" />
    <glyph glyph-name="uni04AE" unicode="&#x4ae;" horiz-adv-x="1300" 
d="M573 0v502l-532 932h174l430 -768h10l430 768h175l-533 -932v-502h-154z" />
    <glyph glyph-name="uni04AF" unicode="&#x4af;" horiz-adv-x="1003" 
d="M430 -430v430l-399 983h153l318 -788l317 788h154l-400 -983v-430h-143z" />
    <glyph glyph-name="uni04B0" unicode="&#x4b0;" horiz-adv-x="1300" 
d="M573 0v410h-327v143h317l-522 881h174l430 -738h10l430 738h175l-523 -881h318v-143h-328v-410h-154z" />
    <glyph glyph-name="uni04B1" unicode="&#x4b1;" horiz-adv-x="1003" 
d="M430 -430v297h-225v133h225l-399 983h153l318 -788l317 788h154l-400 -983h226v-133h-226v-297h-143z" />
    <glyph glyph-name="uni04B2" unicode="&#x4b2;" horiz-adv-x="1361" 
d="M41 0l532 748l-491 686h184l400 -564l399 564h184l-491 -686l430 -605h174v-450h-154v307h-102l-440 625l-441 -625h-184z" />
    <glyph glyph-name="uni04B3" unicode="&#x4b3;" horiz-adv-x="1003" 
d="M31 0l368 512l-338 471h175l256 -358l256 358h174l-338 -471l272 -379h158v-379h-144v246h-92l-286 399l-287 -399h-174z" />
    <glyph glyph-name="uni04B4" unicode="&#x4b4;" horiz-adv-x="1822" 
d="M492 0v1290h-451v144h1014v-144h-410v-1147h778v1291h154v-1291h184v-450h-153v307h-1116z" />
    <glyph glyph-name="uni04B5" unicode="&#x4b5;" horiz-adv-x="1433" 
d="M389 0v850h-348v133h799v-133h-308v-717h543v850h144v-850h153v-379h-143v246h-840z" />
    <glyph glyph-name="uni04B6" unicode="&#x4b6;" horiz-adv-x="1464" 
d="M1249 -307v307h-174v625q-47 -35 -106 -62q-134 -61 -283 -61q-226 0 -358.5 134.5t-132.5 367.5v430h153v-430q0 -173 94 -266t265 -93q149 0 272 76q55 35 96 78v635h154v-1291h174v-450h-154z" />
    <glyph glyph-name="uni04B7" unicode="&#x4b7;" horiz-adv-x="1157" 
d="M952 -246v246h-153v399q-45 -27 -78 -41q-87 -41 -199 -41q-167 0 -273 106t-106 273v287h144v-287q0 -109 68 -177t177 -68q103 0 195 45q35 18 72 47v440h143v-850h154v-379h-144z" />
    <glyph glyph-name="uni04B8" unicode="&#x4b8;" horiz-adv-x="1464" 
d="M655 287v215q-214 7 -337 142.5t-123 359.5v430h153v-430q0 -161 79.5 -252t227.5 -105v285h144v-279q115 20 217 90q39 25 80 66v625h153v-1434h-153v635q-39 -30 -80 -49q-109 -58 -217 -74v-225h-144z" />
    <glyph glyph-name="uni04B9" unicode="&#x4b9;" horiz-adv-x="1126" 
d="M502 164v153q-161 7 -260 112t-99 267v287h144v-287q0 -99 61 -168t154 -75v202h123v-194q81 15 139 53q33 20 55 39v430h144v-983h-144v410q-10 -9 -47 -29q-80 -39 -147 -53v-164h-123z" />
    <glyph glyph-name="uni04BA" unicode="&#x4ba;" horiz-adv-x="1392" 
d="M215 0v1434h154v-625q43 32 106 61q136 62 283 62q226 0 358.5 -134.5t132.5 -367.5v-430h-153v430q0 172 -94 265t-265 93q-148 0 -272 -77q-53 -33 -96 -76v-635h-154z" />
    <glyph glyph-name="uni04BB" unicode="&#x4bb;" horiz-adv-x="1198" 
d="M174 0v1434h143v-594q26 40 78 82q110 82 240 82q178 0 288.5 -114.5t110.5 -305.5v-584h-143v584q0 129 -74 207.5t-192 78.5q-133 0 -220.5 -90.5t-87.5 -236.5v-543h-143z" />
    <glyph glyph-name="uni04BC" unicode="&#x4bc;" horiz-adv-x="1781" 
d="M-10 1004h143v-41q0 -63 33.5 -93t109.5 -30h50q32 269 218.5 441.5t448.5 172.5q138 0 259.5 -54t211.5 -151t142.5 -240.5t52.5 -312.5h-1188q0 -253 158 -413t405 -160q204 0 350 106q66 46 111 109l102 -92q-50 -73 -135 -133q-180 -133 -428 -133q-148 0 -279 53.5
t-226 147.5t-151.5 227.5t-60.5 287.5h-30q-156 0 -231.5 61.5t-75.5 174.5q0 27 4 55zM483 840h1010q-36 223 -173 347t-327 124q-197 0 -335.5 -123.5t-174.5 -347.5z" />
    <glyph glyph-name="uni04BD" unicode="&#x4bd;" horiz-adv-x="1280" 
d="M258 440h-2q-135 0 -200.5 54.5t-65.5 150.5q0 27 4 55l6 17h123v-31q0 -123 133 -123h4q29 193 159.5 317t307.5 124q194 0 327.5 -139.5t133.5 -352.5q0 -11 -6 -53l-4 -21l-779 2q8 -132 109.5 -229.5t239.5 -97.5q125 0 235 82q55 44 82 81l92 -92q-40 -53 -104 -102
q-144 -102 -305 -102q-129 0 -240 66t-176.5 171t-73.5 223zM399 563h645q-17 132 -106 219.5t-211 87.5q-127 0 -218.5 -90t-109.5 -217z" />
    <glyph glyph-name="uni04BE" unicode="&#x4be;" horiz-adv-x="1781" 
d="M932 -307v295q-174 21 -312 117t-218 250t-85 341h-30q-156 0 -231.5 61.5t-75.5 174.5q0 27 4 55l6 17h143v-41q0 -63 33.5 -93t109.5 -30h50q32 269 218.5 441.5t448.5 172.5q138 0 259.5 -54t211.5 -151t142.5 -240.5t52.5 -312.5h-1188q0 -253 158 -413t405 -160
q204 0 350 106q66 46 111 109l102 -92q-53 -72 -124 -125q-172 -129 -388 -139v-289h-153zM483 840h1010q-36 223 -173 347t-327 124q-197 0 -335.5 -123.5t-174.5 -347.5z" />
    <glyph glyph-name="uni04BF" unicode="&#x4bf;" horiz-adv-x="1280" 
d="M655 -246v236q-158 29 -271.5 159.5t-125.5 290.5h-2q-135 0 -200.5 54.5t-65.5 150.5q0 27 4 55l6 17h123v-31q0 -123 133 -123h4q29 193 159.5 317t307.5 124q194 0 327.5 -139.5t133.5 -352.5q0 -11 -6 -53l-4 -21l-779 2q8 -132 109.5 -229.5t239.5 -97.5
q125 0 235 82q55 44 82 81l92 -92q-37 -50 -90 -90q-118 -94 -268 -112v-228h-144zM399 563h645q-17 132 -106 219.5t-211 87.5q-127 0 -218.5 -90t-109.5 -217z" />
    <glyph glyph-name="uni04C0" unicode="&#x4c0;" horiz-adv-x="583" 
d="M215 0v1434h154v-1434h-154z" />
    <glyph glyph-name="uni04C1" unicode="&#x4c1;" horiz-adv-x="1976" 
d="M20 0l594 840l-542 594h194l645 -705v705h154v-705l645 705h195l-543 -594l594 -840h-184l-512 727l-195 -205v-522h-154v522l-194 205l-512 -727h-185zM707 1905h112q0 -69 47.5 -116.5t116.5 -47.5t116.5 47.5t47.5 116.5h113q0 -123 -77 -200t-200 -77t-199.5 77
t-76.5 200z" />
    <glyph glyph-name="uni04C2" unicode="&#x4c2;" horiz-adv-x="1495" 
d="M20 0l420 584l-379 399h175l440 -471v471h143v-471l441 471h174l-379 -399l420 -584h-164l-348 481l-144 -153v-328h-143v328l-144 153l-348 -481h-164zM471 1434h113q0 -85 42.5 -129.5t121.5 -44.5t121 44t42 130h113q0 -123 -76.5 -200t-199.5 -77t-200 77t-77 200z
" />
    <glyph glyph-name="uni04C3" unicode="&#x4c3;" horiz-adv-x="1443" 
d="M215 0v1434h154v-799l696 799h195l-564 -635l39 14q50 16 115 16q221 0 351 -150t130 -433q0 -161 -41 -290.5t-113.5 -213t-169 -128t-208.5 -44.5v143q78 0 146 33.5t120.5 98t82.5 168t30 233.5q0 215 -92.5 327.5t-245.5 112.5q-126 0 -224.5 -48t-201.5 -167
l-45 -51v-420h-154z" />
    <glyph glyph-name="uni04C4" unicode="&#x4c4;" horiz-adv-x="1064" 
d="M573 -430v133q267 0 267 358q0 182 -72.5 270.5t-194.5 88.5q-97 0 -194 -68q-43 -29 -72 -65v-287h-143v983h143v-512l461 512h174l-410 -451l23 5q42 6 59 6q162 0 265.5 -123t103.5 -359q0 -240 -110 -365.5t-300 -125.5z" />
    <glyph glyph-name="uni04C5" unicode="&#x4c5;" horiz-adv-x="1515" 
d="M-10 0v154q22 -9 37 -11q42 -10 75 -10q36 0 63.5 8.5t56.5 32t50 63.5t40 106t31 156.5t19 217.5t7 287v430h921v-1291h226v-20l-236 -430h-102l102 307h-143v1290h-615v-286q0 -256 -18.5 -440t-50.5 -296.5t-84 -177.5t-109 -87.5t-137 -22.5q-49 0 -94 10
q-22 3 -39 10z" />
    <glyph glyph-name="uni04C6" unicode="&#x4c6;" horiz-adv-x="1177" 
d="M0 0v143q11 -7 25 -10q27 -10 57 -10q37 0 63 11.5t50.5 46.5t39 97t23 166.5t8.5 251.5v287h717v-850h195v-20l-195 -359h-92l82 246h-133v850h-430v-154q0 -175 -15 -302.5t-40 -206.5t-65.5 -126t-84.5 -64t-103 -17q-38 0 -71 10q-12 2 -31 10z" />
    <glyph glyph-name="uni04C7" unicode="&#x4c7;" horiz-adv-x="1536" 
d="M215 0v1434h154v-635h798v635h154v-1567q0 -297 -256 -297q-64 0 -111 14l-43 17v133q12 -7 35 -17q38 -14 98 -14q123 0 123 164v788h-798v-655h-154z" />
    <glyph glyph-name="uni04C8" unicode="&#x4c8;" horiz-adv-x="1177" 
d="M164 0v983h143v-420h563v420h144v-1126q0 -287 -266 -287q-49 0 -89 14q-20 8 -34 17v133l32 -17q32 -14 80 -14q63 0 98 39t35 115v573h-563v-430h-143z" />
    <glyph glyph-name="uni04C9" unicode="&#x4c9;" horiz-adv-x="1546" 
d="M215 0v1434h154v-635h798v635h154v-1291h225v-20l-235 -430h-103l103 307h-144v655h-798v-655h-154z" />
    <glyph glyph-name="uni04CA" unicode="&#x4ca;" horiz-adv-x="1208" 
d="M164 0v983h143v-420h563v420h144v-850h194v-20l-194 -359h-92l82 246h-134v430h-563v-430h-143z" />
    <glyph glyph-name="uni04CB" unicode="&#x4cb;" horiz-adv-x="1443" 
d="M901 -307v450h174v482q-47 -35 -106 -62q-134 -61 -283 -61q-226 0 -358.5 134.5t-132.5 367.5v430h153v-430q0 -173 94 -266t265 -93q149 0 272 76q55 35 96 78v635h154v-1434h-174v-307h-154z" />
    <glyph glyph-name="uni04CC" unicode="&#x4cc;" horiz-adv-x="1105" 
d="M645 -246v379h154v266q-45 -27 -78 -41q-87 -41 -199 -41q-167 0 -273 106t-106 273v287h144v-287q0 -109 68 -177t177 -68q103 0 195 45q35 18 72 47v440h143v-983h-154v-246h-143z" />
    <glyph glyph-name="uni04CD" unicode="&#x4cd;" horiz-adv-x="1894" 
d="M215 0v1434h133l594 -779l594 779h133v-1291h225v-20l-235 -430h-103l103 307h-143v1167l-574 -757l-573 757v-1167h-154z" />
    <glyph glyph-name="uni04CE" unicode="&#x4ce;" horiz-adv-x="1361" 
d="M164 0v983h112l390 -491l389 491h112v-850h195v-20l-195 -359h-92l82 246h-133v727l-358 -451l-359 451v-727h-143z" />
    <glyph glyph-name="uni04CF" unicode="&#x4cf;" horiz-adv-x="491" 
d="M174 0v1434h143v-1434h-143z" />
    <glyph glyph-name="uni04D0" unicode="&#x4d0;" horiz-adv-x="1413" 
d="M430 1905h113q0 -69 47.5 -116.5t116.5 -47.5t116 47.5t47 116.5h113q0 -123 -76.5 -200t-199.5 -77t-200 77t-77 200zM41 0l594 1434h143l594 -1434h-164l-164 399h-675l-164 -399h-164zM430 543h553l-276 676z" />
    <glyph glyph-name="uni04D1" unicode="&#x4d1;" horiz-adv-x="1064" 
d="M758 0v133q-28 -41 -78 -78q-106 -75 -240 -75q-149 0 -248.5 87t-99.5 199q0 123 73.5 198.5t213.5 98.5l379 62q0 109 -68.5 177t-177.5 68q-108 0 -203 -71q-43 -36 -73 -72l-93 92q37 49 97 92q125 93 272 93q168 0 278.5 -108.5t110.5 -270.5v-625h-143zM758 440v62
l-338 -62q-184 -34 -184 -174q0 -65 54 -109t150 -44q140 0 229 90t89 237zM266 1434h113q0 -85 42.5 -129.5t121.5 -44.5t121.5 44.5t42.5 129.5h112q0 -123 -76.5 -200t-199.5 -77t-200 77t-77 200z" />
    <glyph glyph-name="uni04D2" unicode="&#x4d2;" horiz-adv-x="1413" 
d="M420 1751q0 38 27 65t65 27t65 -27t27 -65t-27 -65t-65 -27t-65 27t-27 65zM809 1751q0 38 27 65t65 27t65 -27t27 -65t-27 -65t-65 -27t-65 27t-27 65zM41 0l594 1434h143l594 -1434h-164l-164 399h-675l-164 -399h-164zM430 543h553l-276 676z" />
    <glyph glyph-name="uni04D3" unicode="&#x4d3;" horiz-adv-x="1064" 
d="M256 1290q0 38 27 65t65 27t65 -27t27 -65t-27 -65t-65 -27t-65 27t-27 65zM645 1290q0 38 27 65t65 27t65 -27t27 -65t-27 -65t-65 -27t-65 27t-27 65zM758 0v133q-28 -41 -78 -78q-106 -75 -240 -75q-149 0 -248.5 87t-99.5 199q0 123 73.5 198.5t213.5 98.5l379 62
q0 109 -68.5 177t-177.5 68q-108 0 -203 -71q-43 -36 -73 -72l-93 92q37 49 97 92q125 93 272 93q168 0 278.5 -108.5t110.5 -270.5v-625h-143zM758 440v62l-338 -62q-184 -34 -184 -174q0 -65 54 -109t150 -44q140 0 229 90t89 237z" />
    <glyph glyph-name="uni04D6" unicode="&#x4d6;" horiz-adv-x="1310" 
d="M430 1905h113q0 -69 47.5 -116.5t116.5 -47.5t116 47.5t47 116.5h113q0 -123 -76.5 -200t-199.5 -77t-200 77t-77 200zM215 0v1434h983v-144h-829v-471h665v-143h-665v-533h850v-143h-1004z" />
    <glyph glyph-name="uni04D7" unicode="&#x4d7;" horiz-adv-x="1136" 
d="M901 276l92 -92q-40 -53 -104 -102q-144 -102 -305 -102q-99 0 -189.5 40t-157 108t-106 163.5t-39.5 200.5q0 140 66.5 258.5t177 186t237.5 67.5q202 0 336.5 -139t134.5 -353q0 -11 -6 -53l-4 -21l-798 2q8 -132 109 -229.5t239 -97.5q125 0 235 82q55 44 82 81z
M236 563h665q-18 133 -108.5 220t-219.5 87t-224 -90t-113 -217zM297 1434h113q0 -86 42 -130t121 -44t121.5 44.5t42.5 129.5h113q0 -123 -77 -200t-200 -77t-199.5 77t-76.5 200z" />
    <glyph glyph-name="uni04D8" unicode="&#x4d8;" horiz-adv-x="1607" 
d="M123 717h1208q0 133 -42 244.5t-115.5 188t-175.5 119t-220 42.5q-197 0 -350 -103q-72 -50 -111 -102l-102 92q63 76 139 127q197 129 424 129q148 0 278.5 -55t225 -151t149 -234t54.5 -297q0 -162 -52.5 -300.5t-143 -233.5t-215 -149t-265.5 -54q-145 0 -271.5 54
t-218 149t-144 233.5t-52.5 300.5zM1319 573h-1030q36 -212 176.5 -331t343.5 -119q196 0 335 119t175 331z" />
    <glyph glyph-name="uni04D9" unicode="&#x4d9;" horiz-adv-x="1136" 
d="M92 492v32l809 -2q-8 140 -109.5 244t-238.5 104q-130 0 -231 -77q-44 -32 -76 -76l-103 82q38 52 105 102q145 103 305 103q132 0 245 -67.5t179.5 -185.5t66.5 -259q0 -140 -66 -258.5t-174.5 -186t-230.5 -67.5q-211 0 -346 142.5t-135 369.5zM891 399h-645
q17 -130 106.5 -208t220.5 -78q118 0 209.5 82t108.5 204z" />
    <glyph glyph-name="uni04DA" unicode="&#x4da;" horiz-adv-x="1607" 
d="M123 717h1208q0 133 -42 244.5t-115.5 188t-175.5 119t-220 42.5q-197 0 -350 -103q-72 -50 -111 -102l-102 92q63 76 139 127q197 129 424 129q148 0 278.5 -55t225 -151t149 -234t54.5 -297q0 -162 -52.5 -300.5t-143 -233.5t-215 -149t-265.5 -54q-145 0 -271.5 54
t-218 149t-144 233.5t-52.5 300.5zM1319 573h-1030q36 -212 176.5 -331t343.5 -119q196 0 335 119t175 331zM532 1751q0 38 27.5 65t65.5 27t65 -27t27 -65t-27 -65t-65 -27t-65.5 27t-27.5 65zM922 1751q0 38 27 65t65 27t65 -27t27 -65t-27 -65t-65 -27t-65 27t-27 65z
" />
    <glyph glyph-name="uni04DB" unicode="&#x4db;" horiz-adv-x="1136" 
d="M92 492v32l809 -2q-8 140 -109.5 244t-238.5 104q-130 0 -231 -77q-44 -32 -76 -76l-103 82q38 52 105 102q145 103 305 103q132 0 245 -67.5t179.5 -185.5t66.5 -259q0 -140 -66 -258.5t-174.5 -186t-230.5 -67.5q-211 0 -346 142.5t-135 369.5zM891 399h-645
q17 -130 106.5 -208t220.5 -78q118 0 209.5 82t108.5 204zM287 1290q0 38 27 65t65 27t65 -27t27 -65t-27 -65t-65 -27t-65 27t-27 65zM676 1290q0 38 27 65t65 27t65 -27t27 -65t-27 -65t-65 -27t-65 27t-27 65z" />
    <glyph glyph-name="uni04DC" unicode="&#x4dc;" horiz-adv-x="1976" 
d="M20 0l594 840l-542 594h194l645 -705v705h154v-705l645 705h195l-543 -594l594 -840h-184l-512 727l-195 -205v-522h-154v522l-194 205l-512 -727h-185zM696 1751q0 38 27 65t65 27t65.5 -27t27.5 -65t-27.5 -65t-65.5 -27t-65 27t-27 65zM1085 1751q0 38 27.5 65
t65.5 27t65 -27t27 -65t-27 -65t-65 -27t-65.5 27t-27.5 65z" />
    <glyph glyph-name="uni04DD" unicode="&#x4dd;" horiz-adv-x="1495" 
d="M20 0l420 584l-379 399h175l440 -471v471h143v-471l441 471h174l-379 -399l420 -584h-164l-348 481l-144 -153v-328h-143v328l-144 153l-348 -481h-164zM461 1290q0 38 27 65t65 27t65 -27t27 -65t-27 -65t-65 -27t-65 27t-27 65zM850 1290q0 38 27 65t65 27t65 -27
t27 -65t-27 -65t-65 -27t-65 27t-27 65z" />
    <glyph glyph-name="uni04DE" unicode="&#x4de;" horiz-adv-x="1218" 
d="M61 205l103 102q43 -52 104 -92q141 -92 305 -92q169 0 269 81.5t100 194.5q0 121 -99 204t-270 83h-163v143h163q147 0 232.5 69t85.5 167q0 104 -85 175t-233 71q-138 0 -264 -82q-60 -43 -94 -82l-102 102q51 57 118 103q160 102 342 102q216 0 343.5 -109.5
t127.5 -269.5q0 -157 -122 -252q-53 -44 -123 -65q79 -23 147 -72q150 -111 150 -287q0 -80 -37.5 -155.5t-104.5 -134t-166.5 -94t-214.5 -35.5q-210 0 -383 112q-78 51 -129 113zM297 1751q0 38 27 65t65 27t65 -27t27 -65t-27 -65t-65 -27t-65 27t-27 65zM686 1751
q0 38 27 65t65 27t65 -27t27 -65t-27 -65t-65 -27t-65 27t-27 65z" />
    <glyph glyph-name="uni04DF" unicode="&#x4df;" horiz-adv-x="901" 
d="M51 154l92 92q37 -43 74 -68q93 -65 203 -65q118 0 176.5 45t58.5 118t-59 118.5t-176 45.5h-113v133h113q89 0 141.5 45t52.5 109q0 65 -49 104t-145 39q-101 0 -180 -57q-39 -25 -66 -55l-102 102q30 33 90 72q121 72 258 72q148 0 243 -83t95 -194q0 -112 -78 -174
q-38 -30 -76 -41q47 -11 96 -41q99 -67 99 -195q0 -124 -99 -210t-280 -86q-151 0 -277 86q-54 38 -92 88zM143 1290q0 38 27.5 65t65.5 27t65 -27t27 -65t-27 -65t-65 -27t-65.5 27t-27.5 65zM532 1290q0 38 27.5 65t65.5 27t65 -27t27 -65t-27 -65t-65 -27t-65.5 27
t-27.5 65z" />
    <glyph glyph-name="uni04E0" unicode="&#x4e0;" horiz-adv-x="1208" 
d="M72 205l102 102q42 -50 105 -92q141 -92 305 -92q171 0 269.5 84.5t98.5 212.5q0 129 -102 213t-287 84h-246v102l533 471h-707v144h901v-144l-491 -430h10q123 0 226.5 -35.5t172 -96t106.5 -140t38 -168.5q0 -88 -37.5 -168t-104 -140.5t-165.5 -96t-215 -35.5
q-210 0 -383 112q-78 51 -129 113z" />
    <glyph glyph-name="uni04E1" unicode="&#x4e1;" horiz-adv-x="1003" 
d="M41 -256l102 102q34 -40 82 -71q102 -72 236 -72q147 0 232 78t85 209q0 130 -86.5 203t-240.5 73h-195v103l430 481h-594v133h768v-133l-409 -451h10q211 0 336 -109.5t125 -299.5q0 -192 -125.5 -306t-335.5 -114q-170 0 -314 86q-61 37 -106 88z" />
    <glyph glyph-name="uni04E2" unicode="&#x4e2;" horiz-adv-x="1597" 
d="M215 0v1434h154v-1158l880 1158h133v-1434h-153v1157l-881 -1157h-133zM502 1700v112h594v-112h-594z" />
    <glyph glyph-name="uni04E3" unicode="&#x4e3;" horiz-adv-x="1187" 
d="M164 0v983h143v-737l594 737h123v-983h-143v737l-594 -737h-123zM297 1249v113h594v-113h-594z" />
    <glyph glyph-name="uni04E4" unicode="&#x4e4;" horiz-adv-x="1597" 
d="M215 0v1434h154v-1158l880 1158h133v-1434h-153v1157l-881 -1157h-133zM512 1751q0 38 27 65t65 27t65 -27t27 -65t-27 -65t-65 -27t-65 27t-27 65zM901 1751q0 38 27 65t65 27t65 -27t27 -65t-27 -65t-65 -27t-65 27t-27 65z" />
    <glyph glyph-name="uni04E5" unicode="&#x4e5;" horiz-adv-x="1187" 
d="M164 0v983h143v-737l594 737h123v-983h-143v737l-594 -737h-123zM307 1290q0 38 27 65t65 27t65.5 -27t27.5 -65t-27.5 -65t-65.5 -27t-65 27t-27 65zM696 1290q0 38 27 65t65 27t65.5 -27t27.5 -65t-27.5 -65t-65.5 -27t-65 27t-27 65z" />
    <glyph glyph-name="uni04E6" unicode="&#x4e6;" horiz-adv-x="1720" 
d="M573 1751q0 38 27.5 65t65.5 27t65 -27t27 -65t-27 -65t-65 -27t-65.5 27t-27.5 65zM963 1751q0 38 27 65t65 27t65 -27t27 -65t-27 -65t-65 -27t-65 27t-27 65zM123 717q0 151 58 287.5t156.5 235t235 156.5t287.5 58t287.5 -58t235 -156.5t156.5 -235t58 -287.5
t-58 -287.5t-156.5 -235t-235 -156.5t-287.5 -58t-287.5 58t-235 156.5t-156.5 235t-58 287.5zM860 123q162 0 296 77.5t211 214t77 302.5t-77 302.5t-211 214t-296 77.5t-296 -77.5t-211 -214t-77 -302.5t77 -302.5t211 -214t296 -77.5z" />
    <glyph glyph-name="uni04E7" unicode="&#x4e7;" horiz-adv-x="1187" 
d="M307 1290q0 38 27 65t65 27t65.5 -27t27.5 -65t-27.5 -65t-65.5 -27t-65 27t-27 65zM696 1290q0 38 27 65t65 27t65.5 -27t27.5 -65t-27.5 -65t-65.5 -27t-65 27t-27 65zM594 -20q-136 0 -251.5 67.5t-183 185.5t-67.5 259t67.5 259t183 185.5t251.5 67.5t251.5 -67.5
t183 -185.5t67.5 -259t-67.5 -259t-183 -185.5t-251.5 -67.5zM594 113q148 0 253 109.5t105 269.5t-105 269t-253 109t-253 -109t-105 -269q0 -159 105.5 -269t252.5 -110z" />
    <glyph glyph-name="uni04E8" unicode="&#x4e8;" horiz-adv-x="1720" 
d="M123 717q0 151 58 287.5t156.5 235t235 156.5t287.5 58t287.5 -58t235 -156.5t156.5 -235t58 -287.5t-58 -287.5t-156.5 -235t-235 -156.5t-287.5 -58t-287.5 58t-235 156.5t-156.5 235t-58 287.5zM1444 655h-1168q25 -231 189.5 -381.5t394.5 -150.5t394.5 150.5
t189.5 381.5zM279 799h1161q-19 147 -100.5 264t-207 182.5t-272.5 65.5q-222 0 -387 -145t-194 -367z" />
    <glyph glyph-name="uni04E9" unicode="&#x4e9;" horiz-adv-x="1187" 
d="M594 -20q-136 0 -251.5 67.5t-183 185.5t-67.5 259t67.5 259t183 185.5t251.5 67.5t251.5 -67.5t183 -185.5t67.5 -259t-67.5 -259t-183 -185.5t-251.5 -67.5zM948 430h-708q20 -138 121 -227.5t233 -89.5t233 89.5t121 227.5zM242 563h704q-21 128 -118.5 217.5
t-233.5 89.5q-135 0 -234.5 -90.5t-117.5 -216.5z" />
    <glyph glyph-name="uni04EA" unicode="&#x4ea;" horiz-adv-x="1720" 
d="M123 717q0 151 58 287.5t156.5 235t235 156.5t287.5 58t287.5 -58t235 -156.5t156.5 -235t58 -287.5t-58 -287.5t-156.5 -235t-235 -156.5t-287.5 -58t-287.5 58t-235 156.5t-156.5 235t-58 287.5zM1444 655h-1168q25 -231 189.5 -381.5t394.5 -150.5t394.5 150.5
t189.5 381.5zM279 799h1161q-19 147 -100.5 264t-207 182.5t-272.5 65.5q-222 0 -387 -145t-194 -367zM573 1751q0 38 27.5 65t65.5 27t65 -27t27 -65t-27 -65t-65 -27t-65.5 27t-27.5 65zM963 1751q0 38 27 65t65 27t65 -27t27 -65t-27 -65t-65 -27t-65 27t-27 65z" />
    <glyph glyph-name="uni04EB" unicode="&#x4eb;" horiz-adv-x="1187" 
d="M594 -20q-136 0 -251.5 67.5t-183 185.5t-67.5 259t67.5 259t183 185.5t251.5 67.5t251.5 -67.5t183 -185.5t67.5 -259t-67.5 -259t-183 -185.5t-251.5 -67.5zM948 430h-708q20 -138 121 -227.5t233 -89.5t233 89.5t121 227.5zM242 563h704q-21 128 -118.5 217.5
t-233.5 89.5q-135 0 -234.5 -90.5t-117.5 -216.5zM307 1290q0 38 27 65t65 27t65.5 -27t27.5 -65t-27.5 -65t-65.5 -27t-65 27t-27 65zM696 1290q0 38 27 65t65 27t65.5 -27t27.5 -65t-27.5 -65t-65.5 -27t-65 27t-27 65z" />
    <glyph glyph-name="uni04EC" unicode="&#x4ec;" horiz-adv-x="1525" 
d="M72 276l102 93q52 -71 123 -123q160 -123 369 -123q233 0 395.5 152.5t187.5 379.5h-757v144h757q-33 222 -191.5 367t-391.5 145q-207 0 -363 -123q-68 -51 -119 -123l-102 92q59 83 145 148q193 149 439 149q151 0 287.5 -58t235 -156.5t156.5 -235t58 -287.5
t-58 -287.5t-156.5 -235t-235 -156.5t-287.5 -58q-244 0 -443 147q-80 58 -151 149zM451 1751q0 38 27 65t65 27t65 -27t27 -65t-27 -65t-65 -27t-65 27t-27 65zM840 1751q0 38 27 65t65 27t65 -27t27 -65t-27 -65t-65 -27t-65 27t-27 65z" />
    <glyph glyph-name="uni04ED" unicode="&#x4ed;" horiz-adv-x="1044" 
d="M51 184l103 92q32 -43 79 -81q110 -82 228 -82q128 0 229 97t119 230h-492v133h482q-18 119 -114 208t-224 89q-123 0 -221 -82q-44 -38 -76 -81l-103 102q47 53 105 96q137 99 295 99q132 0 245 -67.5t179.5 -185.5t66.5 -259t-66.5 -259t-179.5 -185.5t-245 -67.5
q-157 0 -301 102q-70 53 -109 102zM215 1290q0 38 27 65t65 27t65 -27t27 -65t-27 -65t-65 -27t-65 27t-27 65zM604 1290q0 38 27 65t65 27t65 -27t27 -65t-27 -65t-65 -27t-65 27t-27 65z" />
    <glyph glyph-name="uni04EE" unicode="&#x4ee;" horiz-adv-x="1249" 
d="M133 0v143q19 -8 35 -10q42 -10 88 -10q94 0 151.5 44.5t114.5 149.5l62 113q-32 61 -231 433.5t-302 570.5h164l451 -840l389 840h164l-533 -1117q-90 -183 -181 -260t-239 -77q-49 0 -94 10q-22 3 -39 10zM348 1700v112h594v-112h-594z" />
    <glyph glyph-name="uni04EF" unicode="&#x4ef;" horiz-adv-x="1003" 
d="M205 1249v113h594v-113h-594zM92 -410v134q22 -9 33 -11q33 -10 70 -10q68 0 111 37t73 117l51 143l-399 983h153l318 -799l317 799h154l-451 -1126q-62 -155 -132 -221t-175 -66q-46 0 -88 10q-16 2 -35 10z" />
    <glyph glyph-name="uni04F0" unicode="&#x4f0;" horiz-adv-x="1249" 
d="M133 0v143q19 -8 35 -10q42 -10 88 -10q94 0 151.5 44.5t114.5 149.5l62 113q-32 61 -231 433.5t-302 570.5h164l451 -840l389 840h164l-533 -1117q-90 -183 -181 -260t-239 -77q-49 0 -94 10q-22 3 -39 10zM358 1751q0 38 27.5 65t65.5 27t65 -27t27 -65t-27 -65
t-65 -27t-65.5 27t-27.5 65zM748 1751q0 38 27 65t65 27t65 -27t27 -65t-27 -65t-65 -27t-65 27t-27 65z" />
    <glyph glyph-name="uni04F1" unicode="&#x4f1;" horiz-adv-x="1003" 
d="M215 1290q0 38 27 65t65 27t65 -27t27 -65t-27 -65t-65 -27t-65 27t-27 65zM604 1290q0 38 27 65t65 27t65 -27t27 -65t-27 -65t-65 -27t-65 27t-27 65zM92 -410v134q22 -9 33 -11q33 -10 70 -10q68 0 111 37t73 117l51 143l-399 983h153l318 -799l317 799h154
l-451 -1126q-62 -155 -132 -221t-175 -66q-46 0 -88 10q-16 2 -35 10z" />
    <glyph glyph-name="uni04F2" unicode="&#x4f2;" horiz-adv-x="1249" 
d="M133 0v143q19 -8 35 -10q42 -10 88 -10q94 0 151.5 44.5t114.5 149.5l62 113q-32 61 -231 433.5t-302 570.5h164l451 -840l389 840h164l-533 -1117q-90 -183 -181 -260t-239 -77q-49 0 -94 10q-22 3 -39 10zM410 1628l153 277h154l-197 -277h-110zM727 1628l152 277h155
l-194 -277h-113z" />
    <glyph glyph-name="uni04F3" unicode="&#x4f3;" horiz-adv-x="1003" 
d="M287 1157l153 277h154l-197 -277h-110zM604 1157l152 277h155l-194 -277h-113zM92 -410v134q22 -9 33 -11q33 -10 70 -10q68 0 111 37t73 117l51 143l-399 983h153l318 -799l317 799h154l-451 -1126q-62 -155 -132 -221t-175 -66q-46 0 -88 10q-16 2 -35 10z" />
    <glyph glyph-name="uni04F4" unicode="&#x4f4;" horiz-adv-x="1443" 
d="M1075 0v625q-47 -35 -106 -62q-134 -61 -283 -61q-226 0 -358.5 134.5t-132.5 367.5v430h153v-430q0 -173 94 -266t265 -93q149 0 272 76q55 35 96 78v635h154v-1434h-154zM430 1751q0 38 27 65t65 27t65 -27t27 -65t-27 -65t-65 -27t-65 27t-27 65zM819 1751q0 38 27 65
t65 27t65.5 -27t27.5 -65t-27.5 -65t-65.5 -27t-65 27t-27 65z" />
    <glyph glyph-name="uni04F5" unicode="&#x4f5;" horiz-adv-x="1105" 
d="M799 0v399q-45 -27 -78 -41q-87 -41 -199 -41q-167 0 -273 106t-106 273v287h144v-287q0 -109 68 -177t177 -68q103 0 195 45q35 18 72 47v440h143v-983h-143zM256 1290q0 38 27 65t65 27t65 -27t27 -65t-27 -65t-65 -27t-65 27t-27 65zM645 1290q0 38 27 65t65 27
t65 -27t27 -65t-27 -65t-65 -27t-65 27t-27 65z" />
    <glyph glyph-name="uni04F6" unicode="&#x4f6;" horiz-adv-x="1126" 
d="M389 -307v307h-174v1434h891v-144h-737v-1147h174v-450h-154z" />
    <glyph glyph-name="uni04F7" unicode="&#x4f7;" horiz-adv-x="839" 
d="M317 -246v246h-153v983h655v-133h-512v-717h154v-379h-144z" />
    <glyph glyph-name="uni04F8" unicode="&#x4f8;" horiz-adv-x="1812" 
d="M215 0v1434h154v-533h368q198 0 329.5 -129.5t131.5 -320.5q0 -192 -131.5 -321.5t-329.5 -129.5h-522zM1444 0v1434h153v-1434h-153zM369 143h368q139 0 223 84t84 224q0 139 -84 223t-223 84h-368v-615zM614 1751q0 38 27.5 65t65.5 27t65 -27t27 -65t-27 -65t-65 -27
t-65.5 27t-27.5 65zM1004 1751q0 38 27 65t65 27t65 -27t27 -65t-27 -65t-65 -27t-65 27t-27 65z" />
    <glyph glyph-name="uni04F9" unicode="&#x4f9;" horiz-adv-x="1402" 
d="M164 0v983h143v-328h246q168 0 263 -88.5t95 -238.5q0 -149 -95 -238.5t-261 -89.5h-391zM1096 0v983h143v-983h-143zM307 133h248q97 0 155 54t58 141t-58 140.5t-157 53.5h-246v-389zM410 1290q0 38 27 65t65 27t65 -27t27 -65t-27 -65t-65 -27t-65 27t-27 65z
M799 1290q0 38 27 65t65 27t65 -27t27 -65t-27 -65t-65 -27t-65 27t-27 65z" />
    <glyph glyph-name="uni04FA" unicode="&#x4fa;" horiz-adv-x="1177" 
d="M307 -410v123l15 -6q20 -4 36 -4q82 0 82 102v195h-174v655h-205v144h205v635h871v-144h-717v-491h399v-144h-399v-512h174v-338q0 -116 -51 -175.5t-144 -59.5q-42 0 -69 10q-11 2 -23 10z" />
    <glyph glyph-name="uni04FB" unicode="&#x4fb;" horiz-adv-x="880" 
d="M225 -410v113l15 -6q20 -4 36 -4q82 0 82 102v205h-153v410h-164v133h164v440h655v-133h-512v-307h287v-133h-287v-277h154v-328q0 -235 -185 -235q-42 0 -69 10q-11 2 -23 10z" />
    <glyph glyph-name="uni04FC" unicode="&#x4fc;" horiz-adv-x="1341" 
d="M41 0l532 748l-491 686h184l400 -564l399 564h184l-491 -686l409 -574q86 -121 120 -198t34 -140q0 -123 -69.5 -194.5t-186.5 -71.5q-64 0 -111 14l-43 17v133q12 -7 35 -17q38 -14 98 -14q57 0 90 33t33 90q0 46 -29 108t-104 168l-368 523l-441 -625h-184z" />
    <glyph glyph-name="uni04FD" unicode="&#x4fd;" horiz-adv-x="993" 
d="M31 0l368 512l-338 471h175l256 -358l256 358h174l-338 -471l280 -389q66 -91 92.5 -157t26.5 -130q0 -123 -71.5 -194.5t-194.5 -71.5q-48 0 -88 14q-23 10 -35 17v133l33 -17q32 -14 80 -14q61 0 97 35.5t36 97.5q0 50 -19.5 88t-94.5 147q-4 7 -6.5 10.5t-7 9.5
t-7.5 11l-213 297l-287 -399h-174z" />
    <glyph glyph-name="uni04FE" unicode="&#x4fe;" horiz-adv-x="1331" 
d="M41 0l481 676h-297v143h297l-440 615h184l400 -574l399 574h184l-440 -615h297v-143h-297l481 -676h-184l-440 635l-441 -635h-184z" />
    <glyph glyph-name="uni04FF" unicode="&#x4ff;" horiz-adv-x="983" 
d="M31 0l327 451h-184v122h184l-297 410h175l256 -358l256 358h174l-297 -410h184v-122h-184l327 -451h-174l-286 399l-287 -399h-174z" />
    <glyph glyph-name="uni0510" unicode="&#x510;" horiz-adv-x="1208" 
d="M1044 297l103 -102q-51 -64 -117 -109q-154 -106 -354 -106q-123 0 -225 34t-168.5 91.5t-103 133t-36.5 160.5q0 177 148 287q67 48 149 72q-70 21 -123 65q-122 95 -122 252q0 160 127.5 269.5t343.5 109.5q159 0 299 -68q53 -24 100 -65l-102 -113q-51 40 -76 52
q-100 51 -221 51q-147 0 -232.5 -69t-85.5 -167q0 -104 85 -175t233 -71h153v-143h-153q-171 0 -270 -83t-99 -204t98 -198.5t281 -77.5q150 0 276 86q54 38 92 88z" />
    <glyph glyph-name="uni0511" unicode="&#x511;" horiz-adv-x="890" 
d="M758 225l92 -92q-33 -42 -88 -78q-113 -75 -270 -75q-96 0 -172.5 24.5t-123 66t-70.5 94t-24 111.5q0 130 97 195q49 30 98 41q-40 14 -78 47q-76 68 -76 178q0 111 91.5 189t246.5 78q136 0 238 -52q35 -17 69 -51l-92 -102q-21 21 -49 35q-70 36 -166 36t-145 -39
t-49 -104q0 -64 52.5 -109t141.5 -45h113v-133h-113q-117 0 -176 -45.5t-59 -118.5q0 -74 61 -118.5t185 -44.5q115 0 198 55q44 26 68 57z" />
    <glyph glyph-name="uni0512" unicode="&#x512;" horiz-adv-x="1505" 
d="M-10 0v154q22 -9 37 -11q42 -10 75 -10q36 0 63.5 8.5t56.5 32t50 63.5t40 106t31 156.5t19 217.5t7 287v430h921v-1567q0 -297 -256 -297q-63 0 -110 14l-43 17v133q14 -8 34 -17q38 -14 99 -14q123 0 123 164v1423h-615v-286q0 -256 -18.5 -440t-50.5 -296.5
t-84 -177.5t-109 -87.5t-137 -22.5q-49 0 -94 10q-22 3 -39 10z" />
    <glyph glyph-name="uni0513" unicode="&#x513;" horiz-adv-x="1146" 
d="M0 0v143q11 -7 25 -10q27 -10 57 -10q37 0 63 11.5t50.5 46.5t39 97t23 166.5t8.5 251.5v287h717v-1126q0 -287 -266 -287q-48 0 -88 14q-23 10 -35 17v133l33 -17q32 -14 80 -14q63 0 98 39t35 115v993h-430v-154q0 -175 -15 -302.5t-40 -206.5t-65.5 -126t-84.5 -64
t-103 -17q-38 0 -71 10q-12 2 -31 10z" />
    <glyph glyph-name="Wgrave" unicode="&#x1e80;" horiz-adv-x="2129" 
d="M532 0l-471 1434h164l379 -1198l389 1198h144l389 -1198l379 1198h163l-471 -1434h-153l-379 1198l-379 -1198h-154zM1004 1628l-195 277h154l153 -277h-112z" />
    <glyph glyph-name="wgrave" unicode="&#x1e81;" horiz-adv-x="1495" 
d="M369 0l-338 983h153l256 -758l246 758h123l246 -758l256 758h153l-338 -983h-133l-245 748l-246 -748h-133zM686 1157l-194 277h153l154 -277h-113z" />
    <glyph glyph-name="Wacute" unicode="&#x1e82;" horiz-adv-x="2129" 
d="M532 0l-471 1434h164l379 -1198l389 1198h144l389 -1198l379 1198h163l-471 -1434h-153l-379 1198l-379 -1198h-154zM1014 1628l153 277h154l-195 -277h-112z" />
    <glyph glyph-name="wacute" unicode="&#x1e83;" horiz-adv-x="1495" 
d="M369 0l-338 983h153l256 -758l246 758h123l246 -758l256 758h153l-338 -983h-133l-245 748l-246 -748h-133zM686 1157l154 277h153l-194 -277h-113z" />
    <glyph glyph-name="Wdieresis" unicode="&#x1e84;" horiz-adv-x="2129" 
d="M532 0l-471 1434h164l379 -1198l389 1198h144l389 -1198l379 1198h163l-471 -1434h-153l-379 1198l-379 -1198h-154zM778 1751q0 38 27 65t65 27t65.5 -27t27.5 -65t-27.5 -65t-65.5 -27t-65 27t-27 65zM1167 1751q0 38 27.5 65t65.5 27t65 -27t27 -65t-27 -65t-65 -27
t-65.5 27t-27.5 65z" />
    <glyph glyph-name="wdieresis" unicode="&#x1e85;" horiz-adv-x="1495" 
d="M369 0l-338 983h153l256 -758l246 758h123l246 -758l256 758h153l-338 -983h-133l-245 748l-246 -748h-133zM461 1290q0 38 27 65t65 27t65 -27t27 -65t-27 -65t-65 -27t-65 27t-27 65zM850 1290q0 38 27 65t65 27t65 -27t27 -65t-27 -65t-65 -27t-65 27t-27 65z" />
    <glyph glyph-name="uni1E9E" unicode="&#x1e9e;" horiz-adv-x="1474" 
d="M215 0v995q0 191 124 315t316 124h584v-144l-369 -430h11q204 0 337.5 -124.5t133.5 -305.5t-133.5 -305.5t-337.5 -124.5h-185v143h185q144 0 230.5 81t86.5 206t-86.5 206t-230.5 81h-185v143l369 430h-410q-131 0 -208.5 -79.5t-77.5 -215.5v-995h-154z" />
    <glyph glyph-name="Ygrave" unicode="&#x1ef2;" horiz-adv-x="1300" 
d="M573 0v502l-532 932h174l430 -768h10l430 768h175l-533 -932v-502h-154zM604 1628l-194 277h153l154 -277h-113z" />
    <glyph glyph-name="ygrave" unicode="&#x1ef3;" horiz-adv-x="1003" 
d="M92 -410v134q22 -9 33 -11q33 -10 70 -10q68 0 111 37t73 117l51 143l-399 983h153l318 -799l317 799h154l-451 -1126q-62 -155 -132 -221t-175 -66q-46 0 -88 10q-16 2 -35 10zM440 1157l-194 277h153l154 -277h-113z" />
    <glyph glyph-name="endash" unicode="&#x2013;" horiz-adv-x="983" 
d="M92 532v134h799v-134h-799z" />
    <glyph glyph-name="emdash" unicode="&#x2014;" horiz-adv-x="1474" 
d="M92 532v134h1290v-134h-1290z" />
    <glyph glyph-name="quoteleft" unicode="&#x2018;" horiz-adv-x="430" 
d="M51 1106l236 369l92 -52l-184 -399z" />
    <glyph glyph-name="quoteright" unicode="&#x2019;" horiz-adv-x="430" 
d="M51 1075l185 400l143 -82l-236 -369z" />
    <glyph glyph-name="quotesinglbase" unicode="&#x201a;" horiz-adv-x="450" 
d="M0 -215l184 399l144 -82l-236 -368z" />
    <glyph glyph-name="quotedblleft" unicode="&#x201c;" horiz-adv-x="747" 
d="M51 1106l236 369l92 -52l-184 -399zM369 1106l235 369l92 -52l-184 -399z" />
    <glyph glyph-name="quotedblright" unicode="&#x201d;" horiz-adv-x="747" 
d="M51 1075l185 400l143 -82l-236 -369zM369 1075l184 400l143 -82l-235 -369z" />
    <glyph glyph-name="quotedblbase" unicode="&#x201e;" horiz-adv-x="768" 
d="M0 -215l184 399l144 -82l-236 -368zM317 -215l185 399l143 -82l-235 -368z" />
    <glyph glyph-name="dagger" unicode="&#x2020;" horiz-adv-x="860" 
d="M369 410v634h-246v113h246v277h123v-277h245v-113h-245v-634h-123z" />
    <glyph glyph-name="daggerdbl" unicode="&#x2021;" horiz-adv-x="860" 
d="M369 410v276h-246v113h246v245h-246v113h246v277h123v-277h245v-113h-245v-245h245v-113h-245v-276h-123z" />
    <glyph glyph-name="bullet" unicode="&#x2022;" horiz-adv-x="880" 
d="M246 492q0 76 59 135t135 59q77 0 136 -59t59 -135t-59.5 -135.5t-135.5 -59.5t-135 59t-59 136z" />
    <glyph glyph-name="ellipsis" unicode="&#x2026;" horiz-adv-x="1372" 
d="M123 82q0 47 27.5 74.5t74.5 27.5t75 -27.5t28 -74.5t-28 -74.5t-75 -27.5t-74.5 27.5t-27.5 74.5zM584 82q0 47 27.5 74.5t74.5 27.5t74.5 -27.5t27.5 -74.5t-27.5 -74.5t-74.5 -27.5t-74.5 27.5t-27.5 74.5zM1044 82q0 47 28 74.5t75 27.5t74.5 -27.5t27.5 -74.5
t-27.5 -74.5t-74.5 -27.5t-75 27.5t-28 74.5z" />
    <glyph glyph-name="perthousand" unicode="&#x2030;" horiz-adv-x="2293" 
d="M82 1137q0 129 94 223t223 94t223.5 -94t94.5 -223t-94.5 -223.5t-223.5 -94.5t-223 94.5t-94 223.5zM256 0l901 1434h143l-901 -1434h-143zM399 942q79 0 132 55t53 140t-53 139.5t-132 54.5t-131.5 -54.5t-52.5 -139.5t52.5 -140t131.5 -55zM840 297q0 129 94 223
t223 94t223.5 -94t94.5 -223t-94.5 -223t-223.5 -94t-223 94t-94 223zM1577 297q0 129 94 223t223 94t223.5 -94t94.5 -223t-94.5 -223t-223.5 -94t-223 94t-94 223zM1157 102q79 0 131.5 55t52.5 140t-52.5 140t-131.5 55t-131.5 -55t-52.5 -140t52.5 -140t131.5 -55z
M1894 102q79 0 132 55t53 140t-53 140t-132 55t-131.5 -55t-52.5 -140t52.5 -140t131.5 -55z" />
    <glyph glyph-name="guilsinglleft" unicode="&#x2039;" horiz-adv-x="573" 
d="M328 154l-236 338l236 337h153l-235 -337l235 -338h-153z" />
    <glyph glyph-name="guilsinglright" unicode="&#x203a;" horiz-adv-x="573" 
d="M92 154l236 338l-236 337h154l235 -337l-235 -338h-154z" />
    <glyph glyph-name="uni203D" unicode="&#x203d;" horiz-adv-x="1075" 
d="M440 348v952q-120 -30 -182 -122q-29 -47 -43 -93l-133 41q28 94 86 164q132 164 364 164q196 0 323.5 -115.5t127.5 -273.5q0 -79 -22 -141.5t-57 -104t-77.5 -77t-85.5 -69t-78 -70.5t-57 -91.5t-22 -122.5v-41h-144zM584 1311v-594q28 31 79.5 76.5t83 75.5t57 82
t25.5 114q0 94 -65 161.5t-180 84.5zM410 82q0 47 27.5 74.5t74.5 27.5t74.5 -27.5t27.5 -74.5t-27.5 -74.5t-74.5 -27.5t-74.5 27.5t-27.5 74.5z" />
    <glyph glyph-name="fraction" unicode="&#x2044;" horiz-adv-x="358" 
d="M-328 0l881 1434h133l-881 -1434h-133z" />
    <glyph glyph-name="uni2070" unicode="&#x2070;" horiz-adv-x="716" 
d="M358 911q-128 0 -212.5 99t-84.5 270t84.5 270t212.5 99t212.5 -99t84.5 -270t-84.5 -270t-212.5 -99zM358 1014q74 0 129.5 72t55.5 194t-55.5 194t-129.5 72t-129 -72t-55 -194t55 -194t129 -72z" />
    <glyph glyph-name="uni2074" unicode="&#x2074;" horiz-adv-x="614" 
d="M20 1085v103l318 450h133v-450h82v-103h-82v-163h-113v163h-338zM133 1188h225v317z" />
    <glyph glyph-name="uni2075" unicode="&#x2075;" horiz-adv-x="593" 
d="M20 1024l72 72q21 -21 51 -41q59 -41 144 -41q75 0 114 33.5t39 89.5q0 62 -37.5 97.5t-105.5 35.5q-52 0 -100 -21q-23 -10 -33 -20h-92l41 409h399v-102h-307l-21 -195l35 15q46 16 88 16q108 0 177 -67t69 -168q0 -95 -73 -160.5t-193 -65.5q-125 0 -203 56
q-39 25 -64 57z" />
    <glyph glyph-name="uni2076" unicode="&#x2076;" horiz-adv-x="614" 
d="M92 1321l215 317h123l-154 -235h31q114 0 190 -72.5t76 -173.5t-76 -173.5t-190 -72.5t-190 72.5t-76 173.5q0 62 25 117q8 22 26 47zM154 1159q0 -64 42.5 -104.5t110.5 -40.5t111 40.5t43 102.5t-43 102.5t-111 40.5t-110.5 -40t-42.5 -101z" />
    <glyph glyph-name="uni2077" unicode="&#x2077;" horiz-adv-x="542" 
d="M133 922l277 614h-369v102h481v-102l-276 -614h-113z" />
    <glyph glyph-name="uni2078" unicode="&#x2078;" horiz-adv-x="573" 
d="M31 1126q0 85 65 138q27 21 68 36q-29 13 -51 35q-52 48 -52 119q0 79 64.5 137t161.5 58t161 -58t64 -137q0 -68 -51 -119q-22 -22 -51 -35q39 -15 65 -36q68 -56 68 -138q0 -89 -71.5 -152t-184.5 -63t-184.5 63t-71.5 152zM174 1454q0 -102 113 -102q112 0 112 102
q0 40 -30 66t-82 26t-82.5 -26t-30.5 -66zM143 1126q0 -49 38.5 -80.5t105.5 -31.5t105 31.5t38 80.5q0 50 -38.5 86.5t-104.5 36.5t-105 -36.5t-39 -86.5z" />
    <glyph glyph-name="uni2079" unicode="&#x2079;" horiz-adv-x="614" 
d="M184 922l154 235h-31q-114 0 -190 72.5t-76 173.5t76 173.5t190 72.5t190 -72.5t76 -173.5q0 -59 -26 -117q-9 -25 -25 -47l-215 -317h-123zM154 1403q0 -62 42.5 -102.5t110.5 -40.5t111 40t43 101q0 63 -42.5 104t-111.5 41q-68 0 -110.5 -40.5t-42.5 -102.5z" />
    <glyph glyph-name="uni2080" unicode="&#x2080;" horiz-adv-x="716" 
d="M358 -215q-128 0 -212.5 99t-84.5 270t84.5 269.5t212.5 98.5t212.5 -98.5t84.5 -269.5t-84.5 -270t-212.5 -99zM358 -113q74 0 129.5 72.5t55.5 194.5t-55.5 194t-129.5 72t-129 -72t-55 -194q0 -123 55 -195t129 -72z" />
    <glyph glyph-name="uni2081" unicode="&#x2081;" horiz-adv-x="450" 
d="M195 -205v543h-134v82q78 0 123 45q23 23 31 47h92v-717h-112z" />
    </font>
</defs>
</svg>
