<svg width="198" height="33" viewBox="0 0 198 33" fill="none" xmlns="http://www.w3.org/2000/svg">
<path fill-rule="evenodd" clip-rule="evenodd" d="M69.1729 1.79976C61.2854 5.71212 55.6854 0.860793 55.6854 0.860793C57.815 5.55562 64.8348 8.60726 72.6433 4.46016C80.9251 0.156569 87.1562 6.80758 87.1562 6.80758C82.1871 0.0783214 76.5871 -1.79961 69.1729 1.79976ZM13.5664 2.26923V10.9547H4.02259V2.26923H0V13.1456V17.4492V25.0391H4.02259V16.9797V14.1628H13.5664V14.6323V25.0391H17.589V16.0407V14.3193V2.26923H13.5664ZM59.4711 22.3003C59.1556 22.3785 58.7612 22.3785 58.3668 22.3785C58.1302 22.3785 57.9725 22.3785 57.7358 22.222C57.5781 22.1438 57.4203 21.9873 57.2626 21.8308C57.1049 21.596 57.026 21.3613 56.9471 21.1266C56.8682 20.7353 56.8682 20.3441 56.8682 20.0311V20.0311V12.0499H60.4176L60.7331 9.38949H56.8682V5.32064H54.0288L53.1611 9.38949L50.7949 10.172V12.0499H53.1611V20.5006C53.1611 21.2048 53.24 21.909 53.3189 22.535L53.3189 22.535C53.4766 23.0828 53.6344 23.6305 54.0288 24.0999C54.4231 24.5694 54.8175 24.8824 55.3696 25.0389C56.0795 25.2737 56.7894 25.4301 57.5781 25.3519C58.288 25.3519 58.919 25.1954 59.55 24.9607C60.3387 24.6477 60.9697 24.2564 61.6007 23.787L60.7331 21.9873C60.3387 22.1438 59.9443 22.222 59.4711 22.3003ZM49.0598 18.2314C48.8232 17.9185 48.5865 17.6055 48.271 17.3707C47.9556 17.136 47.6401 16.9012 47.3246 16.7448C47.0091 16.5883 46.6936 16.4318 46.3781 16.3535L45.5893 16.0405L45.5893 16.0405C45.1949 15.884 44.8005 15.7275 44.3273 15.571L44.3273 15.571C43.9329 15.4145 43.5386 15.2581 43.0653 15.1016C43.0198 15.0865 42.9713 15.0714 42.921 15.0558C42.7101 14.9903 42.4677 14.9149 42.2766 14.7886C42.04 14.7103 41.8034 14.5538 41.5667 14.3973L41.0935 13.9279C40.9357 13.7714 40.9357 13.4584 40.9357 13.2236C40.9357 12.9889 40.9357 12.7542 41.0935 12.5194C41.1724 12.2847 41.3301 12.1282 41.4879 11.9717C41.7245 11.8152 41.9611 11.6587 42.2766 11.5804C42.5921 11.5022 42.9865 11.424 43.3808 11.424C43.8541 11.424 44.2485 11.424 44.6428 11.5804C44.9473 11.6409 45.2047 11.7479 45.4878 11.8656C45.5714 11.9003 45.6572 11.936 45.7471 11.9717C46.0626 12.1282 46.3781 12.3629 46.6936 12.5977C47.0091 12.8324 47.3246 13.1454 47.5612 13.3801L49.2964 10.7197C48.5077 10.0937 47.5612 9.62427 46.6147 9.31128C45.5104 8.99829 44.4062 8.84179 43.302 8.84179C42.5132 8.84179 41.8034 8.92004 41.0935 9.15478C40.3836 9.31128 39.7526 9.62427 39.2005 9.93725C38.6484 10.2502 38.1751 10.7197 37.8596 11.2675C37.5441 11.8152 37.3075 12.4412 37.3864 13.1454C37.3864 13.6149 37.4653 14.1626 37.623 14.6321C37.7808 15.0233 38.0174 15.4145 38.254 15.8057L38.254 15.8058C38.4906 16.1188 38.8061 16.4318 39.2005 16.6665C39.516 16.9012 39.8315 17.136 40.2259 17.2925L41.1724 17.762C41.3572 17.8536 41.542 17.9185 41.6951 17.9722C41.8034 18.0101 41.8958 18.0425 41.9611 18.075L43.1442 18.5444L44.3273 19.0139C44.564 19.0922 44.7217 19.1704 44.9583 19.3269C45.1243 19.3818 45.2515 19.4752 45.3944 19.5801L45.3944 19.5802L45.3945 19.5802L45.3945 19.5802L45.3945 19.5803L45.3946 19.5803L45.3946 19.5803C45.4553 19.6249 45.5188 19.6715 45.5893 19.7181L46.0626 20.1876C46.2203 20.3441 46.2203 20.6571 46.2203 20.8136C46.2203 21.1266 46.1414 21.4396 46.0626 21.6743C45.9048 21.9091 45.7471 22.1438 45.5104 22.3003C45.2738 22.4568 45.0372 22.6133 44.7217 22.6133C44.4062 22.6915 44.0907 22.6915 43.6963 22.6915C42.04 22.6915 40.5414 21.9091 39.0428 20.3441L36.992 22.848C37.3864 23.3175 37.9385 23.7088 38.4118 24.0217C38.885 24.3347 39.4371 24.5695 39.9892 24.8042L39.9892 24.8042C40.5414 24.9607 41.1724 25.1172 41.8034 25.1954C42.4343 25.2737 43.1442 25.3519 43.8541 25.3519C44.6428 25.3519 45.4316 25.2737 46.1414 25.0389C46.8513 24.8825 47.5612 24.5695 48.1922 24.1782C48.7443 23.8652 49.2964 23.3175 49.6119 22.7698C50.0063 22.1438 50.164 21.5178 50.164 20.8136C50.164 20.2659 50.0852 19.7964 49.9274 19.2487C49.533 19.0139 49.2964 18.6227 49.0598 18.2314ZM28.7892 22.1438C29.1047 21.9873 29.4202 21.8308 29.7356 21.5961V16.6665L29.6225 16.6767C28.786 16.7518 27.8805 16.8331 26.975 17.0577C26.344 17.2142 25.7919 17.5272 25.2398 17.8402C24.8454 18.1532 24.5299 18.4662 24.3722 18.9357C24.2144 19.4051 24.1356 19.8746 24.1356 20.3441C24.1356 20.7353 24.2144 21.1266 24.2933 21.4396C24.3722 21.7525 24.5299 21.9873 24.6877 22.1438C24.8454 22.3785 25.082 22.4568 25.3187 22.535C25.5553 22.6133 25.7919 22.6133 26.1074 22.6133H26.975C27.2117 22.6133 27.5272 22.535 27.8427 22.4568C28.1581 22.3785 28.4736 22.3003 28.7891 22.1438L28.7892 22.1438ZM34.6259 22.7698H35.0991C35.178 22.7437 35.2568 22.7263 35.3357 22.7089C35.4935 22.6741 35.6512 22.6393 35.809 22.535L36.2033 24.2565C35.9667 24.3347 35.7301 24.4912 35.4935 24.6477C35.2568 24.8042 35.0202 24.8824 34.7047 24.9607L33.7582 25.1954C33.3639 25.2737 32.9695 25.2737 32.654 25.2737C32.023 25.3519 31.392 25.1172 30.8399 24.8042C30.3666 24.4912 30.0511 24.0217 29.8934 23.3957C29.791 23.477 29.6886 23.5635 29.5849 23.6512C29.2889 23.9013 28.9818 24.1609 28.6314 24.3347C28.237 24.6477 27.7638 24.8042 27.2905 24.9607L27.2905 24.9607C26.8962 25.1172 26.423 25.1954 25.9498 25.2736L25.9498 25.2736L25.9498 25.2736L25.9498 25.2736L25.9497 25.2737L25.9497 25.2737L25.9497 25.2737L25.9497 25.2737C25.5553 25.3519 25.1609 25.3519 24.6877 25.3519C24.0567 25.3519 23.4257 25.1954 22.7947 25.0389L22.7947 25.0389C22.3214 24.8824 21.8482 24.6477 21.375 24.2565C20.9017 23.8652 20.5862 23.474 20.4285 22.9263C20.1918 22.3003 20.113 21.6743 20.113 21.0483C20.113 20.3441 20.2707 19.6399 20.5073 18.9357C20.744 18.3097 21.0595 17.8402 21.5327 17.3707C22.0059 16.9012 22.5581 16.5882 23.1102 16.2752C23.7412 15.9623 24.3722 15.7275 25.082 15.571C25.7919 15.4145 26.5807 15.3363 27.3694 15.258C28.1581 15.1798 29.0258 15.1798 29.8145 15.1798V14.6321C29.8145 14.1626 29.7356 13.7713 29.5779 13.3019C29.4201 12.9106 29.2624 12.5976 28.9469 12.3629C28.8417 12.3107 28.7366 12.2499 28.6314 12.189C28.4211 12.0673 28.2107 11.9456 28.0004 11.8934C27.606 11.8152 27.2117 11.7369 26.8173 11.7369C26.4229 11.7369 26.1074 11.7369 25.7919 11.8152C25.3975 11.8152 25.082 11.9717 24.7666 12.1281C24.4511 12.2846 24.0567 12.5194 23.7412 12.7541L23.7412 12.7541C23.3468 13.0671 22.9524 13.3801 22.5581 13.7713L20.5073 11.5022C21.375 10.7979 22.4003 10.172 23.5046 9.78074C24.6088 9.3895 25.7919 9.15476 27.0539 9.15476C27.9215 9.15476 28.7103 9.31125 29.499 9.46775C30.2089 9.62424 30.9188 9.93723 31.5497 10.3285C32.1019 10.7197 32.654 11.2674 32.9695 11.8934C33.3639 12.5194 33.5216 13.3019 33.5216 14.0843V20.9701C33.5216 21.1266 33.5413 21.2635 33.561 21.4004C33.5808 21.5374 33.6005 21.6743 33.6005 21.8308C33.6005 22.0655 33.6794 22.222 33.7582 22.3785C33.7582 22.535 33.916 22.6133 34.0737 22.6915C34.2315 22.7698 34.4681 22.7698 34.6259 22.7698ZM67.9111 9.38948H64.1252V25.0389H67.9111V9.38948ZM96.9368 16.9795C97.0945 16.6665 97.2523 16.2753 97.2523 15.884C97.2786 15.7275 97.2961 15.571 97.3136 15.4146C97.3487 15.1016 97.3837 14.7886 97.4889 14.4756C97.4889 13.3801 97.2523 12.5194 96.779 12.0499C96.2269 11.5022 95.517 11.1892 94.7283 11.2674C94.0184 11.2674 93.3085 11.5022 92.8353 12.0499C92.3621 12.5976 92.1254 13.3801 92.1254 14.3973C92.1254 14.8668 92.2043 15.3363 92.2832 15.8058C92.3621 16.197 92.5198 16.6665 92.7564 16.9795C92.993 17.2925 93.3085 17.6055 93.624 17.7619C94.0184 17.9967 94.4917 18.0749 94.9649 18.0749C95.3593 18.0749 95.8325 17.9967 96.2269 17.7619C96.5424 17.6055 96.779 17.2925 96.9368 16.9795ZM91.2578 26.4474C91.1789 26.6039 91.1001 26.8386 91.1001 27.0734C91.1001 27.3081 91.0212 27.5428 90.8634 27.6993C90.8634 28.0123 91.0212 28.3253 91.1789 28.5601C91.4156 28.873 91.6522 29.186 91.9677 29.3425C92.2832 29.5773 92.6776 29.7338 93.0719 29.8903C93.4663 29.9685 93.8607 30.0467 94.3339 30.0467C95.1227 30.125 95.9114 30.0467 96.7001 29.8903C97.2523 29.812 97.7255 29.5773 98.1988 29.3425C98.8298 29.0295 99.2241 28.3253 99.2241 27.6211C99.2241 27.3863 99.1452 27.1516 98.9875 26.9951C98.7509 26.7604 98.5143 26.6039 98.2776 26.5256C97.9621 26.3691 97.5678 26.2909 97.1734 26.2126C96.9368 26.1735 96.7002 26.1148 96.4636 26.0562L96.4635 26.0561C96.2269 25.9975 95.9903 25.9388 95.7537 25.8996C95.5183 25.8529 95.2969 25.8062 95.0855 25.7616C94.5883 25.6567 94.1456 25.5633 93.7029 25.5084C93.0719 25.4302 92.5198 25.3519 92.0466 25.2737C91.8888 25.4302 91.7311 25.5867 91.5733 25.8214C91.5494 25.8688 91.5183 25.9233 91.4844 25.9829C91.4061 26.1201 91.3128 26.2837 91.2578 26.4474ZM97.9621 9.62425C98.1988 9.70249 98.5931 9.85899 98.9086 10.0155C99.6974 9.78074 100.486 9.62425 101.59 9.546L101.805 9.52454C102.509 9.45406 103.154 9.3895 103.799 9.3895L103.168 12.2064L100.407 11.7369C100.723 12.1282 100.88 12.5194 101.038 12.9889C101.275 13.6149 101.354 14.3191 101.354 14.9451C101.354 15.7275 101.196 16.51 100.802 17.2142C100.407 17.9184 99.934 18.4662 99.3819 18.9357C98.7509 19.3269 98.1199 19.7181 97.4889 19.9529C96.9368 20.1876 96.2269 20.3441 95.5959 20.3441C94.886 20.3441 94.1762 20.3441 93.4663 20.1876L92.0466 19.7181C91.8099 19.9529 91.6522 20.1094 91.4944 20.3441C91.3367 20.5788 91.2578 20.8136 91.2578 21.1266C91.2578 21.2831 91.3367 21.4396 91.4944 21.5178C91.6522 21.6743 91.8888 21.7526 92.1254 21.8308C92.4409 21.9873 92.7564 22.0655 93.0719 22.1438C93.2297 22.1829 93.4071 22.222 93.5846 22.2612L93.5848 22.2612C93.7622 22.3003 93.9396 22.3394 94.0973 22.3785C94.4917 22.3785 94.886 22.4568 95.2015 22.535C95.517 22.6133 95.8325 22.6915 96.148 22.6915C96.3846 22.7306 96.6606 22.7698 96.9366 22.8089L96.9368 22.8089C97.2128 22.848 97.4889 22.8871 97.7255 22.9263C98.2776 23.0045 98.8298 23.0828 99.303 23.2392L100.723 23.7087C101.117 23.8652 101.59 24.1 101.906 24.413C102.221 24.6477 102.537 25.0389 102.695 25.4302C102.931 25.8996 103.01 26.3691 103.01 26.8386C103.01 27.4646 102.931 28.0906 102.616 28.7165C102.379 29.2643 102.064 29.7338 101.59 30.125C101.196 30.5162 100.644 30.8292 100.092 31.064C99.5396 31.2987 98.9086 31.4552 98.2776 31.6117C97.6466 31.7682 96.9368 31.9247 96.3058 31.9247C95.6748 32.0029 95.0438 32.0029 94.4128 32.0029C93.3874 32.0029 92.3621 31.9247 91.4156 31.7682C90.7057 31.6899 89.9958 31.4552 89.3648 31.1422C88.8916 30.9075 88.4972 30.5945 88.1817 30.125C87.9451 29.812 87.7874 29.3425 87.7874 28.873C87.7085 28.4036 87.8662 27.9341 88.024 27.4646C88.1817 27.0734 88.4183 26.6821 88.7338 26.3691L88.7339 26.3691C89.0494 26.0561 89.3649 25.7431 89.7592 25.5084C90.0747 25.2737 90.4691 25.0389 90.8634 24.8042C90.7106 24.7537 90.5578 24.6705 90.3838 24.5758C90.2883 24.5238 90.1865 24.4684 90.0747 24.413C89.7592 24.2565 89.4437 24.1 89.2071 23.8652L89.207 23.8652L89.207 23.8651C88.9704 23.6304 88.6549 23.3174 88.4972 23.0045C88.2606 22.6133 88.1817 22.222 88.1817 21.7526C88.1817 21.4396 88.1817 21.1266 88.3395 20.8136C88.4972 20.5006 88.655 20.2659 88.8916 20.0311C89.1282 19.7964 89.3648 19.5616 89.6803 19.4051C89.8381 19.3269 90.0155 19.2486 90.193 19.1704C90.3705 19.0922 90.5479 19.0139 90.7057 18.9357C90.3113 18.6227 89.9958 18.3097 89.6803 17.9967C89.4437 17.6837 89.2071 17.2925 89.0493 16.9795C88.8127 16.5882 88.7338 16.197 88.655 15.8058C88.4972 15.3363 88.4972 14.8668 88.4972 14.3973C88.4972 13.6149 88.655 12.8324 88.9705 12.1282C89.286 11.4239 89.7592 10.8762 90.3113 10.4067C90.9423 9.93723 91.5733 9.62425 92.3621 9.3895C93.2297 9.23301 94.1762 9.07652 95.0438 9.07652C95.252 9.07652 95.4601 9.09832 95.6567 9.11891C95.8325 9.13732 95.9991 9.15476 96.148 9.15476C96.4635 9.15476 96.779 9.23301 97.0945 9.31126C97.41 9.3895 97.6466 9.46775 97.9621 9.62425ZM116.734 19.4052C116.576 19.0139 116.418 18.6227 116.103 18.2314C115.866 17.9185 115.63 17.6055 115.314 17.3707C114.999 17.136 114.683 16.9012 114.368 16.7448C114.052 16.5883 113.737 16.4318 113.421 16.3535L112.632 16.0405C112.238 15.884 111.844 15.7275 111.37 15.571L111.37 15.5709C110.976 15.4145 110.581 15.258 110.108 15.1016C110.063 15.0865 110.014 15.0715 109.964 15.0558L109.964 15.0558L109.964 15.0558C109.753 14.9903 109.511 14.9149 109.32 14.7886C109.083 14.7103 108.846 14.5538 108.61 14.3973L108.137 13.9279C107.979 13.7714 107.979 13.4584 107.979 13.2236C107.979 12.9889 107.979 12.7542 108.137 12.5194C108.215 12.2847 108.373 12.1282 108.531 11.9717C108.767 11.8152 109.004 11.6587 109.241 11.5804C109.556 11.5022 109.951 11.424 110.345 11.424C110.818 11.424 111.213 11.424 111.607 11.5804C111.911 11.6409 112.169 11.7479 112.452 11.8656L112.452 11.8657L112.452 11.8657C112.536 11.9004 112.621 11.9361 112.711 11.9717C113.027 12.1282 113.342 12.3629 113.658 12.5977C113.973 12.8324 114.21 13.0671 114.525 13.3801L116.261 10.7197C115.472 10.0937 114.525 9.62427 113.579 9.31128C112.475 8.99829 111.37 8.84179 110.266 8.84179C109.477 8.84179 108.767 8.92004 108.058 9.15478C107.348 9.31128 106.717 9.62427 106.165 9.93725C105.613 10.2502 105.139 10.7197 104.745 11.2675C104.429 11.8152 104.193 12.4412 104.272 13.1454C104.272 13.6149 104.351 14.1626 104.508 14.6321C104.666 15.0233 104.903 15.4146 105.139 15.8058C105.376 16.1188 105.691 16.4318 106.086 16.6665C106.401 16.9012 106.717 17.136 107.111 17.2925L108.058 17.762C108.242 17.8536 108.427 17.9185 108.58 17.9722C108.689 18.0101 108.781 18.0425 108.846 18.075L110.029 18.5444L111.213 19.0139C111.449 19.0922 111.686 19.1704 111.844 19.3269C112.01 19.3818 112.137 19.4752 112.28 19.5801L112.28 19.5802C112.34 19.6248 112.404 19.6715 112.475 19.7181L112.948 20.1876C113.106 20.3441 113.106 20.6571 113.106 20.8136C113.106 21.4396 112.869 21.9091 112.396 22.3003C112.159 22.4568 111.922 22.6133 111.607 22.6133C111.291 22.6915 110.976 22.6915 110.582 22.6915C108.925 22.6915 107.427 21.9091 105.928 20.3441L103.877 22.848C104.351 23.3175 104.824 23.7088 105.297 24.0217C105.77 24.3347 106.322 24.5695 106.875 24.8042C107.427 24.9607 108.058 25.1172 108.61 25.1954C109.241 25.2737 109.951 25.3519 110.582 25.3519C111.37 25.3519 112.159 25.2737 112.948 25.0389C113.658 24.8825 114.368 24.5695 114.999 24.1782C115.551 23.8652 116.103 23.3175 116.418 22.7698C116.813 22.2221 116.97 21.5178 116.97 20.8136C117.049 20.4224 116.97 19.9529 116.734 19.4052ZM82.3446 9.46775C83.0545 9.70249 83.6855 10.0937 84.2376 10.5632C84.7897 11.1109 85.1841 11.6587 85.4207 12.3629C85.7362 13.1454 85.8939 13.9278 85.8939 14.7103V25.0389H82.0291V15.4145C82.0291 14.9451 82.0291 14.3973 81.8714 13.8496C81.7925 13.3801 81.5559 13.0671 81.3192 12.7541C81.0037 12.4411 80.6882 12.2846 80.3727 12.1282C79.9784 12.0499 79.584 11.9717 79.1107 11.9717C78.953 11.9717 78.815 11.9912 78.6769 12.0108C78.5389 12.0303 78.4009 12.0499 78.2431 12.0499C77.9276 12.0499 77.6121 12.1282 77.2966 12.2064C76.9811 12.2846 76.6656 12.3629 76.3501 12.5194C76.1135 12.5976 75.798 12.7541 75.4825 12.9106V25.0389H71.6965V11.8934V10.7197C71.6965 10.2502 71.6177 9.70249 71.5388 9.23301H75.0882C75.0882 9.32468 75.1152 9.3895 75.1376 9.4432C75.1535 9.48118 75.167 9.51359 75.167 9.546C75.167 9.57841 75.1806 9.62425 75.1964 9.67795C75.2188 9.75389 75.2459 9.84556 75.2459 9.93723C75.2459 10.0155 75.2656 10.0937 75.2853 10.172C75.3051 10.2502 75.3248 10.3285 75.3248 10.4067C75.4036 10.5632 75.4036 10.6415 75.4036 10.798C75.6403 10.5632 75.9558 10.3285 76.2713 10.172C76.5868 9.93723 76.9811 9.78074 77.3755 9.62425C77.7699 9.46775 78.1643 9.31126 78.6375 9.23301C79.1107 9.15476 79.584 9.07652 80.0572 9.07652C80.846 9.07652 81.6347 9.23301 82.3446 9.46775Z" fill="white"/>
<path d="M186.191 9.28284V11.5281H190.883V24.8452H193.308V11.5281H198V9.28284H186.191ZM179.309 9.05056C176.962 9.05056 175.007 9.82481 173.365 11.3733C171.801 12.9218 171.019 14.78 171.019 17.0253C171.019 19.2706 171.801 21.1288 173.365 22.6773C174.929 24.2258 176.962 25 179.309 25C180.091 25 180.873 24.9226 181.577 24.6903C182.359 24.458 182.906 24.2258 183.375 23.9161C183.845 23.6064 184.314 23.2967 184.705 22.987C185.096 22.6773 185.409 22.3676 185.487 22.2127C185.643 22.0579 185.722 21.9804 185.722 21.903L184.157 20.3545L184.001 20.5868C183.845 20.7417 183.688 20.9739 183.375 21.2062C183.063 21.4385 182.75 21.6707 182.437 21.903C182.046 22.1353 181.577 22.3676 181.029 22.5224C180.482 22.6773 179.856 22.7547 179.309 22.7547C177.666 22.7547 176.259 22.2127 175.164 21.0514C174.069 19.9674 173.443 18.5738 173.443 16.9479C173.443 15.3219 173.991 14.0057 175.164 12.8444C176.259 11.7604 177.666 11.141 179.309 11.141C179.934 11.141 180.482 11.2184 181.029 11.3733C181.577 11.5281 182.046 11.7604 182.359 11.9153C182.672 12.1475 182.984 12.3798 183.297 12.6121C183.61 12.9218 183.766 13.0766 183.845 13.1541C183.923 13.2315 184.001 13.3089 184.001 13.3863L185.565 11.8378L185.331 11.5281C185.174 11.2959 184.861 11.0636 184.548 10.7539C184.157 10.4442 183.766 10.1345 183.297 9.90223C182.828 9.59253 182.202 9.36026 181.498 9.12799C180.795 8.89571 180.091 9.05056 179.309 9.05056ZM161.556 22.5998V17.7995H168.36V15.5542H161.556V11.4507H170.158V9.20541H159.053V24.8452H170.393V22.5998H161.556ZM153.892 14.0832C153.892 14.78 153.657 15.3994 153.188 15.9413C152.718 16.4833 152.093 16.6382 151.389 16.6382H147.244V11.5281H151.389C152.093 11.5281 152.718 11.7604 153.188 12.225C153.657 12.6895 153.892 13.3089 153.892 14.0832ZM144.663 24.8452H147.088V18.8835H150.685L154.048 24.8452H156.707L153.109 18.6512L153.422 18.4963C153.657 18.4189 153.892 18.2641 154.204 18.0318C154.517 17.7995 154.83 17.4898 155.143 17.1801C155.456 16.8704 155.69 16.4059 155.925 15.8639C156.16 15.3219 156.238 14.7025 156.238 14.0832C156.238 12.7669 155.769 11.6056 154.83 10.6765C153.892 9.74738 152.64 9.28284 151.233 9.28284H144.663V24.8452ZM138.876 24.8452H141.3V9.28284H138.876V24.8452ZM128.474 11.5281C129.96 11.5281 131.29 12.0701 132.385 13.1541C133.48 14.238 133.949 15.5542 133.949 17.1027C133.949 18.6512 133.401 19.9674 132.385 21.0514C131.29 22.1353 130.039 22.6773 128.474 22.6773H125.424V11.5281H128.474ZM123 9.28284V24.8452H128.474C130.664 24.8452 132.541 24.0709 134.105 22.5224C135.669 20.9739 136.452 19.1932 136.452 17.0253C136.452 14.9348 135.669 13.0766 134.105 11.5281C132.541 9.97966 130.664 9.20541 128.474 9.20541H123V9.28284Z" fill="white"/>
</svg>
